M48
INCH,TZ
T1C0.013
T2C0.013
T3C0.040
T4C0.118
%
G90
G05
T1
X51992Y-46240
X52386Y-45020
X53201Y-45091
X57280Y-46835
X59358Y-49232
X59366Y-48295
X59862Y-47386
X60232Y-43476
X60240Y-44500
X60421Y-48740
X60472Y-36909
X60484Y-39028
X60661Y-38728
X60758Y-36272
X60827Y-36594
X60886Y-37362
X61120Y-49088
X61549Y-47152
X61713Y-36299
X61772Y-48713
X61929Y-37402
X61929Y-38228
X62638Y-38642
X62752Y-47748
X62823Y-46922
X62840Y-49226
X62972Y-36772
X63111Y-38155
X63189Y-37579
X63279Y-37134
X63314Y-46070
X63762Y-46210
X63976Y-37520
X64063Y-46508
X64154Y-38524
X64671Y-37540
T2
X60732Y-39637
X60732Y-45402
X60866Y-40066
X60866Y-44973
X60895Y-45689
X61001Y-40496
X61001Y-44544
X61030Y-39780
X61030Y-45260
X61135Y-44115
X61164Y-40209
X61164Y-44830
X61269Y-43686
X61283Y-46061
X61298Y-40638
X61298Y-44401
X61404Y-41783
X61404Y-43257
X61433Y-43972
X61470Y-39249
X61470Y-45791
X61538Y-42212
X61538Y-42827
X61567Y-41497
X61567Y-43543
X61701Y-41926
X61701Y-43114
X61728Y-39042
X61728Y-45998
X61836Y-42355
X61836Y-42685
X61915Y-39312
X61915Y-45727
X62305Y-38998
X62305Y-38998
X62305Y-46042
X63404Y-38998
X63794Y-39312
X63873Y-42355
X63873Y-42685
X63981Y-39042
X64008Y-41926
X64008Y-43114
X64142Y-41497
X64142Y-43543
X64171Y-42212
X64171Y-42827
X64239Y-39249
X64276Y-41067
X64276Y-43972
X64305Y-41783
X64305Y-43257
X64411Y-40638
X64411Y-44401
X64420Y-46229
X64426Y-38978
X64440Y-41354
X64440Y-43686
X64545Y-40209
X64545Y-44830
X64574Y-40925
X64574Y-44115
X64679Y-39780
X64679Y-45260
X64708Y-40496
X64708Y-44544
X64814Y-39351
X64814Y-45689
X64843Y-40066
X64843Y-44973
X64977Y-39637
X64977Y-45402
T3
X51913Y-40717
X51913Y-41717
T4
X52264Y-36516
X52264Y-48524
X64272Y-36516
X64272Y-48524
T0
M30
