G04 #@! TF.FileFunction,Legend,Bot*
%FSLAX46Y46*%
G04 Gerber Fmt 4.6, Leading zero omitted, Abs format (unit mm)*
G04 Created by KiCad (PCBNEW (2015-11-03 BZR 6296)-product) date Monday, December 21, 2015 'AMt' 10:05:28 AM*
%MOMM*%
G01*
G04 APERTURE LIST*
%ADD10C,0.100000*%
%ADD11C,0.175000*%
%ADD12C,0.250000*%
%ADD13C,0.300000*%
%ADD14C,0.150000*%
G04 APERTURE END LIST*
D10*
D11*
X164362381Y-106626667D02*
X164362381Y-106150476D01*
X164838571Y-106102857D01*
X164790952Y-106150476D01*
X164743333Y-106245714D01*
X164743333Y-106483810D01*
X164790952Y-106579048D01*
X164838571Y-106626667D01*
X164933810Y-106674286D01*
X165171905Y-106674286D01*
X165267143Y-106626667D01*
X165314762Y-106579048D01*
X165362381Y-106483810D01*
X165362381Y-106245714D01*
X165314762Y-106150476D01*
X165267143Y-106102857D01*
X164362381Y-107293333D02*
X164362381Y-107388572D01*
X164410000Y-107483810D01*
X164457619Y-107531429D01*
X164552857Y-107579048D01*
X164743333Y-107626667D01*
X164981429Y-107626667D01*
X165171905Y-107579048D01*
X165267143Y-107531429D01*
X165314762Y-107483810D01*
X165362381Y-107388572D01*
X165362381Y-107293333D01*
X165314762Y-107198095D01*
X165267143Y-107150476D01*
X165171905Y-107102857D01*
X164981429Y-107055238D01*
X164743333Y-107055238D01*
X164552857Y-107102857D01*
X164457619Y-107150476D01*
X164410000Y-107198095D01*
X164362381Y-107293333D01*
X165362381Y-108055238D02*
X164695714Y-108055238D01*
X164790952Y-108055238D02*
X164743333Y-108102857D01*
X164695714Y-108198095D01*
X164695714Y-108340953D01*
X164743333Y-108436191D01*
X164838571Y-108483810D01*
X165362381Y-108483810D01*
X164838571Y-108483810D02*
X164743333Y-108531429D01*
X164695714Y-108626667D01*
X164695714Y-108769524D01*
X164743333Y-108864762D01*
X164838571Y-108912381D01*
X165362381Y-108912381D01*
X165076667Y-109340952D02*
X165076667Y-109817143D01*
X165362381Y-109245714D02*
X164362381Y-109579047D01*
X165362381Y-109912381D01*
D12*
X137139999Y-90954048D02*
X137020952Y-90894524D01*
X136782856Y-90894524D01*
X136663809Y-90954048D01*
X136604285Y-91013571D01*
X136544761Y-91132619D01*
X136544761Y-91489762D01*
X136604285Y-91608810D01*
X136663809Y-91668333D01*
X136782856Y-91727857D01*
X137020952Y-91727857D01*
X137139999Y-91668333D01*
X137675714Y-90894524D02*
X137675714Y-92144524D01*
X137794762Y-91370714D02*
X138151905Y-90894524D01*
X138151905Y-91727857D02*
X137675714Y-91251667D01*
X139223333Y-90894524D02*
X139223333Y-92144524D01*
X139223333Y-90954048D02*
X139104286Y-90894524D01*
X138866190Y-90894524D01*
X138747143Y-90954048D01*
X138687619Y-91013571D01*
X138628095Y-91132619D01*
X138628095Y-91489762D01*
X138687619Y-91608810D01*
X138747143Y-91668333D01*
X138866190Y-91727857D01*
X139104286Y-91727857D01*
X139223333Y-91668333D01*
X139818571Y-91013571D02*
X139878095Y-90954048D01*
X139818571Y-90894524D01*
X139759047Y-90954048D01*
X139818571Y-91013571D01*
X139818571Y-90894524D01*
X140235238Y-91727857D02*
X140711428Y-91727857D01*
X140413809Y-92144524D02*
X140413809Y-91073095D01*
X140473333Y-90954048D01*
X140592380Y-90894524D01*
X140711428Y-90894524D01*
X141604286Y-90954048D02*
X141485238Y-90894524D01*
X141247143Y-90894524D01*
X141128095Y-90954048D01*
X141068571Y-91073095D01*
X141068571Y-91549286D01*
X141128095Y-91668333D01*
X141247143Y-91727857D01*
X141485238Y-91727857D01*
X141604286Y-91668333D01*
X141663809Y-91549286D01*
X141663809Y-91430238D01*
X141068571Y-91311190D01*
X142735238Y-90954048D02*
X142616191Y-90894524D01*
X142378095Y-90894524D01*
X142259048Y-90954048D01*
X142199524Y-91013571D01*
X142140000Y-91132619D01*
X142140000Y-91489762D01*
X142199524Y-91608810D01*
X142259048Y-91668333D01*
X142378095Y-91727857D01*
X142616191Y-91727857D01*
X142735238Y-91668333D01*
X143270953Y-90894524D02*
X143270953Y-92144524D01*
X143806667Y-90894524D02*
X143806667Y-91549286D01*
X143747144Y-91668333D01*
X143628096Y-91727857D01*
X143449524Y-91727857D01*
X143330477Y-91668333D01*
X143270953Y-91608810D01*
X145294762Y-92204048D02*
X144223334Y-90596905D01*
X146247143Y-90894524D02*
X146247143Y-91549286D01*
X146187620Y-91668333D01*
X146068572Y-91727857D01*
X145830477Y-91727857D01*
X145711429Y-91668333D01*
X146247143Y-90954048D02*
X146128096Y-90894524D01*
X145830477Y-90894524D01*
X145711429Y-90954048D01*
X145651905Y-91073095D01*
X145651905Y-91192143D01*
X145711429Y-91311190D01*
X145830477Y-91370714D01*
X146128096Y-91370714D01*
X146247143Y-91430238D01*
X147378095Y-90954048D02*
X147259048Y-90894524D01*
X147020952Y-90894524D01*
X146901905Y-90954048D01*
X146842381Y-91013571D01*
X146782857Y-91132619D01*
X146782857Y-91489762D01*
X146842381Y-91608810D01*
X146901905Y-91668333D01*
X147020952Y-91727857D01*
X147259048Y-91727857D01*
X147378095Y-91668333D01*
X147913810Y-90894524D02*
X147913810Y-91727857D01*
X147913810Y-91489762D02*
X147973334Y-91608810D01*
X148032858Y-91668333D01*
X148151905Y-91727857D01*
X148270953Y-91727857D01*
X148866191Y-90894524D02*
X148747144Y-90954048D01*
X148687620Y-91013571D01*
X148628096Y-91132619D01*
X148628096Y-91489762D01*
X148687620Y-91608810D01*
X148747144Y-91668333D01*
X148866191Y-91727857D01*
X149044763Y-91727857D01*
X149163811Y-91668333D01*
X149223334Y-91608810D01*
X149282858Y-91489762D01*
X149282858Y-91132619D01*
X149223334Y-91013571D01*
X149163811Y-90954048D01*
X149044763Y-90894524D01*
X148866191Y-90894524D01*
X150711429Y-92204048D02*
X149640001Y-90596905D01*
X151009048Y-91727857D02*
X151306667Y-90894524D01*
X151604287Y-91727857D01*
X152735239Y-90894524D02*
X152020953Y-90894524D01*
X152378096Y-90894524D02*
X152378096Y-92144524D01*
X152259048Y-91965952D01*
X152140001Y-91846905D01*
X152020953Y-91787381D01*
D13*
X136742857Y-105370000D02*
X136885714Y-105298571D01*
X137100000Y-105298571D01*
X137314285Y-105370000D01*
X137457143Y-105512857D01*
X137528571Y-105655714D01*
X137600000Y-105941429D01*
X137600000Y-106155714D01*
X137528571Y-106441429D01*
X137457143Y-106584286D01*
X137314285Y-106727143D01*
X137100000Y-106798571D01*
X136957143Y-106798571D01*
X136742857Y-106727143D01*
X136671428Y-106655714D01*
X136671428Y-106155714D01*
X136957143Y-106155714D01*
X136028571Y-106798571D02*
X136028571Y-105298571D01*
X135171428Y-106798571D01*
X135171428Y-105298571D01*
X134457142Y-106798571D02*
X134457142Y-105298571D01*
X134099999Y-105298571D01*
X133885714Y-105370000D01*
X133742856Y-105512857D01*
X133671428Y-105655714D01*
X133599999Y-105941429D01*
X133599999Y-106155714D01*
X133671428Y-106441429D01*
X133742856Y-106584286D01*
X133885714Y-106727143D01*
X134099999Y-106798571D01*
X134457142Y-106798571D01*
X137398571Y-103397143D02*
X136255714Y-103397143D01*
X136827143Y-103968571D02*
X136827143Y-102825714D01*
X134827142Y-102468571D02*
X135541428Y-102468571D01*
X135612857Y-103182857D01*
X135541428Y-103111429D01*
X135398571Y-103040000D01*
X135041428Y-103040000D01*
X134898571Y-103111429D01*
X134827142Y-103182857D01*
X134755714Y-103325714D01*
X134755714Y-103682857D01*
X134827142Y-103825714D01*
X134898571Y-103897143D01*
X135041428Y-103968571D01*
X135398571Y-103968571D01*
X135541428Y-103897143D01*
X135612857Y-103825714D01*
X134327143Y-102468571D02*
X133827143Y-103968571D01*
X133327143Y-102468571D01*
X137062857Y-100432857D02*
X136848571Y-100504286D01*
X136777143Y-100575714D01*
X136705714Y-100718571D01*
X136705714Y-100932857D01*
X136777143Y-101075714D01*
X136848571Y-101147143D01*
X136991429Y-101218571D01*
X137562857Y-101218571D01*
X137562857Y-99718571D01*
X137062857Y-99718571D01*
X136920000Y-99790000D01*
X136848571Y-99861429D01*
X136777143Y-100004286D01*
X136777143Y-100147143D01*
X136848571Y-100290000D01*
X136920000Y-100361429D01*
X137062857Y-100432857D01*
X137562857Y-100432857D01*
X135420000Y-100218571D02*
X135420000Y-101218571D01*
X136062857Y-100218571D02*
X136062857Y-101004286D01*
X135991429Y-101147143D01*
X135848571Y-101218571D01*
X135634286Y-101218571D01*
X135491429Y-101147143D01*
X135420000Y-101075714D01*
X134848571Y-100218571D02*
X134062857Y-100218571D01*
X134848571Y-101218571D01*
X134062857Y-101218571D01*
X133634285Y-100218571D02*
X132848571Y-100218571D01*
X133634285Y-101218571D01*
X132848571Y-101218571D01*
X131705714Y-101147143D02*
X131848571Y-101218571D01*
X132134285Y-101218571D01*
X132277142Y-101147143D01*
X132348571Y-101004286D01*
X132348571Y-100432857D01*
X132277142Y-100290000D01*
X132134285Y-100218571D01*
X131848571Y-100218571D01*
X131705714Y-100290000D01*
X131634285Y-100432857D01*
X131634285Y-100575714D01*
X132348571Y-100718571D01*
X130991428Y-101218571D02*
X130991428Y-100218571D01*
X130991428Y-100504286D02*
X130920000Y-100361429D01*
X130848571Y-100290000D01*
X130705714Y-100218571D01*
X130562857Y-100218571D01*
D14*
X158725000Y-99240000D02*
X160575000Y-99240000D01*
X158725000Y-116760000D02*
X160575000Y-116760000D01*
X159650000Y-115800000D02*
X159650000Y-100200000D01*
X156850000Y-96500000D02*
X157550000Y-96500000D01*
X157550000Y-95300000D02*
X156850000Y-95300000D01*
X158337500Y-94737500D02*
X156187500Y-94737500D01*
X159162500Y-92487500D02*
X156187500Y-92487500D01*
X154950000Y-91875000D02*
X155950000Y-91875000D01*
X155950000Y-90525000D02*
X154950000Y-90525000D01*
X147460000Y-118310000D02*
X147460000Y-117610000D01*
X146260000Y-117610000D02*
X146260000Y-118310000D01*
X153170000Y-118350000D02*
X153170000Y-117650000D01*
X151970000Y-117650000D02*
X151970000Y-118350000D01*
X149520000Y-119680000D02*
G75*
G03X149520000Y-119680000I-100000J0D01*
G01*
X149970000Y-119430000D02*
X149470000Y-119430000D01*
X149970000Y-116530000D02*
X149970000Y-119430000D01*
X149470000Y-116530000D02*
X149970000Y-116530000D01*
X149470000Y-119430000D02*
X149470000Y-116530000D01*
X145797143Y-117493334D02*
X145844762Y-117445715D01*
X145892381Y-117302858D01*
X145892381Y-117207620D01*
X145844762Y-117064762D01*
X145749524Y-116969524D01*
X145654286Y-116921905D01*
X145463810Y-116874286D01*
X145320952Y-116874286D01*
X145130476Y-116921905D01*
X145035238Y-116969524D01*
X144940000Y-117064762D01*
X144892381Y-117207620D01*
X144892381Y-117302858D01*
X144940000Y-117445715D01*
X144987619Y-117493334D01*
X145225714Y-118350477D02*
X145892381Y-118350477D01*
X144844762Y-118112381D02*
X145559048Y-117874286D01*
X145559048Y-118493334D01*
X154447143Y-117383334D02*
X154494762Y-117335715D01*
X154542381Y-117192858D01*
X154542381Y-117097620D01*
X154494762Y-116954762D01*
X154399524Y-116859524D01*
X154304286Y-116811905D01*
X154113810Y-116764286D01*
X153970952Y-116764286D01*
X153780476Y-116811905D01*
X153685238Y-116859524D01*
X153590000Y-116954762D01*
X153542381Y-117097620D01*
X153542381Y-117192858D01*
X153590000Y-117335715D01*
X153637619Y-117383334D01*
X153542381Y-118288096D02*
X153542381Y-117811905D01*
X154018571Y-117764286D01*
X153970952Y-117811905D01*
X153923333Y-117907143D01*
X153923333Y-118145239D01*
X153970952Y-118240477D01*
X154018571Y-118288096D01*
X154113810Y-118335715D01*
X154351905Y-118335715D01*
X154447143Y-118288096D01*
X154494762Y-118240477D01*
X154542381Y-118145239D01*
X154542381Y-117907143D01*
X154494762Y-117811905D01*
X154447143Y-117764286D01*
X150431905Y-119982381D02*
X150431905Y-120791905D01*
X150384286Y-120887143D01*
X150336667Y-120934762D01*
X150241429Y-120982381D01*
X150050952Y-120982381D01*
X149955714Y-120934762D01*
X149908095Y-120887143D01*
X149860476Y-120791905D01*
X149860476Y-119982381D01*
X149431905Y-120077619D02*
X149384286Y-120030000D01*
X149289048Y-119982381D01*
X149050952Y-119982381D01*
X148955714Y-120030000D01*
X148908095Y-120077619D01*
X148860476Y-120172857D01*
X148860476Y-120268095D01*
X148908095Y-120410952D01*
X149479524Y-120982381D01*
X148860476Y-120982381D01*
M02*
