G04 #@! TF.FileFunction,Soldermask,Top*
%FSLAX46Y46*%
G04 Gerber Fmt 4.6, Leading zero omitted, Abs format (unit mm)*
G04 Created by KiCad (PCBNEW (2015-11-03 BZR 6296)-product) date Monday, December 21, 2015 'AMt' 10:05:28 AM*
%MOMM*%
G01*
G04 APERTURE LIST*
%ADD10C,0.100000*%
%ADD11C,0.010000*%
%ADD12R,1.100000X0.600000*%
%ADD13R,1.901140X0.798780*%
%ADD14R,1.600000X1.150000*%
%ADD15R,1.150000X1.600000*%
%ADD16R,1.197560X1.197560*%
%ADD17R,2.432000X2.432000*%
%ADD18O,2.432000X2.432000*%
%ADD19R,1.200100X2.200860*%
%ADD20R,1.600000X1.300000*%
%ADD21R,1.300000X1.600000*%
%ADD22R,0.750000X0.400000*%
%ADD23R,0.950000X0.600000*%
%ADD24R,0.400000X0.750000*%
%ADD25R,0.600000X0.950000*%
%ADD26R,1.900000X1.740000*%
G04 APERTURE END LIST*
D10*
D11*
G36*
X138551031Y-122383103D02*
X138588866Y-122384878D01*
X138624763Y-122387950D01*
X138660412Y-122392451D01*
X138697499Y-122398512D01*
X138722537Y-122403226D01*
X138759505Y-122410873D01*
X138794770Y-122419056D01*
X138829378Y-122428108D01*
X138864376Y-122438364D01*
X138900809Y-122450156D01*
X138939722Y-122463818D01*
X138982161Y-122479684D01*
X139029173Y-122498088D01*
X139064737Y-122512406D01*
X139111958Y-122531805D01*
X139159898Y-122551943D01*
X139208959Y-122573011D01*
X139259547Y-122595199D01*
X139312066Y-122618695D01*
X139366921Y-122643689D01*
X139424514Y-122670372D01*
X139485251Y-122698932D01*
X139549536Y-122729559D01*
X139617773Y-122762442D01*
X139690365Y-122797772D01*
X139767719Y-122835737D01*
X139850236Y-122876528D01*
X139938323Y-122920333D01*
X139996085Y-122949177D01*
X140077799Y-122989964D01*
X140153732Y-123027698D01*
X140224358Y-123062596D01*
X140290149Y-123094875D01*
X140351577Y-123124752D01*
X140409115Y-123152444D01*
X140463235Y-123178167D01*
X140514409Y-123202138D01*
X140563111Y-123224575D01*
X140609811Y-123245695D01*
X140654982Y-123265714D01*
X140699097Y-123284848D01*
X140742629Y-123303316D01*
X140786049Y-123321334D01*
X140829829Y-123339119D01*
X140874443Y-123356888D01*
X140920363Y-123374857D01*
X140937542Y-123381509D01*
X140961524Y-123390793D01*
X140983788Y-123399455D01*
X141003348Y-123407109D01*
X141019219Y-123413366D01*
X141030414Y-123417840D01*
X141035784Y-123420070D01*
X141045832Y-123424573D01*
X141030698Y-123443849D01*
X141018889Y-123457902D01*
X141002920Y-123475482D01*
X140983921Y-123495449D01*
X140963023Y-123516663D01*
X140941357Y-123537986D01*
X140920055Y-123558277D01*
X140900246Y-123576397D01*
X140891681Y-123583920D01*
X140816102Y-123645039D01*
X140734352Y-123703238D01*
X140646747Y-123758375D01*
X140553601Y-123810306D01*
X140455231Y-123858886D01*
X140351952Y-123903973D01*
X140244079Y-123945422D01*
X140131928Y-123983091D01*
X140015814Y-124016835D01*
X139896054Y-124046510D01*
X139856278Y-124055281D01*
X139797253Y-124067567D01*
X139743414Y-124078013D01*
X139693205Y-124086877D01*
X139645074Y-124094413D01*
X139597469Y-124100877D01*
X139548835Y-124106526D01*
X139538778Y-124107588D01*
X139518732Y-124109185D01*
X139493512Y-124110438D01*
X139464439Y-124111348D01*
X139432833Y-124111913D01*
X139400014Y-124112134D01*
X139367303Y-124112011D01*
X139336020Y-124111543D01*
X139307485Y-124110730D01*
X139283019Y-124109572D01*
X139263941Y-124108069D01*
X139260083Y-124107629D01*
X139189587Y-124096359D01*
X139124668Y-124080777D01*
X139065314Y-124060875D01*
X139011511Y-124036642D01*
X138963246Y-124008071D01*
X138920506Y-123975152D01*
X138883275Y-123937875D01*
X138851542Y-123896233D01*
X138825292Y-123850216D01*
X138805814Y-123803556D01*
X138796564Y-123775336D01*
X138789950Y-123749790D01*
X138785611Y-123724670D01*
X138783189Y-123697726D01*
X138782323Y-123666710D01*
X138782311Y-123656690D01*
X138782506Y-123599783D01*
X138759541Y-123597430D01*
X138736577Y-123595078D01*
X138686819Y-123629010D01*
X138687261Y-123678359D01*
X138691246Y-123736590D01*
X138702027Y-123793341D01*
X138719427Y-123848195D01*
X138743267Y-123900732D01*
X138773369Y-123950536D01*
X138809554Y-123997188D01*
X138834774Y-124024155D01*
X138875410Y-124061000D01*
X138919140Y-124093371D01*
X138966472Y-124121491D01*
X139017911Y-124145584D01*
X139073966Y-124165873D01*
X139135143Y-124182584D01*
X139201948Y-124195938D01*
X139235389Y-124201113D01*
X139256455Y-124203389D01*
X139283303Y-124205185D01*
X139314675Y-124206500D01*
X139349315Y-124207334D01*
X139385966Y-124207688D01*
X139423369Y-124207562D01*
X139460269Y-124206956D01*
X139495407Y-124205870D01*
X139527526Y-124204303D01*
X139555370Y-124202257D01*
X139567000Y-124201088D01*
X139681247Y-124185915D01*
X139796379Y-124166055D01*
X139911524Y-124141770D01*
X140025809Y-124113321D01*
X140138359Y-124080969D01*
X140248303Y-124044975D01*
X140354766Y-124005600D01*
X140456876Y-123963106D01*
X140553760Y-123917754D01*
X140608608Y-123889498D01*
X140691718Y-123842751D01*
X140770658Y-123793631D01*
X140844981Y-123742487D01*
X140914241Y-123689668D01*
X140977993Y-123635522D01*
X141035791Y-123580397D01*
X141087188Y-123524643D01*
X141108880Y-123498480D01*
X141123589Y-123480572D01*
X141134647Y-123468259D01*
X141142321Y-123461267D01*
X141146878Y-123459322D01*
X141147106Y-123459373D01*
X141161682Y-123463012D01*
X141182129Y-123467139D01*
X141207296Y-123471588D01*
X141236029Y-123476193D01*
X141267174Y-123480787D01*
X141299579Y-123485204D01*
X141332091Y-123489276D01*
X141363556Y-123492837D01*
X141392821Y-123495720D01*
X141406736Y-123496893D01*
X141436996Y-123498630D01*
X141470509Y-123499311D01*
X141507721Y-123498909D01*
X141549075Y-123497398D01*
X141595017Y-123494750D01*
X141645991Y-123490938D01*
X141702441Y-123485937D01*
X141764812Y-123479719D01*
X141833548Y-123472256D01*
X141854764Y-123469853D01*
X141952696Y-123458039D01*
X142057110Y-123444253D01*
X142167726Y-123428544D01*
X142284267Y-123410962D01*
X142406454Y-123391559D01*
X142534011Y-123370386D01*
X142666657Y-123347492D01*
X142804117Y-123322928D01*
X142946110Y-123296746D01*
X143092360Y-123268995D01*
X143242588Y-123239727D01*
X143396517Y-123208991D01*
X143553867Y-123176840D01*
X143714361Y-123143322D01*
X143877721Y-123108489D01*
X144043669Y-123072392D01*
X144071972Y-123066166D01*
X144103505Y-123059268D01*
X144133573Y-123052787D01*
X144161326Y-123046899D01*
X144185913Y-123041780D01*
X144206484Y-123037607D01*
X144222186Y-123034556D01*
X144232170Y-123032804D01*
X144234250Y-123032520D01*
X144261629Y-123032603D01*
X144290597Y-123038198D01*
X144319337Y-123048640D01*
X144346032Y-123063263D01*
X144368863Y-123081400D01*
X144369577Y-123082097D01*
X144380334Y-123094458D01*
X144393559Y-123112584D01*
X144408873Y-123135782D01*
X144425898Y-123163362D01*
X144444253Y-123194633D01*
X144463562Y-123228902D01*
X144483444Y-123265479D01*
X144503521Y-123303671D01*
X144523415Y-123342789D01*
X144542747Y-123382139D01*
X144561137Y-123421031D01*
X144578208Y-123458774D01*
X144586938Y-123478888D01*
X144614418Y-123547828D01*
X144636295Y-123612753D01*
X144652564Y-123673631D01*
X144663220Y-123730428D01*
X144668258Y-123783112D01*
X144667674Y-123831650D01*
X144661462Y-123876008D01*
X144650303Y-123914355D01*
X144640721Y-123934617D01*
X144627158Y-123956530D01*
X144611359Y-123977628D01*
X144595072Y-123995441D01*
X144589089Y-124000860D01*
X144573700Y-124012771D01*
X144557081Y-124023287D01*
X144538689Y-124032518D01*
X144517978Y-124040574D01*
X144494406Y-124047565D01*
X144467427Y-124053602D01*
X144436498Y-124058794D01*
X144401074Y-124063252D01*
X144360612Y-124067086D01*
X144314567Y-124070405D01*
X144262396Y-124073321D01*
X144221903Y-124075182D01*
X144202132Y-124075961D01*
X144176304Y-124076876D01*
X144145416Y-124077897D01*
X144110464Y-124078994D01*
X144072446Y-124080137D01*
X144032357Y-124081294D01*
X143991195Y-124082437D01*
X143949956Y-124083534D01*
X143929097Y-124084070D01*
X143823132Y-124086865D01*
X143723623Y-124089728D01*
X143629971Y-124092688D01*
X143541576Y-124095774D01*
X143457840Y-124099016D01*
X143378162Y-124102444D01*
X143301944Y-124106086D01*
X143228587Y-124109972D01*
X143157491Y-124114132D01*
X143088056Y-124118595D01*
X143019683Y-124123390D01*
X142951774Y-124128548D01*
X142883729Y-124134096D01*
X142847833Y-124137168D01*
X142695425Y-124151484D01*
X142548916Y-124167501D01*
X142407314Y-124185426D01*
X142269629Y-124205462D01*
X142134869Y-124227813D01*
X142002042Y-124252686D01*
X141870156Y-124280283D01*
X141738221Y-124310811D01*
X141605244Y-124344473D01*
X141470234Y-124381474D01*
X141332199Y-124422018D01*
X141190149Y-124466311D01*
X141082181Y-124501516D01*
X141025529Y-124520415D01*
X140973101Y-124538181D01*
X140924324Y-124555079D01*
X140878627Y-124571377D01*
X140835437Y-124587340D01*
X140794184Y-124603235D01*
X140754295Y-124619327D01*
X140715199Y-124635884D01*
X140676325Y-124653170D01*
X140637099Y-124671452D01*
X140596952Y-124690997D01*
X140555310Y-124712071D01*
X140511602Y-124734939D01*
X140465257Y-124759869D01*
X140415703Y-124787125D01*
X140362368Y-124816975D01*
X140304680Y-124849684D01*
X140242068Y-124885519D01*
X140177306Y-124922815D01*
X140127113Y-124951743D01*
X140082343Y-124977450D01*
X140042339Y-125000298D01*
X140006445Y-125020648D01*
X139974006Y-125038863D01*
X139944365Y-125055303D01*
X139916866Y-125070330D01*
X139890853Y-125084307D01*
X139865670Y-125097594D01*
X139840662Y-125110554D01*
X139815172Y-125123549D01*
X139792778Y-125134820D01*
X139727461Y-125166741D01*
X139666674Y-125194702D01*
X139609369Y-125219064D01*
X139554501Y-125240188D01*
X139501022Y-125258436D01*
X139447885Y-125274169D01*
X139394043Y-125287748D01*
X139338449Y-125299537D01*
X139290975Y-125308094D01*
X139231699Y-125317475D01*
X139177114Y-125324849D01*
X139125196Y-125330377D01*
X139073926Y-125334223D01*
X139021279Y-125336550D01*
X138965234Y-125337522D01*
X138926708Y-125337509D01*
X138900120Y-125337309D01*
X138875076Y-125337051D01*
X138852670Y-125336751D01*
X138833997Y-125336426D01*
X138820149Y-125336092D01*
X138812223Y-125335767D01*
X138812056Y-125335755D01*
X138721009Y-125326740D01*
X138631200Y-125313096D01*
X138543485Y-125295042D01*
X138458718Y-125272798D01*
X138377756Y-125246583D01*
X138301455Y-125216619D01*
X138243791Y-125189817D01*
X138157957Y-125142919D01*
X138074330Y-125089377D01*
X137992988Y-125029273D01*
X137914006Y-124962690D01*
X137837461Y-124889708D01*
X137763429Y-124810411D01*
X137691985Y-124724879D01*
X137623207Y-124633196D01*
X137557171Y-124535442D01*
X137493952Y-124431701D01*
X137433627Y-124322053D01*
X137429300Y-124313746D01*
X137392293Y-124238734D01*
X137357779Y-124160989D01*
X137325400Y-124079580D01*
X137294798Y-123993574D01*
X137265612Y-123902039D01*
X137249110Y-123845758D01*
X137241543Y-123819169D01*
X136995806Y-123720044D01*
X136956329Y-123704069D01*
X136918813Y-123688791D01*
X136883766Y-123674422D01*
X136851694Y-123661173D01*
X136823102Y-123649257D01*
X136798498Y-123638887D01*
X136778388Y-123630274D01*
X136763278Y-123623630D01*
X136753674Y-123619168D01*
X136750083Y-123617101D01*
X136750069Y-123617055D01*
X136752644Y-123614178D01*
X136760115Y-123606965D01*
X136772098Y-123595762D01*
X136788213Y-123580917D01*
X136808078Y-123562776D01*
X136831310Y-123541686D01*
X136857529Y-123517994D01*
X136886351Y-123492048D01*
X136917395Y-123464193D01*
X136950280Y-123434778D01*
X136975847Y-123411966D01*
X137201625Y-123210741D01*
X137216003Y-123171022D01*
X137244338Y-123100948D01*
X137277586Y-123034045D01*
X137316152Y-122969707D01*
X137360445Y-122907324D01*
X137410870Y-122846287D01*
X137467835Y-122785990D01*
X137484224Y-122769917D01*
X137551538Y-122709739D01*
X137624130Y-122654059D01*
X137701734Y-122603010D01*
X137784086Y-122556722D01*
X137870921Y-122515330D01*
X137961974Y-122478964D01*
X138056979Y-122447758D01*
X138155671Y-122421842D01*
X138201750Y-122411834D01*
X138246147Y-122403197D01*
X138285869Y-122396427D01*
X138322979Y-122391295D01*
X138359540Y-122387572D01*
X138397614Y-122385029D01*
X138439265Y-122383439D01*
X138462806Y-122382916D01*
X138509574Y-122382493D01*
X138551031Y-122383103D01*
X138551031Y-122383103D01*
G37*
X138551031Y-122383103D02*
X138588866Y-122384878D01*
X138624763Y-122387950D01*
X138660412Y-122392451D01*
X138697499Y-122398512D01*
X138722537Y-122403226D01*
X138759505Y-122410873D01*
X138794770Y-122419056D01*
X138829378Y-122428108D01*
X138864376Y-122438364D01*
X138900809Y-122450156D01*
X138939722Y-122463818D01*
X138982161Y-122479684D01*
X139029173Y-122498088D01*
X139064737Y-122512406D01*
X139111958Y-122531805D01*
X139159898Y-122551943D01*
X139208959Y-122573011D01*
X139259547Y-122595199D01*
X139312066Y-122618695D01*
X139366921Y-122643689D01*
X139424514Y-122670372D01*
X139485251Y-122698932D01*
X139549536Y-122729559D01*
X139617773Y-122762442D01*
X139690365Y-122797772D01*
X139767719Y-122835737D01*
X139850236Y-122876528D01*
X139938323Y-122920333D01*
X139996085Y-122949177D01*
X140077799Y-122989964D01*
X140153732Y-123027698D01*
X140224358Y-123062596D01*
X140290149Y-123094875D01*
X140351577Y-123124752D01*
X140409115Y-123152444D01*
X140463235Y-123178167D01*
X140514409Y-123202138D01*
X140563111Y-123224575D01*
X140609811Y-123245695D01*
X140654982Y-123265714D01*
X140699097Y-123284848D01*
X140742629Y-123303316D01*
X140786049Y-123321334D01*
X140829829Y-123339119D01*
X140874443Y-123356888D01*
X140920363Y-123374857D01*
X140937542Y-123381509D01*
X140961524Y-123390793D01*
X140983788Y-123399455D01*
X141003348Y-123407109D01*
X141019219Y-123413366D01*
X141030414Y-123417840D01*
X141035784Y-123420070D01*
X141045832Y-123424573D01*
X141030698Y-123443849D01*
X141018889Y-123457902D01*
X141002920Y-123475482D01*
X140983921Y-123495449D01*
X140963023Y-123516663D01*
X140941357Y-123537986D01*
X140920055Y-123558277D01*
X140900246Y-123576397D01*
X140891681Y-123583920D01*
X140816102Y-123645039D01*
X140734352Y-123703238D01*
X140646747Y-123758375D01*
X140553601Y-123810306D01*
X140455231Y-123858886D01*
X140351952Y-123903973D01*
X140244079Y-123945422D01*
X140131928Y-123983091D01*
X140015814Y-124016835D01*
X139896054Y-124046510D01*
X139856278Y-124055281D01*
X139797253Y-124067567D01*
X139743414Y-124078013D01*
X139693205Y-124086877D01*
X139645074Y-124094413D01*
X139597469Y-124100877D01*
X139548835Y-124106526D01*
X139538778Y-124107588D01*
X139518732Y-124109185D01*
X139493512Y-124110438D01*
X139464439Y-124111348D01*
X139432833Y-124111913D01*
X139400014Y-124112134D01*
X139367303Y-124112011D01*
X139336020Y-124111543D01*
X139307485Y-124110730D01*
X139283019Y-124109572D01*
X139263941Y-124108069D01*
X139260083Y-124107629D01*
X139189587Y-124096359D01*
X139124668Y-124080777D01*
X139065314Y-124060875D01*
X139011511Y-124036642D01*
X138963246Y-124008071D01*
X138920506Y-123975152D01*
X138883275Y-123937875D01*
X138851542Y-123896233D01*
X138825292Y-123850216D01*
X138805814Y-123803556D01*
X138796564Y-123775336D01*
X138789950Y-123749790D01*
X138785611Y-123724670D01*
X138783189Y-123697726D01*
X138782323Y-123666710D01*
X138782311Y-123656690D01*
X138782506Y-123599783D01*
X138759541Y-123597430D01*
X138736577Y-123595078D01*
X138686819Y-123629010D01*
X138687261Y-123678359D01*
X138691246Y-123736590D01*
X138702027Y-123793341D01*
X138719427Y-123848195D01*
X138743267Y-123900732D01*
X138773369Y-123950536D01*
X138809554Y-123997188D01*
X138834774Y-124024155D01*
X138875410Y-124061000D01*
X138919140Y-124093371D01*
X138966472Y-124121491D01*
X139017911Y-124145584D01*
X139073966Y-124165873D01*
X139135143Y-124182584D01*
X139201948Y-124195938D01*
X139235389Y-124201113D01*
X139256455Y-124203389D01*
X139283303Y-124205185D01*
X139314675Y-124206500D01*
X139349315Y-124207334D01*
X139385966Y-124207688D01*
X139423369Y-124207562D01*
X139460269Y-124206956D01*
X139495407Y-124205870D01*
X139527526Y-124204303D01*
X139555370Y-124202257D01*
X139567000Y-124201088D01*
X139681247Y-124185915D01*
X139796379Y-124166055D01*
X139911524Y-124141770D01*
X140025809Y-124113321D01*
X140138359Y-124080969D01*
X140248303Y-124044975D01*
X140354766Y-124005600D01*
X140456876Y-123963106D01*
X140553760Y-123917754D01*
X140608608Y-123889498D01*
X140691718Y-123842751D01*
X140770658Y-123793631D01*
X140844981Y-123742487D01*
X140914241Y-123689668D01*
X140977993Y-123635522D01*
X141035791Y-123580397D01*
X141087188Y-123524643D01*
X141108880Y-123498480D01*
X141123589Y-123480572D01*
X141134647Y-123468259D01*
X141142321Y-123461267D01*
X141146878Y-123459322D01*
X141147106Y-123459373D01*
X141161682Y-123463012D01*
X141182129Y-123467139D01*
X141207296Y-123471588D01*
X141236029Y-123476193D01*
X141267174Y-123480787D01*
X141299579Y-123485204D01*
X141332091Y-123489276D01*
X141363556Y-123492837D01*
X141392821Y-123495720D01*
X141406736Y-123496893D01*
X141436996Y-123498630D01*
X141470509Y-123499311D01*
X141507721Y-123498909D01*
X141549075Y-123497398D01*
X141595017Y-123494750D01*
X141645991Y-123490938D01*
X141702441Y-123485937D01*
X141764812Y-123479719D01*
X141833548Y-123472256D01*
X141854764Y-123469853D01*
X141952696Y-123458039D01*
X142057110Y-123444253D01*
X142167726Y-123428544D01*
X142284267Y-123410962D01*
X142406454Y-123391559D01*
X142534011Y-123370386D01*
X142666657Y-123347492D01*
X142804117Y-123322928D01*
X142946110Y-123296746D01*
X143092360Y-123268995D01*
X143242588Y-123239727D01*
X143396517Y-123208991D01*
X143553867Y-123176840D01*
X143714361Y-123143322D01*
X143877721Y-123108489D01*
X144043669Y-123072392D01*
X144071972Y-123066166D01*
X144103505Y-123059268D01*
X144133573Y-123052787D01*
X144161326Y-123046899D01*
X144185913Y-123041780D01*
X144206484Y-123037607D01*
X144222186Y-123034556D01*
X144232170Y-123032804D01*
X144234250Y-123032520D01*
X144261629Y-123032603D01*
X144290597Y-123038198D01*
X144319337Y-123048640D01*
X144346032Y-123063263D01*
X144368863Y-123081400D01*
X144369577Y-123082097D01*
X144380334Y-123094458D01*
X144393559Y-123112584D01*
X144408873Y-123135782D01*
X144425898Y-123163362D01*
X144444253Y-123194633D01*
X144463562Y-123228902D01*
X144483444Y-123265479D01*
X144503521Y-123303671D01*
X144523415Y-123342789D01*
X144542747Y-123382139D01*
X144561137Y-123421031D01*
X144578208Y-123458774D01*
X144586938Y-123478888D01*
X144614418Y-123547828D01*
X144636295Y-123612753D01*
X144652564Y-123673631D01*
X144663220Y-123730428D01*
X144668258Y-123783112D01*
X144667674Y-123831650D01*
X144661462Y-123876008D01*
X144650303Y-123914355D01*
X144640721Y-123934617D01*
X144627158Y-123956530D01*
X144611359Y-123977628D01*
X144595072Y-123995441D01*
X144589089Y-124000860D01*
X144573700Y-124012771D01*
X144557081Y-124023287D01*
X144538689Y-124032518D01*
X144517978Y-124040574D01*
X144494406Y-124047565D01*
X144467427Y-124053602D01*
X144436498Y-124058794D01*
X144401074Y-124063252D01*
X144360612Y-124067086D01*
X144314567Y-124070405D01*
X144262396Y-124073321D01*
X144221903Y-124075182D01*
X144202132Y-124075961D01*
X144176304Y-124076876D01*
X144145416Y-124077897D01*
X144110464Y-124078994D01*
X144072446Y-124080137D01*
X144032357Y-124081294D01*
X143991195Y-124082437D01*
X143949956Y-124083534D01*
X143929097Y-124084070D01*
X143823132Y-124086865D01*
X143723623Y-124089728D01*
X143629971Y-124092688D01*
X143541576Y-124095774D01*
X143457840Y-124099016D01*
X143378162Y-124102444D01*
X143301944Y-124106086D01*
X143228587Y-124109972D01*
X143157491Y-124114132D01*
X143088056Y-124118595D01*
X143019683Y-124123390D01*
X142951774Y-124128548D01*
X142883729Y-124134096D01*
X142847833Y-124137168D01*
X142695425Y-124151484D01*
X142548916Y-124167501D01*
X142407314Y-124185426D01*
X142269629Y-124205462D01*
X142134869Y-124227813D01*
X142002042Y-124252686D01*
X141870156Y-124280283D01*
X141738221Y-124310811D01*
X141605244Y-124344473D01*
X141470234Y-124381474D01*
X141332199Y-124422018D01*
X141190149Y-124466311D01*
X141082181Y-124501516D01*
X141025529Y-124520415D01*
X140973101Y-124538181D01*
X140924324Y-124555079D01*
X140878627Y-124571377D01*
X140835437Y-124587340D01*
X140794184Y-124603235D01*
X140754295Y-124619327D01*
X140715199Y-124635884D01*
X140676325Y-124653170D01*
X140637099Y-124671452D01*
X140596952Y-124690997D01*
X140555310Y-124712071D01*
X140511602Y-124734939D01*
X140465257Y-124759869D01*
X140415703Y-124787125D01*
X140362368Y-124816975D01*
X140304680Y-124849684D01*
X140242068Y-124885519D01*
X140177306Y-124922815D01*
X140127113Y-124951743D01*
X140082343Y-124977450D01*
X140042339Y-125000298D01*
X140006445Y-125020648D01*
X139974006Y-125038863D01*
X139944365Y-125055303D01*
X139916866Y-125070330D01*
X139890853Y-125084307D01*
X139865670Y-125097594D01*
X139840662Y-125110554D01*
X139815172Y-125123549D01*
X139792778Y-125134820D01*
X139727461Y-125166741D01*
X139666674Y-125194702D01*
X139609369Y-125219064D01*
X139554501Y-125240188D01*
X139501022Y-125258436D01*
X139447885Y-125274169D01*
X139394043Y-125287748D01*
X139338449Y-125299537D01*
X139290975Y-125308094D01*
X139231699Y-125317475D01*
X139177114Y-125324849D01*
X139125196Y-125330377D01*
X139073926Y-125334223D01*
X139021279Y-125336550D01*
X138965234Y-125337522D01*
X138926708Y-125337509D01*
X138900120Y-125337309D01*
X138875076Y-125337051D01*
X138852670Y-125336751D01*
X138833997Y-125336426D01*
X138820149Y-125336092D01*
X138812223Y-125335767D01*
X138812056Y-125335755D01*
X138721009Y-125326740D01*
X138631200Y-125313096D01*
X138543485Y-125295042D01*
X138458718Y-125272798D01*
X138377756Y-125246583D01*
X138301455Y-125216619D01*
X138243791Y-125189817D01*
X138157957Y-125142919D01*
X138074330Y-125089377D01*
X137992988Y-125029273D01*
X137914006Y-124962690D01*
X137837461Y-124889708D01*
X137763429Y-124810411D01*
X137691985Y-124724879D01*
X137623207Y-124633196D01*
X137557171Y-124535442D01*
X137493952Y-124431701D01*
X137433627Y-124322053D01*
X137429300Y-124313746D01*
X137392293Y-124238734D01*
X137357779Y-124160989D01*
X137325400Y-124079580D01*
X137294798Y-123993574D01*
X137265612Y-123902039D01*
X137249110Y-123845758D01*
X137241543Y-123819169D01*
X136995806Y-123720044D01*
X136956329Y-123704069D01*
X136918813Y-123688791D01*
X136883766Y-123674422D01*
X136851694Y-123661173D01*
X136823102Y-123649257D01*
X136798498Y-123638887D01*
X136778388Y-123630274D01*
X136763278Y-123623630D01*
X136753674Y-123619168D01*
X136750083Y-123617101D01*
X136750069Y-123617055D01*
X136752644Y-123614178D01*
X136760115Y-123606965D01*
X136772098Y-123595762D01*
X136788213Y-123580917D01*
X136808078Y-123562776D01*
X136831310Y-123541686D01*
X136857529Y-123517994D01*
X136886351Y-123492048D01*
X136917395Y-123464193D01*
X136950280Y-123434778D01*
X136975847Y-123411966D01*
X137201625Y-123210741D01*
X137216003Y-123171022D01*
X137244338Y-123100948D01*
X137277586Y-123034045D01*
X137316152Y-122969707D01*
X137360445Y-122907324D01*
X137410870Y-122846287D01*
X137467835Y-122785990D01*
X137484224Y-122769917D01*
X137551538Y-122709739D01*
X137624130Y-122654059D01*
X137701734Y-122603010D01*
X137784086Y-122556722D01*
X137870921Y-122515330D01*
X137961974Y-122478964D01*
X138056979Y-122447758D01*
X138155671Y-122421842D01*
X138201750Y-122411834D01*
X138246147Y-122403197D01*
X138285869Y-122396427D01*
X138322979Y-122391295D01*
X138359540Y-122387572D01*
X138397614Y-122385029D01*
X138439265Y-122383439D01*
X138462806Y-122382916D01*
X138509574Y-122382493D01*
X138551031Y-122383103D01*
D12*
X161190000Y-100200000D03*
X161190000Y-100600000D03*
X161190000Y-101000000D03*
X161190000Y-101400000D03*
X161190000Y-101800000D03*
X161190000Y-102200000D03*
X161190000Y-102600000D03*
X161190000Y-103000000D03*
X161190000Y-103400000D03*
X161190000Y-103800000D03*
X161190000Y-107800000D03*
X161190000Y-107400000D03*
X161190000Y-107000000D03*
X161190000Y-106600000D03*
X161190000Y-106200000D03*
X161190000Y-105800000D03*
X161190000Y-105400000D03*
X161190000Y-105000000D03*
X161190000Y-104600000D03*
X161190000Y-104200000D03*
X161190000Y-108200000D03*
X161190000Y-108600000D03*
X161190000Y-109000000D03*
X161190000Y-109400000D03*
X161190000Y-109800000D03*
X161190000Y-110200000D03*
X161190000Y-110600000D03*
X161190000Y-111000000D03*
X161190000Y-111400000D03*
X161190000Y-111800000D03*
X161190000Y-115800000D03*
X161190000Y-115400000D03*
X161190000Y-115000000D03*
X161190000Y-114600000D03*
X161190000Y-114200000D03*
X161190000Y-113800000D03*
X161190000Y-113400000D03*
X161190000Y-113000000D03*
X161190000Y-112600000D03*
X161190000Y-112200000D03*
X158110000Y-112200000D03*
X158110000Y-112600000D03*
X158110000Y-113000000D03*
X158110000Y-113400000D03*
X158110000Y-113800000D03*
X158110000Y-114200000D03*
X158110000Y-114600000D03*
X158110000Y-115000000D03*
X158110000Y-115400000D03*
X158110000Y-115800000D03*
X158110000Y-111800000D03*
X158110000Y-111400000D03*
X158110000Y-111000000D03*
X158110000Y-110600000D03*
X158110000Y-110200000D03*
X158110000Y-109800000D03*
X158110000Y-109400000D03*
X158110000Y-109000000D03*
X158110000Y-108600000D03*
X158110000Y-108200000D03*
X158110000Y-104200000D03*
X158110000Y-104600000D03*
X158110000Y-105000000D03*
X158110000Y-105400000D03*
X158110000Y-105800000D03*
X158110000Y-106200000D03*
X158110000Y-106600000D03*
X158110000Y-107000000D03*
X158110000Y-107400000D03*
X158110000Y-107800000D03*
X158110000Y-103800000D03*
X158110000Y-103400000D03*
X158110000Y-103000000D03*
X158110000Y-102600000D03*
X158110000Y-102200000D03*
X158110000Y-101800000D03*
X158110000Y-101400000D03*
X158110000Y-101000000D03*
X158110000Y-100600000D03*
X158110000Y-100200000D03*
D13*
X158461920Y-94250000D03*
X158461920Y-93599760D03*
X158461920Y-92949520D03*
X155800000Y-92949520D03*
X155800000Y-93599760D03*
X155800000Y-94250000D03*
X164300000Y-98250000D03*
X164300000Y-97599760D03*
X164300000Y-96949520D03*
X161638080Y-96949520D03*
X161638080Y-97599760D03*
X161638080Y-98250000D03*
X158611920Y-96700000D03*
X158611920Y-96049760D03*
X158611920Y-95399520D03*
X155950000Y-95399520D03*
X155950000Y-96049760D03*
X155950000Y-96700000D03*
D14*
X153850000Y-125050000D03*
X151950000Y-125050000D03*
X156460000Y-125050000D03*
X158360000Y-125050000D03*
D15*
X158300000Y-123180000D03*
X158300000Y-121280000D03*
D16*
X147070000Y-123300000D03*
X147070000Y-124798600D03*
D17*
X131860000Y-105960000D03*
D18*
X131860000Y-103420000D03*
D19*
X133980000Y-109737720D03*
X132080000Y-109737720D03*
X133030000Y-112740000D03*
D20*
X134250000Y-116280000D03*
X132050000Y-116280000D03*
D21*
X149660000Y-124880000D03*
X149660000Y-122680000D03*
D22*
X153830000Y-121090000D03*
D23*
X153830000Y-121490000D03*
X153830000Y-121890000D03*
X153830000Y-122290000D03*
X153830000Y-122690000D03*
D22*
X153830000Y-123090000D03*
D24*
X154330000Y-123590000D03*
D25*
X154730000Y-123590000D03*
X155130000Y-123590000D03*
X155530000Y-123590000D03*
X155930000Y-123590000D03*
D24*
X156330000Y-123590000D03*
D22*
X156830000Y-123090000D03*
D23*
X156830000Y-122690000D03*
X156830000Y-122290000D03*
X156830000Y-121890000D03*
X156830000Y-121490000D03*
D22*
X156830000Y-121090000D03*
D24*
X156330000Y-120590000D03*
D25*
X155930000Y-120590000D03*
X155530000Y-120590000D03*
X155130000Y-120590000D03*
X154730000Y-120590000D03*
D24*
X154330000Y-120590000D03*
D26*
X155330000Y-122090000D03*
M02*
