G04 #@! TF.FileFunction,Copper,L1,Top,Signal*
%FSLAX46Y46*%
G04 Gerber Fmt 4.6, Leading zero omitted, Abs format (unit mm)*
G04 Created by KiCad (PCBNEW (2015-11-03 BZR 6296)-product) date Monday, December 21, 2015 'AMt' 10:05:28 AM*
%MOMM*%
G01*
G04 APERTURE LIST*
%ADD10C,0.100000*%
%ADD11C,0.010000*%
%ADD12R,0.700000X0.200000*%
%ADD13R,1.501140X0.398780*%
%ADD14R,1.200000X0.750000*%
%ADD15R,0.750000X1.200000*%
%ADD16R,0.797560X0.797560*%
%ADD17R,2.032000X2.032000*%
%ADD18O,2.032000X2.032000*%
%ADD19R,0.800100X1.800860*%
%ADD20R,1.200000X0.900000*%
%ADD21R,0.900000X1.200000*%
%ADD22R,0.550000X0.200000*%
%ADD23R,0.200000X0.550000*%
%ADD24R,1.700000X1.540000*%
%ADD25C,0.685800*%
%ADD26C,0.685801*%
%ADD27C,0.152400*%
%ADD28C,0.203200*%
%ADD29C,0.254000*%
G04 APERTURE END LIST*
D10*
D11*
G36*
X138519423Y-122465069D02*
X138551094Y-122465572D01*
X138578725Y-122466621D01*
X138603824Y-122468340D01*
X138627893Y-122470851D01*
X138652439Y-122474276D01*
X138678967Y-122478740D01*
X138700931Y-122482815D01*
X138759786Y-122495578D01*
X138820883Y-122511645D01*
X138881336Y-122530182D01*
X138938260Y-122550354D01*
X138949639Y-122554777D01*
X138992817Y-122571970D01*
X139035192Y-122589108D01*
X139077150Y-122606370D01*
X139119080Y-122623937D01*
X139161369Y-122641989D01*
X139204404Y-122660707D01*
X139248573Y-122680271D01*
X139294265Y-122700862D01*
X139341866Y-122722659D01*
X139391764Y-122745844D01*
X139444347Y-122770597D01*
X139500003Y-122797099D01*
X139559118Y-122825528D01*
X139622082Y-122856067D01*
X139689280Y-122888896D01*
X139761102Y-122924194D01*
X139837935Y-122962143D01*
X139920166Y-123002923D01*
X140008183Y-123046714D01*
X140030903Y-123058037D01*
X140109183Y-123096981D01*
X140181702Y-123132880D01*
X140248949Y-123165961D01*
X140311415Y-123196448D01*
X140369589Y-123224567D01*
X140423962Y-123250545D01*
X140475024Y-123274606D01*
X140523265Y-123296978D01*
X140569175Y-123317885D01*
X140613244Y-123337553D01*
X140655962Y-123356208D01*
X140697819Y-123374076D01*
X140739306Y-123391382D01*
X140780912Y-123408353D01*
X140823128Y-123425213D01*
X140856403Y-123438281D01*
X140879926Y-123447518D01*
X140901319Y-123456037D01*
X140919688Y-123463473D01*
X140934143Y-123469460D01*
X140943791Y-123473635D01*
X140947732Y-123475624D01*
X140947199Y-123479719D01*
X140941987Y-123487737D01*
X140932739Y-123498968D01*
X140920100Y-123512704D01*
X140904712Y-123528236D01*
X140887219Y-123544855D01*
X140874178Y-123556657D01*
X140806199Y-123612758D01*
X140731764Y-123666253D01*
X140650994Y-123717086D01*
X140564011Y-123765200D01*
X140470938Y-123810538D01*
X140371897Y-123853043D01*
X140267009Y-123892658D01*
X140156398Y-123929327D01*
X140040185Y-123962992D01*
X139953292Y-123985296D01*
X139852697Y-124008538D01*
X139757709Y-124027867D01*
X139668081Y-124043303D01*
X139583561Y-124054868D01*
X139503901Y-124062580D01*
X139428851Y-124066462D01*
X139358163Y-124066535D01*
X139291587Y-124062818D01*
X139228874Y-124055332D01*
X139191082Y-124048660D01*
X139130450Y-124033748D01*
X139075094Y-124014367D01*
X139025086Y-123990590D01*
X138980499Y-123962491D01*
X138941404Y-123930142D01*
X138907873Y-123893617D01*
X138879979Y-123852988D01*
X138857795Y-123808329D01*
X138841392Y-123759713D01*
X138830842Y-123707214D01*
X138827903Y-123680940D01*
X138827085Y-123669833D01*
X138826149Y-123661698D01*
X138824111Y-123655994D01*
X138819991Y-123652178D01*
X138812806Y-123649710D01*
X138801575Y-123648046D01*
X138785315Y-123646646D01*
X138763045Y-123644967D01*
X138762667Y-123644937D01*
X138735115Y-123642710D01*
X138713944Y-123640816D01*
X138698491Y-123639166D01*
X138688094Y-123637673D01*
X138682090Y-123636249D01*
X138679817Y-123634807D01*
X138679918Y-123633974D01*
X138677973Y-123632665D01*
X138671139Y-123632440D01*
X138661468Y-123633114D01*
X138651010Y-123634497D01*
X138641817Y-123636403D01*
X138637431Y-123637859D01*
X138631923Y-123639376D01*
X138620616Y-123641836D01*
X138604669Y-123645008D01*
X138585241Y-123648665D01*
X138563489Y-123652578D01*
X138558056Y-123653529D01*
X138476570Y-123667036D01*
X138399154Y-123678409D01*
X138323266Y-123687987D01*
X138246367Y-123696109D01*
X138222917Y-123698294D01*
X138200487Y-123699888D01*
X138173281Y-123701121D01*
X138142652Y-123701993D01*
X138109951Y-123702504D01*
X138076529Y-123702652D01*
X138043738Y-123702438D01*
X138012930Y-123701861D01*
X137985455Y-123700920D01*
X137962666Y-123699615D01*
X137949514Y-123698402D01*
X137876686Y-123688747D01*
X137805829Y-123676860D01*
X137735068Y-123662349D01*
X137662527Y-123644822D01*
X137586331Y-123623890D01*
X137570857Y-123619368D01*
X137548243Y-123612575D01*
X137531577Y-123607222D01*
X137519982Y-123602959D01*
X137512578Y-123599438D01*
X137508490Y-123596309D01*
X137507057Y-123593968D01*
X137506091Y-123588855D01*
X137504509Y-123577561D01*
X137502410Y-123560925D01*
X137499895Y-123539783D01*
X137497063Y-123514975D01*
X137494013Y-123487338D01*
X137490918Y-123458392D01*
X137487321Y-123424399D01*
X137484435Y-123396757D01*
X137482312Y-123374791D01*
X137481001Y-123357830D01*
X137480553Y-123345198D01*
X137481018Y-123336223D01*
X137482447Y-123330230D01*
X137484890Y-123326547D01*
X137488397Y-123324499D01*
X137493018Y-123323413D01*
X137498805Y-123322615D01*
X137501091Y-123322283D01*
X137512337Y-123320254D01*
X137529389Y-123316797D01*
X137551193Y-123312151D01*
X137576700Y-123306555D01*
X137604858Y-123300249D01*
X137634615Y-123293471D01*
X137664921Y-123286461D01*
X137694725Y-123279457D01*
X137722975Y-123272700D01*
X137748620Y-123266427D01*
X137767833Y-123261593D01*
X137870462Y-123234234D01*
X137966453Y-123206397D01*
X138056213Y-123177945D01*
X138140153Y-123148742D01*
X138218680Y-123118650D01*
X138292203Y-123087534D01*
X138304056Y-123082213D01*
X138374730Y-123047760D01*
X138446700Y-123008022D01*
X138518246Y-122964092D01*
X138587648Y-122917066D01*
X138653190Y-122868037D01*
X138697403Y-122831786D01*
X138715065Y-122816423D01*
X138733398Y-122800012D01*
X138751684Y-122783244D01*
X138769206Y-122766810D01*
X138785249Y-122751401D01*
X138799095Y-122737709D01*
X138810027Y-122726424D01*
X138817329Y-122718238D01*
X138820283Y-122713841D01*
X138820219Y-122713368D01*
X138814114Y-122710119D01*
X138802137Y-122705797D01*
X138785347Y-122700663D01*
X138764801Y-122694980D01*
X138741556Y-122689011D01*
X138716670Y-122683019D01*
X138691199Y-122677265D01*
X138666201Y-122672013D01*
X138642732Y-122667526D01*
X138621852Y-122664065D01*
X138621556Y-122664021D01*
X138566513Y-122657477D01*
X138512179Y-122654423D01*
X138457039Y-122654893D01*
X138399581Y-122658923D01*
X138338289Y-122666548D01*
X138308461Y-122671261D01*
X138215204Y-122689850D01*
X138125771Y-122713707D01*
X138040377Y-122742725D01*
X137959234Y-122776797D01*
X137882557Y-122815818D01*
X137810558Y-122859681D01*
X137743451Y-122908280D01*
X137681449Y-122961509D01*
X137637949Y-123004915D01*
X137595574Y-123053556D01*
X137557536Y-123104333D01*
X137524493Y-123156230D01*
X137497105Y-123208230D01*
X137479656Y-123249355D01*
X137474680Y-123261769D01*
X137470056Y-123271937D01*
X137466789Y-123277652D01*
X137463532Y-123280958D01*
X137455631Y-123288670D01*
X137443561Y-123300334D01*
X137427793Y-123315496D01*
X137408801Y-123333704D01*
X137387057Y-123354504D01*
X137363034Y-123377442D01*
X137337205Y-123402065D01*
X137318042Y-123420309D01*
X137291341Y-123445737D01*
X137266208Y-123469712D01*
X137243104Y-123491794D01*
X137222486Y-123511540D01*
X137204813Y-123528513D01*
X137190545Y-123542270D01*
X137180139Y-123552371D01*
X137174055Y-123558376D01*
X137172607Y-123559922D01*
X137175572Y-123561699D01*
X137184384Y-123566052D01*
X137198436Y-123572701D01*
X137217123Y-123581368D01*
X137239836Y-123591773D01*
X137265972Y-123603637D01*
X137294923Y-123616683D01*
X137326083Y-123630630D01*
X137333468Y-123633923D01*
X137495126Y-123705942D01*
X137511981Y-123766214D01*
X137520094Y-123794199D01*
X137529941Y-123826534D01*
X137540916Y-123861347D01*
X137552411Y-123896762D01*
X137563817Y-123930907D01*
X137574527Y-123961907D01*
X137583511Y-123986757D01*
X137588959Y-124000443D01*
X137593479Y-124008917D01*
X137598136Y-124013733D01*
X137603830Y-124016392D01*
X137611132Y-124017558D01*
X137624453Y-124018496D01*
X137642760Y-124019209D01*
X137665020Y-124019697D01*
X137690201Y-124019965D01*
X137717269Y-124020013D01*
X137745192Y-124019845D01*
X137772937Y-124019461D01*
X137799472Y-124018866D01*
X137823763Y-124018060D01*
X137844777Y-124017046D01*
X137861319Y-124015841D01*
X138024261Y-123998212D01*
X138124139Y-123984838D01*
X138166859Y-123978400D01*
X138203678Y-123972100D01*
X138235734Y-123965624D01*
X138264167Y-123958661D01*
X138290116Y-123950899D01*
X138314721Y-123942025D01*
X138339122Y-123931727D01*
X138364457Y-123919694D01*
X138367556Y-123918147D01*
X138423115Y-123886813D01*
X138477664Y-123849211D01*
X138530233Y-123806128D01*
X138579852Y-123758353D01*
X138620314Y-123713042D01*
X138638347Y-123691319D01*
X138640748Y-123716569D01*
X138647775Y-123763991D01*
X138659681Y-123813168D01*
X138675802Y-123862224D01*
X138695477Y-123909282D01*
X138718042Y-123952463D01*
X138731719Y-123974289D01*
X138769340Y-124024006D01*
X138812141Y-124069003D01*
X138860037Y-124109251D01*
X138912937Y-124144723D01*
X138970757Y-124175389D01*
X139033406Y-124201223D01*
X139100799Y-124222197D01*
X139172848Y-124238282D01*
X139249465Y-124249451D01*
X139330562Y-124255676D01*
X139416053Y-124256929D01*
X139505848Y-124253182D01*
X139584639Y-124246139D01*
X139657782Y-124236822D01*
X139735875Y-124224509D01*
X139817621Y-124209481D01*
X139901724Y-124192024D01*
X139986887Y-124172418D01*
X140071813Y-124150949D01*
X140155205Y-124127899D01*
X140231986Y-124104745D01*
X140329460Y-124072112D01*
X140423786Y-124036670D01*
X140514613Y-123998629D01*
X140601592Y-123958203D01*
X140684372Y-123915600D01*
X140762604Y-123871034D01*
X140835937Y-123824714D01*
X140904021Y-123776853D01*
X140966506Y-123727661D01*
X141023041Y-123677350D01*
X141073278Y-123626131D01*
X141116865Y-123574215D01*
X141121516Y-123568103D01*
X141131132Y-123555676D01*
X141137892Y-123548104D01*
X141142929Y-123544422D01*
X141147377Y-123543664D01*
X141149726Y-123544079D01*
X141169163Y-123548388D01*
X141194240Y-123553070D01*
X141223568Y-123557922D01*
X141255757Y-123562737D01*
X141289415Y-123567313D01*
X141323152Y-123571443D01*
X141355578Y-123574923D01*
X141366167Y-123575932D01*
X141397905Y-123578462D01*
X141429888Y-123580184D01*
X141462791Y-123581067D01*
X141497290Y-123581080D01*
X141534060Y-123580194D01*
X141573775Y-123578377D01*
X141617113Y-123575599D01*
X141664746Y-123571829D01*
X141717352Y-123567037D01*
X141775605Y-123561192D01*
X141837125Y-123554600D01*
X141926165Y-123544237D01*
X142021639Y-123532018D01*
X142123193Y-123518007D01*
X142230469Y-123502269D01*
X142343115Y-123484868D01*
X142460774Y-123465867D01*
X142583091Y-123445332D01*
X142709712Y-123423326D01*
X142840280Y-123399914D01*
X142974441Y-123375160D01*
X143111840Y-123349128D01*
X143252121Y-123321882D01*
X143394930Y-123293486D01*
X143539911Y-123264006D01*
X143686709Y-123233505D01*
X143834969Y-123202046D01*
X143984335Y-123169696D01*
X144071972Y-123150408D01*
X144116466Y-123140554D01*
X144154684Y-123132267D01*
X144187258Y-123125680D01*
X144214823Y-123120928D01*
X144238011Y-123118146D01*
X144257455Y-123117468D01*
X144273788Y-123119028D01*
X144287642Y-123122962D01*
X144299652Y-123129404D01*
X144310449Y-123138488D01*
X144320667Y-123150348D01*
X144330938Y-123165120D01*
X144341896Y-123182938D01*
X144354174Y-123203936D01*
X144358453Y-123211295D01*
X144395722Y-123277072D01*
X144430654Y-123342322D01*
X144462855Y-123406214D01*
X144491929Y-123467915D01*
X144517481Y-123526594D01*
X144539117Y-123581419D01*
X144552982Y-123620859D01*
X144568442Y-123673272D01*
X144579158Y-123722184D01*
X144585158Y-123767367D01*
X144586469Y-123808594D01*
X144583119Y-123845635D01*
X144575134Y-123878262D01*
X144562543Y-123906247D01*
X144545372Y-123929362D01*
X144523649Y-123947378D01*
X144513124Y-123953395D01*
X144502991Y-123958154D01*
X144491941Y-123962524D01*
X144479615Y-123966533D01*
X144465657Y-123970209D01*
X144449709Y-123973581D01*
X144431413Y-123976677D01*
X144410414Y-123979524D01*
X144386352Y-123982152D01*
X144358872Y-123984587D01*
X144327615Y-123986859D01*
X144292225Y-123988995D01*
X144252343Y-123991023D01*
X144207613Y-123992973D01*
X144157677Y-123994871D01*
X144102178Y-123996746D01*
X144040759Y-123998626D01*
X143973062Y-124000540D01*
X143898731Y-124002515D01*
X143885000Y-124002869D01*
X143762923Y-124006207D01*
X143647344Y-124009786D01*
X143537707Y-124013639D01*
X143433456Y-124017794D01*
X143334037Y-124022284D01*
X143238895Y-124027138D01*
X143147474Y-124032388D01*
X143059219Y-124038064D01*
X142973574Y-124044196D01*
X142889985Y-124050816D01*
X142807897Y-124057954D01*
X142726754Y-124065640D01*
X142699667Y-124068345D01*
X142570967Y-124082177D01*
X142446502Y-124097273D01*
X142325523Y-124113805D01*
X142207281Y-124131941D01*
X142091028Y-124151851D01*
X141976016Y-124173705D01*
X141861496Y-124197671D01*
X141746721Y-124223920D01*
X141630941Y-124252620D01*
X141513408Y-124283942D01*
X141393373Y-124318054D01*
X141270090Y-124355127D01*
X141142808Y-124395329D01*
X141010780Y-124438830D01*
X140905792Y-124474551D01*
X140855932Y-124492059D01*
X140808400Y-124509485D01*
X140762527Y-124527150D01*
X140717643Y-124545374D01*
X140673080Y-124564476D01*
X140628167Y-124584779D01*
X140582235Y-124606601D01*
X140534615Y-124630263D01*
X140484637Y-124656085D01*
X140431633Y-124684388D01*
X140374932Y-124715492D01*
X140313865Y-124749717D01*
X140247763Y-124787384D01*
X140226694Y-124799493D01*
X140168073Y-124833223D01*
X140115102Y-124863651D01*
X140067334Y-124891025D01*
X140024321Y-124915591D01*
X139985616Y-124937596D01*
X139950771Y-124957287D01*
X139919338Y-124974910D01*
X139890870Y-124990714D01*
X139864919Y-125004944D01*
X139841037Y-125017848D01*
X139818777Y-125029672D01*
X139797692Y-125040664D01*
X139777332Y-125051070D01*
X139757252Y-125061138D01*
X139737003Y-125071113D01*
X139716138Y-125081244D01*
X139714306Y-125082128D01*
X139646867Y-125113565D01*
X139583250Y-125140819D01*
X139522082Y-125164282D01*
X139461992Y-125184345D01*
X139401609Y-125201402D01*
X139339560Y-125215844D01*
X139274474Y-125228064D01*
X139204978Y-125238454D01*
X139140139Y-125246279D01*
X139099152Y-125250039D01*
X139053206Y-125252999D01*
X139004358Y-125255105D01*
X138954663Y-125256301D01*
X138906179Y-125256532D01*
X138860962Y-125255744D01*
X138831458Y-125254508D01*
X138751912Y-125247865D01*
X138671456Y-125236743D01*
X138591278Y-125221443D01*
X138512567Y-125202263D01*
X138436511Y-125179501D01*
X138364298Y-125153456D01*
X138297116Y-125124427D01*
X138279008Y-125115625D01*
X138198028Y-125071372D01*
X138118806Y-125020408D01*
X138041482Y-124962893D01*
X137966195Y-124898983D01*
X137893086Y-124828836D01*
X137822295Y-124752610D01*
X137753960Y-124670463D01*
X137688223Y-124582552D01*
X137625222Y-124489036D01*
X137565097Y-124390070D01*
X137507989Y-124285814D01*
X137462897Y-124195201D01*
X137444559Y-124155287D01*
X137426937Y-124113922D01*
X137409526Y-124069814D01*
X137391819Y-124021672D01*
X137373310Y-123968204D01*
X137368965Y-123955250D01*
X137361296Y-123931804D01*
X137353193Y-123906214D01*
X137345008Y-123879673D01*
X137337093Y-123853373D01*
X137329801Y-123828508D01*
X137323485Y-123806269D01*
X137318496Y-123787848D01*
X137315187Y-123774440D01*
X137314378Y-123770558D01*
X137312209Y-123758996D01*
X137107595Y-123676428D01*
X137071615Y-123661883D01*
X137037607Y-123648085D01*
X137006132Y-123635266D01*
X136977748Y-123623654D01*
X136953014Y-123613480D01*
X136932490Y-123604974D01*
X136916734Y-123598367D01*
X136906307Y-123593889D01*
X136901768Y-123591769D01*
X136901619Y-123591656D01*
X136903960Y-123589006D01*
X136911162Y-123582050D01*
X136922812Y-123571163D01*
X136938495Y-123556724D01*
X136957797Y-123539108D01*
X136980304Y-123518694D01*
X137005601Y-123495859D01*
X137033274Y-123470979D01*
X137062909Y-123444432D01*
X137088286Y-123421769D01*
X137124302Y-123389640D01*
X137155416Y-123361846D01*
X137181998Y-123338033D01*
X137204415Y-123317848D01*
X137223038Y-123300935D01*
X137238235Y-123286942D01*
X137250376Y-123275513D01*
X137259830Y-123266294D01*
X137266965Y-123258931D01*
X137272152Y-123253071D01*
X137275759Y-123248358D01*
X137278156Y-123244439D01*
X137279712Y-123240959D01*
X137280795Y-123237565D01*
X137280979Y-123236897D01*
X137287388Y-123216348D01*
X137296490Y-123191398D01*
X137307560Y-123163816D01*
X137319874Y-123135375D01*
X137332705Y-123107843D01*
X137339300Y-123094554D01*
X137371749Y-123036345D01*
X137408977Y-122980220D01*
X137451666Y-122925249D01*
X137500499Y-122870502D01*
X137513642Y-122856849D01*
X137569151Y-122803310D01*
X137626431Y-122754827D01*
X137686685Y-122710531D01*
X137751117Y-122669557D01*
X137820931Y-122631037D01*
X137841917Y-122620420D01*
X137909971Y-122588548D01*
X137977985Y-122560713D01*
X138047187Y-122536541D01*
X138118807Y-122515659D01*
X138194072Y-122497692D01*
X138274212Y-122482268D01*
X138320680Y-122474752D01*
X138340516Y-122471832D01*
X138357844Y-122469566D01*
X138374061Y-122467870D01*
X138390562Y-122466659D01*
X138408742Y-122465848D01*
X138429998Y-122465355D01*
X138455724Y-122465094D01*
X138482208Y-122464991D01*
X138519423Y-122465069D01*
X138519423Y-122465069D01*
G37*
X138519423Y-122465069D02*
X138551094Y-122465572D01*
X138578725Y-122466621D01*
X138603824Y-122468340D01*
X138627893Y-122470851D01*
X138652439Y-122474276D01*
X138678967Y-122478740D01*
X138700931Y-122482815D01*
X138759786Y-122495578D01*
X138820883Y-122511645D01*
X138881336Y-122530182D01*
X138938260Y-122550354D01*
X138949639Y-122554777D01*
X138992817Y-122571970D01*
X139035192Y-122589108D01*
X139077150Y-122606370D01*
X139119080Y-122623937D01*
X139161369Y-122641989D01*
X139204404Y-122660707D01*
X139248573Y-122680271D01*
X139294265Y-122700862D01*
X139341866Y-122722659D01*
X139391764Y-122745844D01*
X139444347Y-122770597D01*
X139500003Y-122797099D01*
X139559118Y-122825528D01*
X139622082Y-122856067D01*
X139689280Y-122888896D01*
X139761102Y-122924194D01*
X139837935Y-122962143D01*
X139920166Y-123002923D01*
X140008183Y-123046714D01*
X140030903Y-123058037D01*
X140109183Y-123096981D01*
X140181702Y-123132880D01*
X140248949Y-123165961D01*
X140311415Y-123196448D01*
X140369589Y-123224567D01*
X140423962Y-123250545D01*
X140475024Y-123274606D01*
X140523265Y-123296978D01*
X140569175Y-123317885D01*
X140613244Y-123337553D01*
X140655962Y-123356208D01*
X140697819Y-123374076D01*
X140739306Y-123391382D01*
X140780912Y-123408353D01*
X140823128Y-123425213D01*
X140856403Y-123438281D01*
X140879926Y-123447518D01*
X140901319Y-123456037D01*
X140919688Y-123463473D01*
X140934143Y-123469460D01*
X140943791Y-123473635D01*
X140947732Y-123475624D01*
X140947199Y-123479719D01*
X140941987Y-123487737D01*
X140932739Y-123498968D01*
X140920100Y-123512704D01*
X140904712Y-123528236D01*
X140887219Y-123544855D01*
X140874178Y-123556657D01*
X140806199Y-123612758D01*
X140731764Y-123666253D01*
X140650994Y-123717086D01*
X140564011Y-123765200D01*
X140470938Y-123810538D01*
X140371897Y-123853043D01*
X140267009Y-123892658D01*
X140156398Y-123929327D01*
X140040185Y-123962992D01*
X139953292Y-123985296D01*
X139852697Y-124008538D01*
X139757709Y-124027867D01*
X139668081Y-124043303D01*
X139583561Y-124054868D01*
X139503901Y-124062580D01*
X139428851Y-124066462D01*
X139358163Y-124066535D01*
X139291587Y-124062818D01*
X139228874Y-124055332D01*
X139191082Y-124048660D01*
X139130450Y-124033748D01*
X139075094Y-124014367D01*
X139025086Y-123990590D01*
X138980499Y-123962491D01*
X138941404Y-123930142D01*
X138907873Y-123893617D01*
X138879979Y-123852988D01*
X138857795Y-123808329D01*
X138841392Y-123759713D01*
X138830842Y-123707214D01*
X138827903Y-123680940D01*
X138827085Y-123669833D01*
X138826149Y-123661698D01*
X138824111Y-123655994D01*
X138819991Y-123652178D01*
X138812806Y-123649710D01*
X138801575Y-123648046D01*
X138785315Y-123646646D01*
X138763045Y-123644967D01*
X138762667Y-123644937D01*
X138735115Y-123642710D01*
X138713944Y-123640816D01*
X138698491Y-123639166D01*
X138688094Y-123637673D01*
X138682090Y-123636249D01*
X138679817Y-123634807D01*
X138679918Y-123633974D01*
X138677973Y-123632665D01*
X138671139Y-123632440D01*
X138661468Y-123633114D01*
X138651010Y-123634497D01*
X138641817Y-123636403D01*
X138637431Y-123637859D01*
X138631923Y-123639376D01*
X138620616Y-123641836D01*
X138604669Y-123645008D01*
X138585241Y-123648665D01*
X138563489Y-123652578D01*
X138558056Y-123653529D01*
X138476570Y-123667036D01*
X138399154Y-123678409D01*
X138323266Y-123687987D01*
X138246367Y-123696109D01*
X138222917Y-123698294D01*
X138200487Y-123699888D01*
X138173281Y-123701121D01*
X138142652Y-123701993D01*
X138109951Y-123702504D01*
X138076529Y-123702652D01*
X138043738Y-123702438D01*
X138012930Y-123701861D01*
X137985455Y-123700920D01*
X137962666Y-123699615D01*
X137949514Y-123698402D01*
X137876686Y-123688747D01*
X137805829Y-123676860D01*
X137735068Y-123662349D01*
X137662527Y-123644822D01*
X137586331Y-123623890D01*
X137570857Y-123619368D01*
X137548243Y-123612575D01*
X137531577Y-123607222D01*
X137519982Y-123602959D01*
X137512578Y-123599438D01*
X137508490Y-123596309D01*
X137507057Y-123593968D01*
X137506091Y-123588855D01*
X137504509Y-123577561D01*
X137502410Y-123560925D01*
X137499895Y-123539783D01*
X137497063Y-123514975D01*
X137494013Y-123487338D01*
X137490918Y-123458392D01*
X137487321Y-123424399D01*
X137484435Y-123396757D01*
X137482312Y-123374791D01*
X137481001Y-123357830D01*
X137480553Y-123345198D01*
X137481018Y-123336223D01*
X137482447Y-123330230D01*
X137484890Y-123326547D01*
X137488397Y-123324499D01*
X137493018Y-123323413D01*
X137498805Y-123322615D01*
X137501091Y-123322283D01*
X137512337Y-123320254D01*
X137529389Y-123316797D01*
X137551193Y-123312151D01*
X137576700Y-123306555D01*
X137604858Y-123300249D01*
X137634615Y-123293471D01*
X137664921Y-123286461D01*
X137694725Y-123279457D01*
X137722975Y-123272700D01*
X137748620Y-123266427D01*
X137767833Y-123261593D01*
X137870462Y-123234234D01*
X137966453Y-123206397D01*
X138056213Y-123177945D01*
X138140153Y-123148742D01*
X138218680Y-123118650D01*
X138292203Y-123087534D01*
X138304056Y-123082213D01*
X138374730Y-123047760D01*
X138446700Y-123008022D01*
X138518246Y-122964092D01*
X138587648Y-122917066D01*
X138653190Y-122868037D01*
X138697403Y-122831786D01*
X138715065Y-122816423D01*
X138733398Y-122800012D01*
X138751684Y-122783244D01*
X138769206Y-122766810D01*
X138785249Y-122751401D01*
X138799095Y-122737709D01*
X138810027Y-122726424D01*
X138817329Y-122718238D01*
X138820283Y-122713841D01*
X138820219Y-122713368D01*
X138814114Y-122710119D01*
X138802137Y-122705797D01*
X138785347Y-122700663D01*
X138764801Y-122694980D01*
X138741556Y-122689011D01*
X138716670Y-122683019D01*
X138691199Y-122677265D01*
X138666201Y-122672013D01*
X138642732Y-122667526D01*
X138621852Y-122664065D01*
X138621556Y-122664021D01*
X138566513Y-122657477D01*
X138512179Y-122654423D01*
X138457039Y-122654893D01*
X138399581Y-122658923D01*
X138338289Y-122666548D01*
X138308461Y-122671261D01*
X138215204Y-122689850D01*
X138125771Y-122713707D01*
X138040377Y-122742725D01*
X137959234Y-122776797D01*
X137882557Y-122815818D01*
X137810558Y-122859681D01*
X137743451Y-122908280D01*
X137681449Y-122961509D01*
X137637949Y-123004915D01*
X137595574Y-123053556D01*
X137557536Y-123104333D01*
X137524493Y-123156230D01*
X137497105Y-123208230D01*
X137479656Y-123249355D01*
X137474680Y-123261769D01*
X137470056Y-123271937D01*
X137466789Y-123277652D01*
X137463532Y-123280958D01*
X137455631Y-123288670D01*
X137443561Y-123300334D01*
X137427793Y-123315496D01*
X137408801Y-123333704D01*
X137387057Y-123354504D01*
X137363034Y-123377442D01*
X137337205Y-123402065D01*
X137318042Y-123420309D01*
X137291341Y-123445737D01*
X137266208Y-123469712D01*
X137243104Y-123491794D01*
X137222486Y-123511540D01*
X137204813Y-123528513D01*
X137190545Y-123542270D01*
X137180139Y-123552371D01*
X137174055Y-123558376D01*
X137172607Y-123559922D01*
X137175572Y-123561699D01*
X137184384Y-123566052D01*
X137198436Y-123572701D01*
X137217123Y-123581368D01*
X137239836Y-123591773D01*
X137265972Y-123603637D01*
X137294923Y-123616683D01*
X137326083Y-123630630D01*
X137333468Y-123633923D01*
X137495126Y-123705942D01*
X137511981Y-123766214D01*
X137520094Y-123794199D01*
X137529941Y-123826534D01*
X137540916Y-123861347D01*
X137552411Y-123896762D01*
X137563817Y-123930907D01*
X137574527Y-123961907D01*
X137583511Y-123986757D01*
X137588959Y-124000443D01*
X137593479Y-124008917D01*
X137598136Y-124013733D01*
X137603830Y-124016392D01*
X137611132Y-124017558D01*
X137624453Y-124018496D01*
X137642760Y-124019209D01*
X137665020Y-124019697D01*
X137690201Y-124019965D01*
X137717269Y-124020013D01*
X137745192Y-124019845D01*
X137772937Y-124019461D01*
X137799472Y-124018866D01*
X137823763Y-124018060D01*
X137844777Y-124017046D01*
X137861319Y-124015841D01*
X138024261Y-123998212D01*
X138124139Y-123984838D01*
X138166859Y-123978400D01*
X138203678Y-123972100D01*
X138235734Y-123965624D01*
X138264167Y-123958661D01*
X138290116Y-123950899D01*
X138314721Y-123942025D01*
X138339122Y-123931727D01*
X138364457Y-123919694D01*
X138367556Y-123918147D01*
X138423115Y-123886813D01*
X138477664Y-123849211D01*
X138530233Y-123806128D01*
X138579852Y-123758353D01*
X138620314Y-123713042D01*
X138638347Y-123691319D01*
X138640748Y-123716569D01*
X138647775Y-123763991D01*
X138659681Y-123813168D01*
X138675802Y-123862224D01*
X138695477Y-123909282D01*
X138718042Y-123952463D01*
X138731719Y-123974289D01*
X138769340Y-124024006D01*
X138812141Y-124069003D01*
X138860037Y-124109251D01*
X138912937Y-124144723D01*
X138970757Y-124175389D01*
X139033406Y-124201223D01*
X139100799Y-124222197D01*
X139172848Y-124238282D01*
X139249465Y-124249451D01*
X139330562Y-124255676D01*
X139416053Y-124256929D01*
X139505848Y-124253182D01*
X139584639Y-124246139D01*
X139657782Y-124236822D01*
X139735875Y-124224509D01*
X139817621Y-124209481D01*
X139901724Y-124192024D01*
X139986887Y-124172418D01*
X140071813Y-124150949D01*
X140155205Y-124127899D01*
X140231986Y-124104745D01*
X140329460Y-124072112D01*
X140423786Y-124036670D01*
X140514613Y-123998629D01*
X140601592Y-123958203D01*
X140684372Y-123915600D01*
X140762604Y-123871034D01*
X140835937Y-123824714D01*
X140904021Y-123776853D01*
X140966506Y-123727661D01*
X141023041Y-123677350D01*
X141073278Y-123626131D01*
X141116865Y-123574215D01*
X141121516Y-123568103D01*
X141131132Y-123555676D01*
X141137892Y-123548104D01*
X141142929Y-123544422D01*
X141147377Y-123543664D01*
X141149726Y-123544079D01*
X141169163Y-123548388D01*
X141194240Y-123553070D01*
X141223568Y-123557922D01*
X141255757Y-123562737D01*
X141289415Y-123567313D01*
X141323152Y-123571443D01*
X141355578Y-123574923D01*
X141366167Y-123575932D01*
X141397905Y-123578462D01*
X141429888Y-123580184D01*
X141462791Y-123581067D01*
X141497290Y-123581080D01*
X141534060Y-123580194D01*
X141573775Y-123578377D01*
X141617113Y-123575599D01*
X141664746Y-123571829D01*
X141717352Y-123567037D01*
X141775605Y-123561192D01*
X141837125Y-123554600D01*
X141926165Y-123544237D01*
X142021639Y-123532018D01*
X142123193Y-123518007D01*
X142230469Y-123502269D01*
X142343115Y-123484868D01*
X142460774Y-123465867D01*
X142583091Y-123445332D01*
X142709712Y-123423326D01*
X142840280Y-123399914D01*
X142974441Y-123375160D01*
X143111840Y-123349128D01*
X143252121Y-123321882D01*
X143394930Y-123293486D01*
X143539911Y-123264006D01*
X143686709Y-123233505D01*
X143834969Y-123202046D01*
X143984335Y-123169696D01*
X144071972Y-123150408D01*
X144116466Y-123140554D01*
X144154684Y-123132267D01*
X144187258Y-123125680D01*
X144214823Y-123120928D01*
X144238011Y-123118146D01*
X144257455Y-123117468D01*
X144273788Y-123119028D01*
X144287642Y-123122962D01*
X144299652Y-123129404D01*
X144310449Y-123138488D01*
X144320667Y-123150348D01*
X144330938Y-123165120D01*
X144341896Y-123182938D01*
X144354174Y-123203936D01*
X144358453Y-123211295D01*
X144395722Y-123277072D01*
X144430654Y-123342322D01*
X144462855Y-123406214D01*
X144491929Y-123467915D01*
X144517481Y-123526594D01*
X144539117Y-123581419D01*
X144552982Y-123620859D01*
X144568442Y-123673272D01*
X144579158Y-123722184D01*
X144585158Y-123767367D01*
X144586469Y-123808594D01*
X144583119Y-123845635D01*
X144575134Y-123878262D01*
X144562543Y-123906247D01*
X144545372Y-123929362D01*
X144523649Y-123947378D01*
X144513124Y-123953395D01*
X144502991Y-123958154D01*
X144491941Y-123962524D01*
X144479615Y-123966533D01*
X144465657Y-123970209D01*
X144449709Y-123973581D01*
X144431413Y-123976677D01*
X144410414Y-123979524D01*
X144386352Y-123982152D01*
X144358872Y-123984587D01*
X144327615Y-123986859D01*
X144292225Y-123988995D01*
X144252343Y-123991023D01*
X144207613Y-123992973D01*
X144157677Y-123994871D01*
X144102178Y-123996746D01*
X144040759Y-123998626D01*
X143973062Y-124000540D01*
X143898731Y-124002515D01*
X143885000Y-124002869D01*
X143762923Y-124006207D01*
X143647344Y-124009786D01*
X143537707Y-124013639D01*
X143433456Y-124017794D01*
X143334037Y-124022284D01*
X143238895Y-124027138D01*
X143147474Y-124032388D01*
X143059219Y-124038064D01*
X142973574Y-124044196D01*
X142889985Y-124050816D01*
X142807897Y-124057954D01*
X142726754Y-124065640D01*
X142699667Y-124068345D01*
X142570967Y-124082177D01*
X142446502Y-124097273D01*
X142325523Y-124113805D01*
X142207281Y-124131941D01*
X142091028Y-124151851D01*
X141976016Y-124173705D01*
X141861496Y-124197671D01*
X141746721Y-124223920D01*
X141630941Y-124252620D01*
X141513408Y-124283942D01*
X141393373Y-124318054D01*
X141270090Y-124355127D01*
X141142808Y-124395329D01*
X141010780Y-124438830D01*
X140905792Y-124474551D01*
X140855932Y-124492059D01*
X140808400Y-124509485D01*
X140762527Y-124527150D01*
X140717643Y-124545374D01*
X140673080Y-124564476D01*
X140628167Y-124584779D01*
X140582235Y-124606601D01*
X140534615Y-124630263D01*
X140484637Y-124656085D01*
X140431633Y-124684388D01*
X140374932Y-124715492D01*
X140313865Y-124749717D01*
X140247763Y-124787384D01*
X140226694Y-124799493D01*
X140168073Y-124833223D01*
X140115102Y-124863651D01*
X140067334Y-124891025D01*
X140024321Y-124915591D01*
X139985616Y-124937596D01*
X139950771Y-124957287D01*
X139919338Y-124974910D01*
X139890870Y-124990714D01*
X139864919Y-125004944D01*
X139841037Y-125017848D01*
X139818777Y-125029672D01*
X139797692Y-125040664D01*
X139777332Y-125051070D01*
X139757252Y-125061138D01*
X139737003Y-125071113D01*
X139716138Y-125081244D01*
X139714306Y-125082128D01*
X139646867Y-125113565D01*
X139583250Y-125140819D01*
X139522082Y-125164282D01*
X139461992Y-125184345D01*
X139401609Y-125201402D01*
X139339560Y-125215844D01*
X139274474Y-125228064D01*
X139204978Y-125238454D01*
X139140139Y-125246279D01*
X139099152Y-125250039D01*
X139053206Y-125252999D01*
X139004358Y-125255105D01*
X138954663Y-125256301D01*
X138906179Y-125256532D01*
X138860962Y-125255744D01*
X138831458Y-125254508D01*
X138751912Y-125247865D01*
X138671456Y-125236743D01*
X138591278Y-125221443D01*
X138512567Y-125202263D01*
X138436511Y-125179501D01*
X138364298Y-125153456D01*
X138297116Y-125124427D01*
X138279008Y-125115625D01*
X138198028Y-125071372D01*
X138118806Y-125020408D01*
X138041482Y-124962893D01*
X137966195Y-124898983D01*
X137893086Y-124828836D01*
X137822295Y-124752610D01*
X137753960Y-124670463D01*
X137688223Y-124582552D01*
X137625222Y-124489036D01*
X137565097Y-124390070D01*
X137507989Y-124285814D01*
X137462897Y-124195201D01*
X137444559Y-124155287D01*
X137426937Y-124113922D01*
X137409526Y-124069814D01*
X137391819Y-124021672D01*
X137373310Y-123968204D01*
X137368965Y-123955250D01*
X137361296Y-123931804D01*
X137353193Y-123906214D01*
X137345008Y-123879673D01*
X137337093Y-123853373D01*
X137329801Y-123828508D01*
X137323485Y-123806269D01*
X137318496Y-123787848D01*
X137315187Y-123774440D01*
X137314378Y-123770558D01*
X137312209Y-123758996D01*
X137107595Y-123676428D01*
X137071615Y-123661883D01*
X137037607Y-123648085D01*
X137006132Y-123635266D01*
X136977748Y-123623654D01*
X136953014Y-123613480D01*
X136932490Y-123604974D01*
X136916734Y-123598367D01*
X136906307Y-123593889D01*
X136901768Y-123591769D01*
X136901619Y-123591656D01*
X136903960Y-123589006D01*
X136911162Y-123582050D01*
X136922812Y-123571163D01*
X136938495Y-123556724D01*
X136957797Y-123539108D01*
X136980304Y-123518694D01*
X137005601Y-123495859D01*
X137033274Y-123470979D01*
X137062909Y-123444432D01*
X137088286Y-123421769D01*
X137124302Y-123389640D01*
X137155416Y-123361846D01*
X137181998Y-123338033D01*
X137204415Y-123317848D01*
X137223038Y-123300935D01*
X137238235Y-123286942D01*
X137250376Y-123275513D01*
X137259830Y-123266294D01*
X137266965Y-123258931D01*
X137272152Y-123253071D01*
X137275759Y-123248358D01*
X137278156Y-123244439D01*
X137279712Y-123240959D01*
X137280795Y-123237565D01*
X137280979Y-123236897D01*
X137287388Y-123216348D01*
X137296490Y-123191398D01*
X137307560Y-123163816D01*
X137319874Y-123135375D01*
X137332705Y-123107843D01*
X137339300Y-123094554D01*
X137371749Y-123036345D01*
X137408977Y-122980220D01*
X137451666Y-122925249D01*
X137500499Y-122870502D01*
X137513642Y-122856849D01*
X137569151Y-122803310D01*
X137626431Y-122754827D01*
X137686685Y-122710531D01*
X137751117Y-122669557D01*
X137820931Y-122631037D01*
X137841917Y-122620420D01*
X137909971Y-122588548D01*
X137977985Y-122560713D01*
X138047187Y-122536541D01*
X138118807Y-122515659D01*
X138194072Y-122497692D01*
X138274212Y-122482268D01*
X138320680Y-122474752D01*
X138340516Y-122471832D01*
X138357844Y-122469566D01*
X138374061Y-122467870D01*
X138390562Y-122466659D01*
X138408742Y-122465848D01*
X138429998Y-122465355D01*
X138455724Y-122465094D01*
X138482208Y-122464991D01*
X138519423Y-122465069D01*
D12*
X161190000Y-100200000D03*
X161190000Y-100600000D03*
X161190000Y-101000000D03*
X161190000Y-101400000D03*
X161190000Y-101800000D03*
X161190000Y-102200000D03*
X161190000Y-102600000D03*
X161190000Y-103000000D03*
X161190000Y-103400000D03*
X161190000Y-103800000D03*
X161190000Y-107800000D03*
X161190000Y-107400000D03*
X161190000Y-107000000D03*
X161190000Y-106600000D03*
X161190000Y-106200000D03*
X161190000Y-105800000D03*
X161190000Y-105400000D03*
X161190000Y-105000000D03*
X161190000Y-104600000D03*
X161190000Y-104200000D03*
X161190000Y-108200000D03*
X161190000Y-108600000D03*
X161190000Y-109000000D03*
X161190000Y-109400000D03*
X161190000Y-109800000D03*
X161190000Y-110200000D03*
X161190000Y-110600000D03*
X161190000Y-111000000D03*
X161190000Y-111400000D03*
X161190000Y-111800000D03*
X161190000Y-115800000D03*
X161190000Y-115400000D03*
X161190000Y-115000000D03*
X161190000Y-114600000D03*
X161190000Y-114200000D03*
X161190000Y-113800000D03*
X161190000Y-113400000D03*
X161190000Y-113000000D03*
X161190000Y-112600000D03*
X161190000Y-112200000D03*
X158110000Y-112200000D03*
X158110000Y-112600000D03*
X158110000Y-113000000D03*
X158110000Y-113400000D03*
X158110000Y-113800000D03*
X158110000Y-114200000D03*
X158110000Y-114600000D03*
X158110000Y-115000000D03*
X158110000Y-115400000D03*
X158110000Y-115800000D03*
X158110000Y-111800000D03*
X158110000Y-111400000D03*
X158110000Y-111000000D03*
X158110000Y-110600000D03*
X158110000Y-110200000D03*
X158110000Y-109800000D03*
X158110000Y-109400000D03*
X158110000Y-109000000D03*
X158110000Y-108600000D03*
X158110000Y-108200000D03*
X158110000Y-104200000D03*
X158110000Y-104600000D03*
X158110000Y-105000000D03*
X158110000Y-105400000D03*
X158110000Y-105800000D03*
X158110000Y-106200000D03*
X158110000Y-106600000D03*
X158110000Y-107000000D03*
X158110000Y-107400000D03*
X158110000Y-107800000D03*
X158110000Y-103800000D03*
X158110000Y-103400000D03*
X158110000Y-103000000D03*
X158110000Y-102600000D03*
X158110000Y-102200000D03*
X158110000Y-101800000D03*
X158110000Y-101400000D03*
X158110000Y-101000000D03*
X158110000Y-100600000D03*
X158110000Y-100200000D03*
D13*
X158461920Y-94250000D03*
X158461920Y-93599760D03*
X158461920Y-92949520D03*
X155800000Y-92949520D03*
X155800000Y-93599760D03*
X155800000Y-94250000D03*
X164300000Y-98250000D03*
X164300000Y-97599760D03*
X164300000Y-96949520D03*
X161638080Y-96949520D03*
X161638080Y-97599760D03*
X161638080Y-98250000D03*
X158611920Y-96700000D03*
X158611920Y-96049760D03*
X158611920Y-95399520D03*
X155950000Y-95399520D03*
X155950000Y-96049760D03*
X155950000Y-96700000D03*
D14*
X153850000Y-125050000D03*
X151950000Y-125050000D03*
X156460000Y-125050000D03*
X158360000Y-125050000D03*
D15*
X158300000Y-123180000D03*
X158300000Y-121280000D03*
D16*
X147070000Y-123300000D03*
X147070000Y-124798600D03*
D17*
X131860000Y-105960000D03*
D18*
X131860000Y-103420000D03*
D19*
X133980000Y-109737720D03*
X132080000Y-109737720D03*
X133030000Y-112740000D03*
D20*
X134250000Y-116280000D03*
X132050000Y-116280000D03*
D21*
X149660000Y-124880000D03*
X149660000Y-122680000D03*
D22*
X153830000Y-121090000D03*
X153830000Y-121490000D03*
X153830000Y-121890000D03*
X153830000Y-122290000D03*
X153830000Y-122690000D03*
X153830000Y-123090000D03*
D23*
X154330000Y-123590000D03*
X154730000Y-123590000D03*
X155130000Y-123590000D03*
X155530000Y-123590000D03*
X155930000Y-123590000D03*
X156330000Y-123590000D03*
D22*
X156830000Y-123090000D03*
X156830000Y-122690000D03*
X156830000Y-122290000D03*
X156830000Y-121890000D03*
X156830000Y-121490000D03*
X156830000Y-121090000D03*
D23*
X156330000Y-120590000D03*
X155930000Y-120590000D03*
X155530000Y-120590000D03*
X155130000Y-120590000D03*
X154730000Y-120590000D03*
X154330000Y-120590000D03*
D24*
X155330000Y-122090000D03*
D25*
X162950000Y-97849974D03*
X162500000Y-95300000D03*
X156335426Y-119765426D03*
X150790000Y-122670000D03*
X150770000Y-125050000D03*
X159612905Y-125034648D03*
X132060000Y-117450000D03*
X159390000Y-121280000D03*
D26*
X163335170Y-106128721D03*
X162579214Y-106491109D03*
X162993938Y-107218712D03*
X162237982Y-107581100D03*
X162237982Y-108419301D03*
X162993938Y-108781689D03*
X162579214Y-109509292D03*
X163335170Y-109871680D03*
D25*
X164264956Y-95352566D03*
X160500000Y-95450000D03*
X157300000Y-95000000D03*
X159100000Y-98150000D03*
X159950000Y-93400000D03*
X154500000Y-92950000D03*
X153600000Y-93750000D03*
X154325068Y-92130246D03*
X160303087Y-96914049D03*
X157300000Y-97100000D03*
X156750000Y-92200000D03*
X154650000Y-94900000D03*
D26*
X156380187Y-105401118D03*
D25*
X160729126Y-94320874D03*
X159570000Y-119181520D03*
X152050000Y-120360000D03*
X133060000Y-114350000D03*
X135130000Y-114530000D03*
X145490000Y-118960000D03*
D26*
X156306694Y-107218712D03*
X157062650Y-107581100D03*
X157062650Y-108419301D03*
X156306694Y-108781689D03*
X156721418Y-109509292D03*
X155965462Y-109871680D03*
X154941767Y-102858749D03*
X155697723Y-103221137D03*
D25*
X160817802Y-117018356D03*
D26*
X158255617Y-116945501D03*
X161045015Y-99054899D03*
X158255617Y-99054899D03*
X158255617Y-99054899D03*
D25*
X155245312Y-124684569D03*
X161955101Y-117373351D03*
X162720000Y-118130000D03*
D26*
X163625674Y-117420519D03*
X164626605Y-116049236D03*
X165041329Y-115321633D03*
X164285373Y-114959245D03*
X164700097Y-114231642D03*
X163944142Y-113869254D03*
X164358866Y-113141651D03*
X163602910Y-112779264D03*
X164017634Y-112051661D03*
X163261678Y-111689273D03*
X163676402Y-110961670D03*
X162920446Y-110599282D03*
X162920446Y-105401118D03*
X163676402Y-105038731D03*
X163261678Y-104311128D03*
X164017634Y-103948740D03*
X163602910Y-103221137D03*
X164358866Y-102858749D03*
X163944142Y-102131146D03*
X164700097Y-101768759D03*
X164285373Y-101041156D03*
X165041329Y-100678768D03*
X164626605Y-99951165D03*
X163642567Y-99005000D03*
X163166374Y-99692120D03*
X162511810Y-99165956D03*
X162035617Y-99853076D03*
X157265015Y-99853076D03*
X156788823Y-99165956D03*
X156134258Y-99692120D03*
D25*
X156900000Y-123730000D03*
X153470000Y-123800000D03*
X153010000Y-113030000D03*
X152990000Y-110430000D03*
X154080000Y-98370000D03*
X153630000Y-99130000D03*
D26*
X154259303Y-100678768D03*
X155015259Y-101041156D03*
X154600535Y-101768759D03*
X155356491Y-102131146D03*
X155965462Y-106128721D03*
X156721418Y-106491109D03*
X156380187Y-110599282D03*
X155624231Y-110961670D03*
X156038955Y-111689273D03*
X155282999Y-112051661D03*
X155697723Y-112779264D03*
X154941767Y-113141651D03*
X155356491Y-113869254D03*
X154600535Y-114231642D03*
X155015259Y-114959245D03*
X154259303Y-115321633D03*
X154674027Y-116049236D03*
X155658066Y-116995401D03*
X156134258Y-116308281D03*
X156788823Y-116834445D03*
X157265015Y-116147324D03*
D27*
X162950000Y-97849974D02*
X162950000Y-96450000D01*
X162950000Y-96450000D02*
X162850000Y-96350000D01*
X162950000Y-97849974D02*
X163350266Y-98250240D01*
X163350266Y-98250240D02*
X163350506Y-98250000D01*
X163350506Y-98250000D02*
X164300000Y-98250000D01*
X162850000Y-96350000D02*
X162550000Y-96050000D01*
X158461920Y-94250000D02*
X158461920Y-95249520D01*
X158461920Y-95249520D02*
X158611920Y-95399520D01*
X159353696Y-95399520D02*
X159975678Y-96021502D01*
X158611920Y-95399520D02*
X159353696Y-95399520D01*
X160771502Y-96021502D02*
X160528498Y-96021502D01*
X162550000Y-96050000D02*
X160800000Y-96050000D01*
X160800000Y-96050000D02*
X160771502Y-96021502D01*
X160528498Y-96021502D02*
X159914476Y-96021502D01*
X159235978Y-96700000D02*
X158611920Y-96700000D01*
X159975678Y-96021502D02*
X160528498Y-96021502D01*
X159914476Y-96021502D02*
X159235978Y-96700000D01*
X162500000Y-96000000D02*
X162500000Y-95784933D01*
X162550000Y-96050000D02*
X162500000Y-96000000D01*
X162500000Y-95784933D02*
X162500000Y-95300000D01*
X158611920Y-94261920D02*
X158600000Y-94250000D01*
D28*
X155930000Y-123967488D02*
X155930000Y-123590000D01*
X156289413Y-124326901D02*
X155930000Y-123967488D01*
X158135000Y-125050000D02*
X157411901Y-124326901D01*
X158360000Y-125050000D02*
X158135000Y-125050000D01*
X157411901Y-124326901D02*
X156289413Y-124326901D01*
D27*
X156327174Y-119765426D02*
X156335426Y-119765426D01*
X155930000Y-120590000D02*
X155930000Y-120162600D01*
X155930000Y-120162600D02*
X156327174Y-119765426D01*
D28*
X149660000Y-122680000D02*
X150780000Y-122680000D01*
X150780000Y-122680000D02*
X150790000Y-122670000D01*
D27*
X151950000Y-125050000D02*
X150770000Y-125050000D01*
D28*
X159597553Y-125050000D02*
X159612905Y-125034648D01*
X158360000Y-125050000D02*
X159597553Y-125050000D01*
D27*
X132050000Y-116280000D02*
X132050000Y-117440000D01*
X132050000Y-117440000D02*
X132060000Y-117450000D01*
D28*
X158300000Y-121280000D02*
X159390000Y-121280000D01*
X156830000Y-121090000D02*
X158110000Y-121090000D01*
X158110000Y-121090000D02*
X158300000Y-121280000D01*
D27*
X161190316Y-106624000D02*
X161540316Y-106624000D01*
X161540316Y-106624000D02*
X162460992Y-105841578D01*
X162460992Y-105841578D02*
X162749830Y-105946114D01*
X162749830Y-105946114D02*
X163335170Y-106128721D01*
X161190316Y-107024000D02*
X161540316Y-107024000D01*
X161540316Y-107024000D02*
X162406505Y-106287883D01*
X162406505Y-106287883D02*
X162579214Y-106491109D01*
X161190316Y-107424000D02*
X161540316Y-107424000D01*
X161540316Y-107424000D02*
X162119760Y-106931569D01*
X162119760Y-106931569D02*
X162408598Y-107036104D01*
X162408598Y-107036104D02*
X162993938Y-107218712D01*
X161190316Y-107824000D02*
X161540316Y-107824000D01*
X161540316Y-107824000D02*
X162065274Y-107377873D01*
X162065274Y-107377873D02*
X162237982Y-107581100D01*
X161190316Y-108176401D02*
X161540316Y-108176401D01*
X161540316Y-108176401D02*
X162065274Y-108622527D01*
X162065274Y-108622527D02*
X162237982Y-108419301D01*
X161190316Y-108576401D02*
X161540316Y-108576401D01*
X161540316Y-108576401D02*
X162119760Y-109068832D01*
X162119760Y-109068832D02*
X162408598Y-108964297D01*
X162408598Y-108964297D02*
X162993938Y-108781689D01*
X161190316Y-108976401D02*
X161540316Y-108976401D01*
X161540316Y-108976401D02*
X162406505Y-109712518D01*
X162406505Y-109712518D02*
X162579214Y-109509292D01*
X161190316Y-109376401D02*
X161540316Y-109376401D01*
X161540316Y-109376401D02*
X162460992Y-110158823D01*
X162460992Y-110158823D02*
X162749830Y-110054287D01*
X162749830Y-110054287D02*
X163335170Y-109871680D01*
X165202970Y-96290580D02*
X164607855Y-95695465D01*
X163412390Y-94500000D02*
X163922057Y-95009667D01*
X164851180Y-96949520D02*
X165202970Y-96597730D01*
X164300000Y-96949520D02*
X164851180Y-96949520D01*
X160500000Y-95450000D02*
X161450000Y-94500000D01*
X163922057Y-95009667D02*
X164264956Y-95352566D01*
X165202970Y-96597730D02*
X165202970Y-96290580D01*
X161450000Y-94500000D02*
X163412390Y-94500000D01*
X164607855Y-95695465D02*
X164264956Y-95352566D01*
X164300000Y-97599760D02*
X164300000Y-96949520D01*
X160500000Y-95450000D02*
X160500000Y-94965067D01*
X160500000Y-94965067D02*
X159134693Y-93599760D01*
X159134693Y-93599760D02*
X158461920Y-93599760D01*
X157300000Y-93996790D02*
X157300000Y-94515067D01*
X157300000Y-94515067D02*
X157300000Y-95000000D01*
X158611920Y-96049760D02*
X157708950Y-96049760D01*
X157708950Y-96049760D02*
X157300000Y-95640810D01*
X157300000Y-95640810D02*
X157300000Y-95000000D01*
X159502970Y-92949520D02*
X158461920Y-92949520D01*
X158265067Y-97800000D02*
X156698210Y-97800000D01*
X155950000Y-97051790D02*
X155950000Y-96700000D01*
X156698210Y-97800000D02*
X155950000Y-97051790D01*
X159100000Y-98150000D02*
X158615067Y-98150000D01*
X158615067Y-98150000D02*
X158265067Y-97800000D01*
X159950000Y-93396550D02*
X159950000Y-93400000D01*
X159502970Y-92949520D02*
X159950000Y-93396550D01*
X156470220Y-96800240D02*
X155919040Y-96800240D01*
X157607600Y-105000000D02*
X158110000Y-105000000D01*
X156903232Y-104295632D02*
X157607600Y-105000000D01*
X154598740Y-103948740D02*
X156495045Y-103948740D01*
X156495045Y-103948740D02*
X156903232Y-104295632D01*
X153600000Y-102950000D02*
X154598740Y-103948740D01*
X153600000Y-100521066D02*
X153600000Y-102950000D01*
X154781502Y-99339564D02*
X153600000Y-100521066D01*
X154781502Y-98201502D02*
X154781502Y-99339564D01*
X153600000Y-97020000D02*
X154781502Y-98201502D01*
X153600000Y-93750000D02*
X153600000Y-97020000D01*
X155800000Y-92949520D02*
X154500480Y-92949520D01*
X154500480Y-92949520D02*
X154500000Y-92950000D01*
X155938080Y-92949520D02*
X155937600Y-92950000D01*
X161638080Y-98250000D02*
X160346552Y-98250000D01*
X160346552Y-98250000D02*
X160303087Y-98206535D01*
X160303087Y-98206535D02*
X160303087Y-97700000D01*
X160303087Y-97700000D02*
X160303087Y-97398982D01*
X161638080Y-97599760D02*
X160735110Y-97599760D01*
X160735110Y-97599760D02*
X160634870Y-97700000D01*
X160634870Y-97700000D02*
X160303087Y-97700000D01*
X158110000Y-106200000D02*
X159531067Y-106200000D01*
X154650000Y-93945822D02*
X154650000Y-93846790D01*
X154650000Y-93846790D02*
X154897030Y-93599760D01*
X154897030Y-93599760D02*
X155800000Y-93599760D01*
X154650000Y-94900000D02*
X154650000Y-93945822D01*
X154650000Y-93945822D02*
X153928499Y-93224321D01*
X153928499Y-93224321D02*
X153928499Y-92526815D01*
X153928499Y-92526815D02*
X153982169Y-92473145D01*
X153982169Y-92473145D02*
X154325068Y-92130246D01*
X154394822Y-92200000D02*
X154325068Y-92130246D01*
X156750000Y-92200000D02*
X154394822Y-92200000D01*
X160303087Y-97398982D02*
X160303087Y-96914049D01*
X160239234Y-98270388D02*
X160303087Y-98206535D01*
X156957101Y-96757101D02*
X156957101Y-96153891D01*
X157300000Y-97100000D02*
X156957101Y-96757101D01*
X156957101Y-96153891D02*
X156852970Y-96049760D01*
X156852970Y-96049760D02*
X155950000Y-96049760D01*
X160054811Y-98454811D02*
X160239234Y-98270388D01*
X160054811Y-98454811D02*
X160050000Y-98450000D01*
X160059620Y-104997487D02*
X160054811Y-104992678D01*
X159531067Y-106200000D02*
X160059620Y-105671447D01*
X160054811Y-104992678D02*
X160054811Y-98454811D01*
X160059620Y-105671447D02*
X160059620Y-104997487D01*
X158110316Y-106224000D02*
X157760316Y-106224000D01*
X157760316Y-106224000D02*
X156552895Y-105197892D01*
X156552895Y-105197892D02*
X156380187Y-105401118D01*
X160729126Y-94320874D02*
X160729126Y-92679126D01*
X160729126Y-92679126D02*
X160500000Y-92450000D01*
X156917251Y-93032749D02*
X156917251Y-94173799D01*
X156917251Y-94173799D02*
X156841050Y-94250000D01*
X156841050Y-94250000D02*
X155800000Y-94250000D01*
X160500000Y-92450000D02*
X157500000Y-92450000D01*
X157500000Y-92450000D02*
X156917251Y-93032749D01*
X159450000Y-105800000D02*
X158110000Y-105800000D01*
X159750000Y-105500000D02*
X159450000Y-105800000D01*
X159700000Y-96671314D02*
X159700000Y-99250000D01*
X159750000Y-99300000D02*
X159750000Y-105500000D01*
X159700000Y-99250000D02*
X159750000Y-99300000D01*
X159885657Y-96485657D02*
X159700000Y-96671314D01*
X161638080Y-96949520D02*
X160874588Y-96949520D01*
X160874588Y-96949520D02*
X160874588Y-96639728D01*
X160874588Y-96639728D02*
X160577408Y-96342548D01*
X160577408Y-96342548D02*
X160028766Y-96342548D01*
X160028766Y-96342548D02*
X159885657Y-96485657D01*
X155047030Y-95399520D02*
X155950000Y-95399520D01*
X154733499Y-97722433D02*
X154733499Y-95713051D01*
X155444565Y-98433499D02*
X154733499Y-97722433D01*
X159445190Y-99426256D02*
X158452433Y-98433499D01*
X158612400Y-105400000D02*
X159445190Y-104567210D01*
X154733499Y-95713051D02*
X155047030Y-95399520D01*
X158110000Y-105400000D02*
X158612400Y-105400000D01*
X159445190Y-104567210D02*
X159445190Y-99426256D01*
X158452433Y-98433499D02*
X155444565Y-98433499D01*
D28*
X159570000Y-120060000D02*
X159570000Y-119181520D01*
X153850000Y-125050000D02*
X153850000Y-124471800D01*
X153850000Y-124471800D02*
X153959331Y-124362469D01*
X153959331Y-124362469D02*
X154730000Y-124362469D01*
X152050000Y-120360000D02*
X152050000Y-123475000D01*
X153625000Y-125050000D02*
X153850000Y-125050000D01*
X152050000Y-123475000D02*
X153625000Y-125050000D01*
X154150000Y-125050000D02*
X154150000Y-124942469D01*
X154730000Y-124068200D02*
X154730000Y-123590000D01*
X154730000Y-124362469D02*
X154730000Y-124068200D01*
X158878200Y-123180000D02*
X158300000Y-123180000D01*
X159986902Y-122071298D02*
X158878200Y-123180000D01*
X159986902Y-120476902D02*
X159986902Y-122071298D01*
X159570000Y-120060000D02*
X159986902Y-120476902D01*
D27*
X157112400Y-120060000D02*
X159570000Y-120060000D01*
X156582400Y-120590000D02*
X157112400Y-120060000D01*
X156330000Y-120590000D02*
X156582400Y-120590000D01*
D28*
X156830000Y-123090000D02*
X158210000Y-123090000D01*
X158210000Y-123090000D02*
X158300000Y-123180000D01*
X152050000Y-120360000D02*
X149408020Y-120360000D01*
X149408020Y-120360000D02*
X147070000Y-122698020D01*
X147070000Y-122698020D02*
X147070000Y-123300000D01*
X155530000Y-124120000D02*
X156460000Y-125050000D01*
X155530000Y-123590000D02*
X155530000Y-124120000D01*
D27*
X156721418Y-109509292D02*
X156721418Y-109196413D01*
X156721418Y-109196413D02*
X156306694Y-108781689D01*
X156306694Y-108781689D02*
X156306694Y-109530448D01*
X156306694Y-109530448D02*
X155965462Y-109871680D01*
X157062650Y-108419301D02*
X156669082Y-108419301D01*
X156669082Y-108419301D02*
X156306694Y-108781689D01*
X157062650Y-107581100D02*
X157062650Y-108419301D01*
X156306694Y-107218712D02*
X156700262Y-107218712D01*
X156700262Y-107218712D02*
X157062650Y-107581100D01*
D28*
X133060000Y-114350000D02*
X133060000Y-112770000D01*
X133060000Y-112770000D02*
X133030000Y-112740000D01*
X145490000Y-118960000D02*
X139560000Y-118960000D01*
X139560000Y-118960000D02*
X135130000Y-114530000D01*
D29*
X155965462Y-109871680D02*
X154578320Y-109871680D01*
X154578320Y-109871680D02*
X145490000Y-118960000D01*
D27*
X158110316Y-107424000D02*
X157760316Y-107424000D01*
X157760316Y-107424000D02*
X157180872Y-106931569D01*
X157180872Y-106931569D02*
X156892034Y-107036104D01*
X156892034Y-107036104D02*
X156306694Y-107218712D01*
X158110316Y-107824000D02*
X157760316Y-107824000D01*
X157760316Y-107824000D02*
X157235359Y-107377873D01*
X157235359Y-107377873D02*
X157062650Y-107581100D01*
X158110316Y-108176401D02*
X157760316Y-108176401D01*
X157760316Y-108176401D02*
X157235359Y-108622527D01*
X157235359Y-108622527D02*
X157062650Y-108419301D01*
X158110316Y-108576401D02*
X157760316Y-108576401D01*
X157760316Y-108576401D02*
X157180872Y-109068832D01*
X157180872Y-109068832D02*
X156892034Y-108964297D01*
X156892034Y-108964297D02*
X156306694Y-108781689D01*
X158110316Y-108976401D02*
X157760316Y-108976401D01*
X157760316Y-108976401D02*
X156894127Y-109712518D01*
X156894127Y-109712518D02*
X156721418Y-109509292D01*
X158110316Y-109376401D02*
X157760316Y-109376401D01*
X157760316Y-109376401D02*
X156839640Y-110158823D01*
X156839640Y-110158823D02*
X156550802Y-110054287D01*
X156550802Y-110054287D02*
X155965462Y-109871680D01*
X147070000Y-124798600D02*
X149578600Y-124798600D01*
X149578600Y-124798600D02*
X149660000Y-124880000D01*
D28*
X132080000Y-109737720D02*
X132080000Y-109237340D01*
X132080000Y-109237340D02*
X133870000Y-107447340D01*
X133870000Y-107447340D02*
X133870000Y-104520000D01*
X133870000Y-104520000D02*
X133785999Y-104435999D01*
X133785999Y-104435999D02*
X132875999Y-104435999D01*
X132875999Y-104435999D02*
X131860000Y-103420000D01*
D27*
X158110316Y-104224000D02*
X157760316Y-104224000D01*
X157760316Y-104224000D02*
X155815945Y-102571606D01*
X155815945Y-102571606D02*
X155527107Y-102676142D01*
X155527107Y-102676142D02*
X154941767Y-102858749D01*
X158110316Y-104624000D02*
X157760316Y-104624000D01*
X157760316Y-104624000D02*
X155870431Y-103017911D01*
X155870431Y-103017911D02*
X155697723Y-103221137D01*
X160474903Y-117361255D02*
X160817802Y-117018356D01*
X160025780Y-117810378D02*
X160474903Y-117361255D01*
X156487488Y-117810378D02*
X160025780Y-117810378D01*
X154330000Y-119967866D02*
X156487488Y-117810378D01*
X154330000Y-120590000D02*
X154330000Y-119967866D01*
X158255617Y-115800200D02*
X158255617Y-116945501D01*
X161045015Y-100200200D02*
X161045015Y-99054899D01*
X158255617Y-100200200D02*
X158255617Y-99054899D01*
X158255617Y-100200200D02*
X158255617Y-99054899D01*
X155245312Y-124684569D02*
X155130000Y-124569257D01*
X155130000Y-124569257D02*
X155130000Y-123590000D01*
X154730000Y-119998933D02*
X156613744Y-118115189D01*
X161612202Y-117716250D02*
X161955101Y-117373351D01*
X154730000Y-120590000D02*
X154730000Y-119998933D01*
X161213263Y-118115189D02*
X161612202Y-117716250D01*
X156613744Y-118115189D02*
X161213263Y-118115189D01*
X161945067Y-118420000D02*
X156872600Y-118420000D01*
X155130000Y-120162600D02*
X155130000Y-120590000D01*
X156872600Y-118420000D02*
X155130000Y-120162600D01*
X162235067Y-118130000D02*
X161945067Y-118420000D01*
X162720000Y-118130000D02*
X162235067Y-118130000D01*
X161190000Y-115800000D02*
X161390000Y-115800000D01*
X161390000Y-115800000D02*
X163010519Y-117420519D01*
X163010519Y-117420519D02*
X163625674Y-117420519D01*
X163098982Y-116701020D02*
X162864935Y-116701020D01*
X162864935Y-116701020D02*
X161540316Y-115376401D01*
X163688707Y-116602726D02*
X163691651Y-116638990D01*
X163691651Y-116638990D02*
X163528131Y-116831404D01*
X164626605Y-116049236D02*
X164283706Y-116392135D01*
X164283706Y-116392135D02*
X163867676Y-116392135D01*
X163867676Y-116392135D02*
X163688707Y-116602726D01*
X163528131Y-116831404D02*
X163276446Y-116851835D01*
X163276446Y-116851835D02*
X163098982Y-116701020D01*
X164453897Y-116252462D02*
X164626605Y-116049236D01*
X161190316Y-115376401D02*
X161540316Y-115376401D01*
X163377626Y-116537810D02*
X163377626Y-116498082D01*
X163377626Y-116498082D02*
X163942329Y-115833598D01*
X163942329Y-115833598D02*
X164167151Y-115608776D01*
X161190316Y-114976401D02*
X161540316Y-114976401D01*
X161540316Y-114976401D02*
X163377626Y-116537810D01*
X164167151Y-115608776D02*
X164455989Y-115504240D01*
X164455989Y-115504240D02*
X165041329Y-115321633D01*
X164112665Y-115162471D02*
X164285373Y-114959245D01*
X163412046Y-115986888D02*
X164112665Y-115162471D01*
X163314646Y-116084288D02*
X163412046Y-115986888D01*
X161540316Y-114576401D02*
X163314646Y-116084288D01*
X161190316Y-114576401D02*
X161540316Y-114576401D01*
X161190316Y-114176401D02*
X161540316Y-114176401D01*
X161540316Y-114176401D02*
X163036394Y-115447819D01*
X163036394Y-115447819D02*
X163825920Y-114518785D01*
X163825920Y-114518785D02*
X164114757Y-114414250D01*
X164114757Y-114414250D02*
X164700097Y-114231642D01*
X161190316Y-113776401D02*
X161540316Y-113776401D01*
X161540316Y-113776401D02*
X162981908Y-115001515D01*
X162981908Y-115001515D02*
X163771433Y-114072481D01*
X163771433Y-114072481D02*
X163944142Y-113869254D01*
X161190316Y-113376401D02*
X161540316Y-113376401D01*
X161540316Y-113376401D02*
X162695162Y-114357829D01*
X162695162Y-114357829D02*
X163484688Y-113428795D01*
X163484688Y-113428795D02*
X163773526Y-113324259D01*
X163773526Y-113324259D02*
X164358866Y-113141651D01*
X161190316Y-112976401D02*
X161540316Y-112976401D01*
X161540316Y-112976401D02*
X162640676Y-113911524D01*
X162640676Y-113911524D02*
X163430201Y-112982490D01*
X163430201Y-112982490D02*
X163602910Y-112779264D01*
X161190316Y-110976401D02*
X161540316Y-110976401D01*
X161540316Y-110976401D02*
X163143456Y-112338804D01*
X163143456Y-112338804D02*
X163432294Y-112234268D01*
X163432294Y-112234268D02*
X164017634Y-112051661D01*
X161190316Y-110576401D02*
X161540316Y-110576401D01*
X161540316Y-110576401D02*
X163088969Y-111892499D01*
X163088969Y-111892499D02*
X163261678Y-111689273D01*
X161190316Y-110176401D02*
X161540316Y-110176401D01*
X161540316Y-110176401D02*
X162802224Y-111248813D01*
X162802224Y-111248813D02*
X163091062Y-111144278D01*
X163091062Y-111144278D02*
X163676402Y-110961670D01*
X161190316Y-109776401D02*
X161540316Y-109776401D01*
X161540316Y-109776401D02*
X162747737Y-110802509D01*
X162747737Y-110802509D02*
X162920446Y-110599282D01*
X161190316Y-106224000D02*
X161540316Y-106224000D01*
X161540316Y-106224000D02*
X162747737Y-105197892D01*
X162747737Y-105197892D02*
X162920446Y-105401118D01*
X161190316Y-105824000D02*
X161540316Y-105824000D01*
X161540316Y-105824000D02*
X162802224Y-104751587D01*
X162802224Y-104751587D02*
X163091062Y-104856123D01*
X163091062Y-104856123D02*
X163676402Y-105038731D01*
X161190316Y-105424000D02*
X161540316Y-105424000D01*
X161540316Y-105424000D02*
X163088969Y-104107901D01*
X163088969Y-104107901D02*
X163261678Y-104311128D01*
X161190316Y-105024000D02*
X161540316Y-105024000D01*
X161540316Y-105024000D02*
X163143456Y-103661597D01*
X163143456Y-103661597D02*
X163432294Y-103766132D01*
X163432294Y-103766132D02*
X164017634Y-103948740D01*
X161190316Y-104624000D02*
X161540316Y-104624000D01*
X161540316Y-104624000D02*
X163430201Y-103017911D01*
X163430201Y-103017911D02*
X163602910Y-103221137D01*
X161190316Y-104224000D02*
X161540316Y-104224000D01*
X161540316Y-104224000D02*
X163484688Y-102571606D01*
X163484688Y-102571606D02*
X163773526Y-102676142D01*
X163773526Y-102676142D02*
X164358866Y-102858749D01*
X161190316Y-103824000D02*
X161540316Y-103824000D01*
X161540316Y-103824000D02*
X163771433Y-101927920D01*
X163771433Y-101927920D02*
X163944142Y-102131146D01*
X161190316Y-103424000D02*
X161540316Y-103424000D01*
X161540316Y-103424000D02*
X163825920Y-101481616D01*
X163825920Y-101481616D02*
X164114757Y-101586151D01*
X164114757Y-101586151D02*
X164700097Y-101768759D01*
X161190316Y-103024000D02*
X161540316Y-103024000D01*
X161540316Y-103024000D02*
X164112665Y-100837930D01*
X164112665Y-100837930D02*
X164285373Y-101041156D01*
X161190316Y-102624000D02*
X161540316Y-102624000D01*
X161540316Y-102624000D02*
X164167151Y-100391625D01*
X164167151Y-100391625D02*
X164455989Y-100496161D01*
X164455989Y-100496161D02*
X165041329Y-100678768D01*
X161190316Y-102224000D02*
X161540316Y-102224000D01*
X161540316Y-102224000D02*
X164453897Y-99747939D01*
X164453897Y-99747939D02*
X164626605Y-99951165D01*
X161190316Y-101824000D02*
X161540316Y-101824000D01*
X161540316Y-101824000D02*
X163788332Y-99913558D01*
X163788332Y-99913558D02*
X163731753Y-99611642D01*
X163731753Y-99611642D02*
X163642567Y-99005000D01*
X161190316Y-101424000D02*
X161540316Y-101424000D01*
X161540316Y-101424000D02*
X163339083Y-99895346D01*
X163339083Y-99895346D02*
X163166374Y-99692120D01*
X161190316Y-101024000D02*
X161540316Y-101024000D01*
X161540316Y-101024000D02*
X162657575Y-100074515D01*
X162657575Y-100074515D02*
X162600996Y-99772598D01*
X162600996Y-99772598D02*
X162511810Y-99165956D01*
X161190316Y-100624000D02*
X161540316Y-100624000D01*
X161540316Y-100624000D02*
X162208326Y-100056303D01*
X162208326Y-100056303D02*
X162035617Y-99853076D01*
X158110316Y-100624000D02*
X157760316Y-100624000D01*
X157760316Y-100624000D02*
X157092307Y-100056303D01*
X157092307Y-100056303D02*
X157265015Y-99853076D01*
X158110316Y-101024000D02*
X157760316Y-101024000D01*
X157760316Y-101024000D02*
X156643057Y-100074515D01*
X156643057Y-100074515D02*
X156699637Y-99772598D01*
X156699637Y-99772598D02*
X156788823Y-99165956D01*
X158110316Y-101424000D02*
X157760316Y-101424000D01*
X157760316Y-101424000D02*
X155961549Y-99895346D01*
X155961549Y-99895346D02*
X156134258Y-99692120D01*
X156900000Y-123730000D02*
X156470000Y-123730000D01*
X156470000Y-123730000D02*
X156330000Y-123590000D01*
X153010000Y-113030000D02*
X153010000Y-123340000D01*
X153010000Y-123340000D02*
X153470000Y-123800000D01*
X153000000Y-100690000D02*
X153000000Y-110420000D01*
X153000000Y-110420000D02*
X152990000Y-110430000D01*
X154422899Y-99267101D02*
X153000000Y-100690000D01*
X154080000Y-98370000D02*
X154422899Y-98712899D01*
X154422899Y-98712899D02*
X154422899Y-99267101D01*
X153287101Y-99472899D02*
X153630000Y-99130000D01*
X143022280Y-109737720D02*
X153287101Y-99472899D01*
X133980000Y-109737720D02*
X143022280Y-109737720D01*
X134250000Y-116280000D02*
X134250000Y-110007720D01*
X134250000Y-110007720D02*
X133980000Y-109737720D01*
X158110316Y-101824000D02*
X157760316Y-101824000D01*
X157760316Y-101824000D02*
X155528244Y-99927108D01*
X155528244Y-99927108D02*
X155133481Y-100391625D01*
X155133481Y-100391625D02*
X154844643Y-100496161D01*
X154844643Y-100496161D02*
X154259303Y-100678768D01*
X158110316Y-102224000D02*
X157760316Y-102224000D01*
X157760316Y-102224000D02*
X155582730Y-100373413D01*
X155582730Y-100373413D02*
X155187968Y-100837930D01*
X155187968Y-100837930D02*
X155015259Y-101041156D01*
X158110316Y-102624000D02*
X157760316Y-102624000D01*
X157760316Y-102624000D02*
X155869476Y-101017099D01*
X155869476Y-101017099D02*
X155474713Y-101481616D01*
X155474713Y-101481616D02*
X155185875Y-101586151D01*
X155185875Y-101586151D02*
X154600535Y-101768759D01*
X158110316Y-103024000D02*
X157760316Y-103024000D01*
X157760316Y-103024000D02*
X155923962Y-101463403D01*
X155923962Y-101463403D02*
X155529200Y-101927920D01*
X155529200Y-101927920D02*
X155356491Y-102131146D01*
X158110316Y-106624000D02*
X157760316Y-106624000D01*
X157760316Y-106624000D02*
X156839640Y-105841578D01*
X156839640Y-105841578D02*
X156550802Y-105946114D01*
X156550802Y-105946114D02*
X155965462Y-106128721D01*
X158110316Y-107024000D02*
X157760316Y-107024000D01*
X157760316Y-107024000D02*
X156894127Y-106287883D01*
X156894127Y-106287883D02*
X156721418Y-106491109D01*
X158110316Y-109776401D02*
X157760316Y-109776401D01*
X157760316Y-109776401D02*
X156552895Y-110802509D01*
X156552895Y-110802509D02*
X156380187Y-110599282D01*
X158110316Y-110176401D02*
X157760316Y-110176401D01*
X157760316Y-110176401D02*
X156498409Y-111248813D01*
X156498409Y-111248813D02*
X156209571Y-111144278D01*
X156209571Y-111144278D02*
X155624231Y-110961670D01*
X158110316Y-110576401D02*
X157760316Y-110576401D01*
X157760316Y-110576401D02*
X156211663Y-111892499D01*
X156211663Y-111892499D02*
X156038955Y-111689273D01*
X158110316Y-110976401D02*
X157760316Y-110976401D01*
X157760316Y-110976401D02*
X156157177Y-112338804D01*
X156157177Y-112338804D02*
X155868339Y-112234268D01*
X155868339Y-112234268D02*
X155282999Y-112051661D01*
X158110316Y-111376401D02*
X157760316Y-111376401D01*
X157760316Y-111376401D02*
X155870431Y-112982490D01*
X155870431Y-112982490D02*
X155697723Y-112779264D01*
X158110316Y-111776401D02*
X157760316Y-111776401D01*
X157760316Y-111776401D02*
X155815945Y-113428795D01*
X155815945Y-113428795D02*
X155527107Y-113324259D01*
X155527107Y-113324259D02*
X154941767Y-113141651D01*
X158110316Y-112176401D02*
X157760316Y-112176401D01*
X157760316Y-112176401D02*
X155529200Y-114072481D01*
X155529200Y-114072481D02*
X155356491Y-113869254D01*
X158110316Y-112576401D02*
X157760316Y-112576401D01*
X157760316Y-112576401D02*
X155474713Y-114518785D01*
X155474713Y-114518785D02*
X155185875Y-114414250D01*
X155185875Y-114414250D02*
X154600535Y-114231642D01*
X158110316Y-112976401D02*
X157760316Y-112976401D01*
X157760316Y-112976401D02*
X155187968Y-115162471D01*
X155187968Y-115162471D02*
X155015259Y-114959245D01*
X158110316Y-113376401D02*
X157760316Y-113376401D01*
X157760316Y-113376401D02*
X155133481Y-115608776D01*
X155133481Y-115608776D02*
X154844643Y-115504240D01*
X154844643Y-115504240D02*
X154259303Y-115321633D01*
X158110316Y-113776401D02*
X157760316Y-113776401D01*
X157760316Y-113776401D02*
X154846736Y-116252462D01*
X154846736Y-116252462D02*
X154674027Y-116049236D01*
X158110316Y-114176401D02*
X157760316Y-114176401D01*
X157760316Y-114176401D02*
X155512300Y-116086842D01*
X155512300Y-116086842D02*
X155568880Y-116388759D01*
X155568880Y-116388759D02*
X155658066Y-116995401D01*
X158110316Y-114576401D02*
X157760316Y-114576401D01*
X157760316Y-114576401D02*
X155961549Y-116105055D01*
X155961549Y-116105055D02*
X156134258Y-116308281D01*
X158110316Y-114976401D02*
X157760316Y-114976401D01*
X157760316Y-114976401D02*
X156643057Y-115925886D01*
X156643057Y-115925886D02*
X156699637Y-116227803D01*
X156699637Y-116227803D02*
X156788823Y-116834445D01*
X158110316Y-115376401D02*
X157760316Y-115376401D01*
X157760316Y-115376401D02*
X157092307Y-115944098D01*
X157092307Y-115944098D02*
X157265015Y-116147324D01*
M02*
