G04 #@! TF.FileFunction,Copper,L2,Bot,Signal*
%FSLAX46Y46*%
G04 Gerber Fmt 4.6, Leading zero omitted, Abs format (unit mm)*
G04 Created by KiCad (PCBNEW (2015-11-03 BZR 6296)-product) date Monday, December 21, 2015 'AMt' 10:05:28 AM*
%MOMM*%
G01*
G04 APERTURE LIST*
%ADD10C,0.100000*%
%ADD11C,0.010000*%
%ADD12R,0.660000X0.230000*%
%ADD13R,0.660000X0.350000*%
%ADD14R,1.200000X0.750000*%
%ADD15R,0.750000X0.300000*%
%ADD16R,0.875000X0.725000*%
%ADD17R,1.200000X0.900000*%
%ADD18C,1.524000*%
%ADD19R,0.750000X1.200000*%
%ADD20R,2.032000X2.032000*%
%ADD21O,2.032000X2.032000*%
%ADD22R,1.060000X0.650000*%
%ADD23C,0.685800*%
%ADD24C,0.685801*%
%ADD25C,0.152400*%
%ADD26C,0.203200*%
%ADD27C,0.254000*%
G04 APERTURE END LIST*
D10*
D11*
G36*
X142940577Y-122465069D02*
X142908906Y-122465572D01*
X142881275Y-122466621D01*
X142856176Y-122468340D01*
X142832107Y-122470851D01*
X142807561Y-122474276D01*
X142781033Y-122478740D01*
X142759069Y-122482815D01*
X142700214Y-122495578D01*
X142639117Y-122511645D01*
X142578664Y-122530182D01*
X142521740Y-122550354D01*
X142510361Y-122554777D01*
X142467183Y-122571970D01*
X142424808Y-122589108D01*
X142382850Y-122606370D01*
X142340920Y-122623937D01*
X142298631Y-122641989D01*
X142255596Y-122660707D01*
X142211427Y-122680271D01*
X142165735Y-122700862D01*
X142118134Y-122722659D01*
X142068236Y-122745844D01*
X142015653Y-122770597D01*
X141959997Y-122797099D01*
X141900882Y-122825528D01*
X141837918Y-122856067D01*
X141770720Y-122888896D01*
X141698898Y-122924194D01*
X141622065Y-122962143D01*
X141539834Y-123002923D01*
X141451817Y-123046714D01*
X141429097Y-123058037D01*
X141350817Y-123096981D01*
X141278298Y-123132880D01*
X141211051Y-123165961D01*
X141148585Y-123196448D01*
X141090411Y-123224567D01*
X141036038Y-123250545D01*
X140984976Y-123274606D01*
X140936735Y-123296978D01*
X140890825Y-123317885D01*
X140846756Y-123337553D01*
X140804038Y-123356208D01*
X140762181Y-123374076D01*
X140720694Y-123391382D01*
X140679088Y-123408353D01*
X140636872Y-123425213D01*
X140603597Y-123438281D01*
X140580074Y-123447518D01*
X140558681Y-123456037D01*
X140540312Y-123463473D01*
X140525857Y-123469460D01*
X140516209Y-123473635D01*
X140512268Y-123475624D01*
X140512801Y-123479719D01*
X140518013Y-123487737D01*
X140527261Y-123498968D01*
X140539900Y-123512704D01*
X140555288Y-123528236D01*
X140572781Y-123544855D01*
X140585822Y-123556657D01*
X140653801Y-123612758D01*
X140728236Y-123666253D01*
X140809006Y-123717086D01*
X140895989Y-123765200D01*
X140989062Y-123810538D01*
X141088103Y-123853043D01*
X141192991Y-123892658D01*
X141303602Y-123929327D01*
X141419815Y-123962992D01*
X141506708Y-123985296D01*
X141607303Y-124008538D01*
X141702291Y-124027867D01*
X141791919Y-124043303D01*
X141876439Y-124054868D01*
X141956099Y-124062580D01*
X142031149Y-124066462D01*
X142101837Y-124066535D01*
X142168413Y-124062818D01*
X142231126Y-124055332D01*
X142268918Y-124048660D01*
X142329550Y-124033748D01*
X142384906Y-124014367D01*
X142434914Y-123990590D01*
X142479501Y-123962491D01*
X142518596Y-123930142D01*
X142552127Y-123893617D01*
X142580021Y-123852988D01*
X142602205Y-123808329D01*
X142618608Y-123759713D01*
X142629158Y-123707214D01*
X142632097Y-123680940D01*
X142632915Y-123669833D01*
X142633851Y-123661698D01*
X142635889Y-123655994D01*
X142640009Y-123652178D01*
X142647194Y-123649710D01*
X142658425Y-123648046D01*
X142674685Y-123646646D01*
X142696955Y-123644967D01*
X142697333Y-123644937D01*
X142724885Y-123642710D01*
X142746056Y-123640816D01*
X142761509Y-123639166D01*
X142771906Y-123637673D01*
X142777910Y-123636249D01*
X142780183Y-123634807D01*
X142780082Y-123633974D01*
X142782027Y-123632665D01*
X142788861Y-123632440D01*
X142798532Y-123633114D01*
X142808990Y-123634497D01*
X142818183Y-123636403D01*
X142822569Y-123637859D01*
X142828077Y-123639376D01*
X142839384Y-123641836D01*
X142855331Y-123645008D01*
X142874759Y-123648665D01*
X142896511Y-123652578D01*
X142901944Y-123653529D01*
X142983430Y-123667036D01*
X143060846Y-123678409D01*
X143136734Y-123687987D01*
X143213633Y-123696109D01*
X143237083Y-123698294D01*
X143259513Y-123699888D01*
X143286719Y-123701121D01*
X143317348Y-123701993D01*
X143350049Y-123702504D01*
X143383471Y-123702652D01*
X143416262Y-123702438D01*
X143447070Y-123701861D01*
X143474545Y-123700920D01*
X143497334Y-123699615D01*
X143510486Y-123698402D01*
X143583314Y-123688747D01*
X143654171Y-123676860D01*
X143724932Y-123662349D01*
X143797473Y-123644822D01*
X143873669Y-123623890D01*
X143889143Y-123619368D01*
X143911757Y-123612575D01*
X143928423Y-123607222D01*
X143940018Y-123602959D01*
X143947422Y-123599438D01*
X143951510Y-123596309D01*
X143952943Y-123593968D01*
X143953909Y-123588855D01*
X143955491Y-123577561D01*
X143957590Y-123560925D01*
X143960105Y-123539783D01*
X143962937Y-123514975D01*
X143965987Y-123487338D01*
X143969082Y-123458392D01*
X143972679Y-123424399D01*
X143975565Y-123396757D01*
X143977688Y-123374791D01*
X143978999Y-123357830D01*
X143979447Y-123345198D01*
X143978982Y-123336223D01*
X143977553Y-123330230D01*
X143975110Y-123326547D01*
X143971603Y-123324499D01*
X143966982Y-123323413D01*
X143961195Y-123322615D01*
X143958909Y-123322283D01*
X143947663Y-123320254D01*
X143930611Y-123316797D01*
X143908807Y-123312151D01*
X143883300Y-123306555D01*
X143855142Y-123300249D01*
X143825385Y-123293471D01*
X143795079Y-123286461D01*
X143765275Y-123279457D01*
X143737025Y-123272700D01*
X143711380Y-123266427D01*
X143692167Y-123261593D01*
X143589538Y-123234234D01*
X143493547Y-123206397D01*
X143403787Y-123177945D01*
X143319847Y-123148742D01*
X143241320Y-123118650D01*
X143167797Y-123087534D01*
X143155944Y-123082213D01*
X143085270Y-123047760D01*
X143013300Y-123008022D01*
X142941754Y-122964092D01*
X142872352Y-122917066D01*
X142806810Y-122868037D01*
X142762597Y-122831786D01*
X142744935Y-122816423D01*
X142726602Y-122800012D01*
X142708316Y-122783244D01*
X142690794Y-122766810D01*
X142674751Y-122751401D01*
X142660905Y-122737709D01*
X142649973Y-122726424D01*
X142642671Y-122718238D01*
X142639717Y-122713841D01*
X142639781Y-122713368D01*
X142645886Y-122710119D01*
X142657863Y-122705797D01*
X142674653Y-122700663D01*
X142695199Y-122694980D01*
X142718444Y-122689011D01*
X142743330Y-122683019D01*
X142768801Y-122677265D01*
X142793799Y-122672013D01*
X142817268Y-122667526D01*
X142838148Y-122664065D01*
X142838444Y-122664021D01*
X142893487Y-122657477D01*
X142947821Y-122654423D01*
X143002961Y-122654893D01*
X143060419Y-122658923D01*
X143121711Y-122666548D01*
X143151539Y-122671261D01*
X143244796Y-122689850D01*
X143334229Y-122713707D01*
X143419623Y-122742725D01*
X143500766Y-122776797D01*
X143577443Y-122815818D01*
X143649442Y-122859681D01*
X143716549Y-122908280D01*
X143778551Y-122961509D01*
X143822051Y-123004915D01*
X143864426Y-123053556D01*
X143902464Y-123104333D01*
X143935507Y-123156230D01*
X143962895Y-123208230D01*
X143980344Y-123249355D01*
X143985320Y-123261769D01*
X143989944Y-123271937D01*
X143993211Y-123277652D01*
X143996468Y-123280958D01*
X144004369Y-123288670D01*
X144016439Y-123300334D01*
X144032207Y-123315496D01*
X144051199Y-123333704D01*
X144072943Y-123354504D01*
X144096966Y-123377442D01*
X144122795Y-123402065D01*
X144141958Y-123420309D01*
X144168659Y-123445737D01*
X144193792Y-123469712D01*
X144216896Y-123491794D01*
X144237514Y-123511540D01*
X144255187Y-123528513D01*
X144269455Y-123542270D01*
X144279861Y-123552371D01*
X144285945Y-123558376D01*
X144287393Y-123559922D01*
X144284428Y-123561699D01*
X144275616Y-123566052D01*
X144261564Y-123572701D01*
X144242877Y-123581368D01*
X144220164Y-123591773D01*
X144194028Y-123603637D01*
X144165077Y-123616683D01*
X144133917Y-123630630D01*
X144126532Y-123633923D01*
X143964874Y-123705942D01*
X143948019Y-123766214D01*
X143939906Y-123794199D01*
X143930059Y-123826534D01*
X143919084Y-123861347D01*
X143907589Y-123896762D01*
X143896183Y-123930907D01*
X143885473Y-123961907D01*
X143876489Y-123986757D01*
X143871041Y-124000443D01*
X143866521Y-124008917D01*
X143861864Y-124013733D01*
X143856170Y-124016392D01*
X143848868Y-124017558D01*
X143835547Y-124018496D01*
X143817240Y-124019209D01*
X143794980Y-124019697D01*
X143769799Y-124019965D01*
X143742731Y-124020013D01*
X143714808Y-124019845D01*
X143687063Y-124019461D01*
X143660528Y-124018866D01*
X143636237Y-124018060D01*
X143615223Y-124017046D01*
X143598681Y-124015841D01*
X143435739Y-123998212D01*
X143335861Y-123984838D01*
X143293141Y-123978400D01*
X143256322Y-123972100D01*
X143224266Y-123965624D01*
X143195833Y-123958661D01*
X143169884Y-123950899D01*
X143145279Y-123942025D01*
X143120878Y-123931727D01*
X143095543Y-123919694D01*
X143092444Y-123918147D01*
X143036885Y-123886813D01*
X142982336Y-123849211D01*
X142929767Y-123806128D01*
X142880148Y-123758353D01*
X142839686Y-123713042D01*
X142821653Y-123691319D01*
X142819252Y-123716569D01*
X142812225Y-123763991D01*
X142800319Y-123813168D01*
X142784198Y-123862224D01*
X142764523Y-123909282D01*
X142741958Y-123952463D01*
X142728281Y-123974289D01*
X142690660Y-124024006D01*
X142647859Y-124069003D01*
X142599963Y-124109251D01*
X142547063Y-124144723D01*
X142489243Y-124175389D01*
X142426594Y-124201223D01*
X142359201Y-124222197D01*
X142287152Y-124238282D01*
X142210535Y-124249451D01*
X142129438Y-124255676D01*
X142043947Y-124256929D01*
X141954152Y-124253182D01*
X141875361Y-124246139D01*
X141802218Y-124236822D01*
X141724125Y-124224509D01*
X141642379Y-124209481D01*
X141558276Y-124192024D01*
X141473113Y-124172418D01*
X141388187Y-124150949D01*
X141304795Y-124127899D01*
X141228014Y-124104745D01*
X141130540Y-124072112D01*
X141036214Y-124036670D01*
X140945387Y-123998629D01*
X140858408Y-123958203D01*
X140775628Y-123915600D01*
X140697396Y-123871034D01*
X140624063Y-123824714D01*
X140555979Y-123776853D01*
X140493494Y-123727661D01*
X140436959Y-123677350D01*
X140386722Y-123626131D01*
X140343135Y-123574215D01*
X140338484Y-123568103D01*
X140328868Y-123555676D01*
X140322108Y-123548104D01*
X140317071Y-123544422D01*
X140312623Y-123543664D01*
X140310274Y-123544079D01*
X140290837Y-123548388D01*
X140265760Y-123553070D01*
X140236432Y-123557922D01*
X140204243Y-123562737D01*
X140170585Y-123567313D01*
X140136848Y-123571443D01*
X140104422Y-123574923D01*
X140093833Y-123575932D01*
X140062095Y-123578462D01*
X140030112Y-123580184D01*
X139997209Y-123581067D01*
X139962710Y-123581080D01*
X139925940Y-123580194D01*
X139886225Y-123578377D01*
X139842887Y-123575599D01*
X139795254Y-123571829D01*
X139742648Y-123567037D01*
X139684395Y-123561192D01*
X139622875Y-123554600D01*
X139533835Y-123544237D01*
X139438361Y-123532018D01*
X139336807Y-123518007D01*
X139229531Y-123502269D01*
X139116885Y-123484868D01*
X138999226Y-123465867D01*
X138876909Y-123445332D01*
X138750288Y-123423326D01*
X138619720Y-123399914D01*
X138485559Y-123375160D01*
X138348160Y-123349128D01*
X138207879Y-123321882D01*
X138065070Y-123293486D01*
X137920089Y-123264006D01*
X137773291Y-123233505D01*
X137625031Y-123202046D01*
X137475665Y-123169696D01*
X137388028Y-123150408D01*
X137343534Y-123140554D01*
X137305316Y-123132267D01*
X137272742Y-123125680D01*
X137245177Y-123120928D01*
X137221989Y-123118146D01*
X137202545Y-123117468D01*
X137186212Y-123119028D01*
X137172358Y-123122962D01*
X137160348Y-123129404D01*
X137149551Y-123138488D01*
X137139333Y-123150348D01*
X137129062Y-123165120D01*
X137118104Y-123182938D01*
X137105826Y-123203936D01*
X137101547Y-123211295D01*
X137064278Y-123277072D01*
X137029346Y-123342322D01*
X136997145Y-123406214D01*
X136968071Y-123467915D01*
X136942519Y-123526594D01*
X136920883Y-123581419D01*
X136907018Y-123620859D01*
X136891558Y-123673272D01*
X136880842Y-123722184D01*
X136874842Y-123767367D01*
X136873531Y-123808594D01*
X136876881Y-123845635D01*
X136884866Y-123878262D01*
X136897457Y-123906247D01*
X136914628Y-123929362D01*
X136936351Y-123947378D01*
X136946876Y-123953395D01*
X136957009Y-123958154D01*
X136968059Y-123962524D01*
X136980385Y-123966533D01*
X136994343Y-123970209D01*
X137010291Y-123973581D01*
X137028587Y-123976677D01*
X137049586Y-123979524D01*
X137073648Y-123982152D01*
X137101128Y-123984587D01*
X137132385Y-123986859D01*
X137167775Y-123988995D01*
X137207657Y-123991023D01*
X137252387Y-123992973D01*
X137302323Y-123994871D01*
X137357822Y-123996746D01*
X137419241Y-123998626D01*
X137486938Y-124000540D01*
X137561269Y-124002515D01*
X137575000Y-124002869D01*
X137697077Y-124006207D01*
X137812656Y-124009786D01*
X137922293Y-124013639D01*
X138026544Y-124017794D01*
X138125963Y-124022284D01*
X138221105Y-124027138D01*
X138312526Y-124032388D01*
X138400781Y-124038064D01*
X138486426Y-124044196D01*
X138570015Y-124050816D01*
X138652103Y-124057954D01*
X138733246Y-124065640D01*
X138760333Y-124068345D01*
X138889033Y-124082177D01*
X139013498Y-124097273D01*
X139134477Y-124113805D01*
X139252719Y-124131941D01*
X139368972Y-124151851D01*
X139483984Y-124173705D01*
X139598504Y-124197671D01*
X139713279Y-124223920D01*
X139829059Y-124252620D01*
X139946592Y-124283942D01*
X140066627Y-124318054D01*
X140189910Y-124355127D01*
X140317192Y-124395329D01*
X140449220Y-124438830D01*
X140554208Y-124474551D01*
X140604068Y-124492059D01*
X140651600Y-124509485D01*
X140697473Y-124527150D01*
X140742357Y-124545374D01*
X140786920Y-124564476D01*
X140831833Y-124584779D01*
X140877765Y-124606601D01*
X140925385Y-124630263D01*
X140975363Y-124656085D01*
X141028367Y-124684388D01*
X141085068Y-124715492D01*
X141146135Y-124749717D01*
X141212237Y-124787384D01*
X141233306Y-124799493D01*
X141291927Y-124833223D01*
X141344898Y-124863651D01*
X141392666Y-124891025D01*
X141435679Y-124915591D01*
X141474384Y-124937596D01*
X141509229Y-124957287D01*
X141540662Y-124974910D01*
X141569130Y-124990714D01*
X141595081Y-125004944D01*
X141618963Y-125017848D01*
X141641223Y-125029672D01*
X141662308Y-125040664D01*
X141682668Y-125051070D01*
X141702748Y-125061138D01*
X141722997Y-125071113D01*
X141743862Y-125081244D01*
X141745694Y-125082128D01*
X141813133Y-125113565D01*
X141876750Y-125140819D01*
X141937918Y-125164282D01*
X141998008Y-125184345D01*
X142058391Y-125201402D01*
X142120440Y-125215844D01*
X142185526Y-125228064D01*
X142255022Y-125238454D01*
X142319861Y-125246279D01*
X142360848Y-125250039D01*
X142406794Y-125252999D01*
X142455642Y-125255105D01*
X142505337Y-125256301D01*
X142553821Y-125256532D01*
X142599038Y-125255744D01*
X142628542Y-125254508D01*
X142708088Y-125247865D01*
X142788544Y-125236743D01*
X142868722Y-125221443D01*
X142947433Y-125202263D01*
X143023489Y-125179501D01*
X143095702Y-125153456D01*
X143162884Y-125124427D01*
X143180992Y-125115625D01*
X143261972Y-125071372D01*
X143341194Y-125020408D01*
X143418518Y-124962893D01*
X143493805Y-124898983D01*
X143566914Y-124828836D01*
X143637705Y-124752610D01*
X143706040Y-124670463D01*
X143771777Y-124582552D01*
X143834778Y-124489036D01*
X143894903Y-124390070D01*
X143952011Y-124285814D01*
X143997103Y-124195201D01*
X144015441Y-124155287D01*
X144033063Y-124113922D01*
X144050474Y-124069814D01*
X144068181Y-124021672D01*
X144086690Y-123968204D01*
X144091035Y-123955250D01*
X144098704Y-123931804D01*
X144106807Y-123906214D01*
X144114992Y-123879673D01*
X144122907Y-123853373D01*
X144130199Y-123828508D01*
X144136515Y-123806269D01*
X144141504Y-123787848D01*
X144144813Y-123774440D01*
X144145622Y-123770558D01*
X144147791Y-123758996D01*
X144352405Y-123676428D01*
X144388385Y-123661883D01*
X144422393Y-123648085D01*
X144453868Y-123635266D01*
X144482252Y-123623654D01*
X144506986Y-123613480D01*
X144527510Y-123604974D01*
X144543266Y-123598367D01*
X144553693Y-123593889D01*
X144558232Y-123591769D01*
X144558381Y-123591656D01*
X144556040Y-123589006D01*
X144548838Y-123582050D01*
X144537188Y-123571163D01*
X144521505Y-123556724D01*
X144502203Y-123539108D01*
X144479696Y-123518694D01*
X144454399Y-123495859D01*
X144426726Y-123470979D01*
X144397091Y-123444432D01*
X144371714Y-123421769D01*
X144335698Y-123389640D01*
X144304584Y-123361846D01*
X144278002Y-123338033D01*
X144255585Y-123317848D01*
X144236962Y-123300935D01*
X144221765Y-123286942D01*
X144209624Y-123275513D01*
X144200170Y-123266294D01*
X144193035Y-123258931D01*
X144187848Y-123253071D01*
X144184241Y-123248358D01*
X144181844Y-123244439D01*
X144180288Y-123240959D01*
X144179205Y-123237565D01*
X144179021Y-123236897D01*
X144172612Y-123216348D01*
X144163510Y-123191398D01*
X144152440Y-123163816D01*
X144140126Y-123135375D01*
X144127295Y-123107843D01*
X144120700Y-123094554D01*
X144088251Y-123036345D01*
X144051023Y-122980220D01*
X144008334Y-122925249D01*
X143959501Y-122870502D01*
X143946358Y-122856849D01*
X143890849Y-122803310D01*
X143833569Y-122754827D01*
X143773315Y-122710531D01*
X143708883Y-122669557D01*
X143639069Y-122631037D01*
X143618083Y-122620420D01*
X143550029Y-122588548D01*
X143482015Y-122560713D01*
X143412813Y-122536541D01*
X143341193Y-122515659D01*
X143265928Y-122497692D01*
X143185788Y-122482268D01*
X143139320Y-122474752D01*
X143119484Y-122471832D01*
X143102156Y-122469566D01*
X143085939Y-122467870D01*
X143069438Y-122466659D01*
X143051258Y-122465848D01*
X143030002Y-122465355D01*
X143004276Y-122465094D01*
X142977792Y-122464991D01*
X142940577Y-122465069D01*
X142940577Y-122465069D01*
G37*
X142940577Y-122465069D02*
X142908906Y-122465572D01*
X142881275Y-122466621D01*
X142856176Y-122468340D01*
X142832107Y-122470851D01*
X142807561Y-122474276D01*
X142781033Y-122478740D01*
X142759069Y-122482815D01*
X142700214Y-122495578D01*
X142639117Y-122511645D01*
X142578664Y-122530182D01*
X142521740Y-122550354D01*
X142510361Y-122554777D01*
X142467183Y-122571970D01*
X142424808Y-122589108D01*
X142382850Y-122606370D01*
X142340920Y-122623937D01*
X142298631Y-122641989D01*
X142255596Y-122660707D01*
X142211427Y-122680271D01*
X142165735Y-122700862D01*
X142118134Y-122722659D01*
X142068236Y-122745844D01*
X142015653Y-122770597D01*
X141959997Y-122797099D01*
X141900882Y-122825528D01*
X141837918Y-122856067D01*
X141770720Y-122888896D01*
X141698898Y-122924194D01*
X141622065Y-122962143D01*
X141539834Y-123002923D01*
X141451817Y-123046714D01*
X141429097Y-123058037D01*
X141350817Y-123096981D01*
X141278298Y-123132880D01*
X141211051Y-123165961D01*
X141148585Y-123196448D01*
X141090411Y-123224567D01*
X141036038Y-123250545D01*
X140984976Y-123274606D01*
X140936735Y-123296978D01*
X140890825Y-123317885D01*
X140846756Y-123337553D01*
X140804038Y-123356208D01*
X140762181Y-123374076D01*
X140720694Y-123391382D01*
X140679088Y-123408353D01*
X140636872Y-123425213D01*
X140603597Y-123438281D01*
X140580074Y-123447518D01*
X140558681Y-123456037D01*
X140540312Y-123463473D01*
X140525857Y-123469460D01*
X140516209Y-123473635D01*
X140512268Y-123475624D01*
X140512801Y-123479719D01*
X140518013Y-123487737D01*
X140527261Y-123498968D01*
X140539900Y-123512704D01*
X140555288Y-123528236D01*
X140572781Y-123544855D01*
X140585822Y-123556657D01*
X140653801Y-123612758D01*
X140728236Y-123666253D01*
X140809006Y-123717086D01*
X140895989Y-123765200D01*
X140989062Y-123810538D01*
X141088103Y-123853043D01*
X141192991Y-123892658D01*
X141303602Y-123929327D01*
X141419815Y-123962992D01*
X141506708Y-123985296D01*
X141607303Y-124008538D01*
X141702291Y-124027867D01*
X141791919Y-124043303D01*
X141876439Y-124054868D01*
X141956099Y-124062580D01*
X142031149Y-124066462D01*
X142101837Y-124066535D01*
X142168413Y-124062818D01*
X142231126Y-124055332D01*
X142268918Y-124048660D01*
X142329550Y-124033748D01*
X142384906Y-124014367D01*
X142434914Y-123990590D01*
X142479501Y-123962491D01*
X142518596Y-123930142D01*
X142552127Y-123893617D01*
X142580021Y-123852988D01*
X142602205Y-123808329D01*
X142618608Y-123759713D01*
X142629158Y-123707214D01*
X142632097Y-123680940D01*
X142632915Y-123669833D01*
X142633851Y-123661698D01*
X142635889Y-123655994D01*
X142640009Y-123652178D01*
X142647194Y-123649710D01*
X142658425Y-123648046D01*
X142674685Y-123646646D01*
X142696955Y-123644967D01*
X142697333Y-123644937D01*
X142724885Y-123642710D01*
X142746056Y-123640816D01*
X142761509Y-123639166D01*
X142771906Y-123637673D01*
X142777910Y-123636249D01*
X142780183Y-123634807D01*
X142780082Y-123633974D01*
X142782027Y-123632665D01*
X142788861Y-123632440D01*
X142798532Y-123633114D01*
X142808990Y-123634497D01*
X142818183Y-123636403D01*
X142822569Y-123637859D01*
X142828077Y-123639376D01*
X142839384Y-123641836D01*
X142855331Y-123645008D01*
X142874759Y-123648665D01*
X142896511Y-123652578D01*
X142901944Y-123653529D01*
X142983430Y-123667036D01*
X143060846Y-123678409D01*
X143136734Y-123687987D01*
X143213633Y-123696109D01*
X143237083Y-123698294D01*
X143259513Y-123699888D01*
X143286719Y-123701121D01*
X143317348Y-123701993D01*
X143350049Y-123702504D01*
X143383471Y-123702652D01*
X143416262Y-123702438D01*
X143447070Y-123701861D01*
X143474545Y-123700920D01*
X143497334Y-123699615D01*
X143510486Y-123698402D01*
X143583314Y-123688747D01*
X143654171Y-123676860D01*
X143724932Y-123662349D01*
X143797473Y-123644822D01*
X143873669Y-123623890D01*
X143889143Y-123619368D01*
X143911757Y-123612575D01*
X143928423Y-123607222D01*
X143940018Y-123602959D01*
X143947422Y-123599438D01*
X143951510Y-123596309D01*
X143952943Y-123593968D01*
X143953909Y-123588855D01*
X143955491Y-123577561D01*
X143957590Y-123560925D01*
X143960105Y-123539783D01*
X143962937Y-123514975D01*
X143965987Y-123487338D01*
X143969082Y-123458392D01*
X143972679Y-123424399D01*
X143975565Y-123396757D01*
X143977688Y-123374791D01*
X143978999Y-123357830D01*
X143979447Y-123345198D01*
X143978982Y-123336223D01*
X143977553Y-123330230D01*
X143975110Y-123326547D01*
X143971603Y-123324499D01*
X143966982Y-123323413D01*
X143961195Y-123322615D01*
X143958909Y-123322283D01*
X143947663Y-123320254D01*
X143930611Y-123316797D01*
X143908807Y-123312151D01*
X143883300Y-123306555D01*
X143855142Y-123300249D01*
X143825385Y-123293471D01*
X143795079Y-123286461D01*
X143765275Y-123279457D01*
X143737025Y-123272700D01*
X143711380Y-123266427D01*
X143692167Y-123261593D01*
X143589538Y-123234234D01*
X143493547Y-123206397D01*
X143403787Y-123177945D01*
X143319847Y-123148742D01*
X143241320Y-123118650D01*
X143167797Y-123087534D01*
X143155944Y-123082213D01*
X143085270Y-123047760D01*
X143013300Y-123008022D01*
X142941754Y-122964092D01*
X142872352Y-122917066D01*
X142806810Y-122868037D01*
X142762597Y-122831786D01*
X142744935Y-122816423D01*
X142726602Y-122800012D01*
X142708316Y-122783244D01*
X142690794Y-122766810D01*
X142674751Y-122751401D01*
X142660905Y-122737709D01*
X142649973Y-122726424D01*
X142642671Y-122718238D01*
X142639717Y-122713841D01*
X142639781Y-122713368D01*
X142645886Y-122710119D01*
X142657863Y-122705797D01*
X142674653Y-122700663D01*
X142695199Y-122694980D01*
X142718444Y-122689011D01*
X142743330Y-122683019D01*
X142768801Y-122677265D01*
X142793799Y-122672013D01*
X142817268Y-122667526D01*
X142838148Y-122664065D01*
X142838444Y-122664021D01*
X142893487Y-122657477D01*
X142947821Y-122654423D01*
X143002961Y-122654893D01*
X143060419Y-122658923D01*
X143121711Y-122666548D01*
X143151539Y-122671261D01*
X143244796Y-122689850D01*
X143334229Y-122713707D01*
X143419623Y-122742725D01*
X143500766Y-122776797D01*
X143577443Y-122815818D01*
X143649442Y-122859681D01*
X143716549Y-122908280D01*
X143778551Y-122961509D01*
X143822051Y-123004915D01*
X143864426Y-123053556D01*
X143902464Y-123104333D01*
X143935507Y-123156230D01*
X143962895Y-123208230D01*
X143980344Y-123249355D01*
X143985320Y-123261769D01*
X143989944Y-123271937D01*
X143993211Y-123277652D01*
X143996468Y-123280958D01*
X144004369Y-123288670D01*
X144016439Y-123300334D01*
X144032207Y-123315496D01*
X144051199Y-123333704D01*
X144072943Y-123354504D01*
X144096966Y-123377442D01*
X144122795Y-123402065D01*
X144141958Y-123420309D01*
X144168659Y-123445737D01*
X144193792Y-123469712D01*
X144216896Y-123491794D01*
X144237514Y-123511540D01*
X144255187Y-123528513D01*
X144269455Y-123542270D01*
X144279861Y-123552371D01*
X144285945Y-123558376D01*
X144287393Y-123559922D01*
X144284428Y-123561699D01*
X144275616Y-123566052D01*
X144261564Y-123572701D01*
X144242877Y-123581368D01*
X144220164Y-123591773D01*
X144194028Y-123603637D01*
X144165077Y-123616683D01*
X144133917Y-123630630D01*
X144126532Y-123633923D01*
X143964874Y-123705942D01*
X143948019Y-123766214D01*
X143939906Y-123794199D01*
X143930059Y-123826534D01*
X143919084Y-123861347D01*
X143907589Y-123896762D01*
X143896183Y-123930907D01*
X143885473Y-123961907D01*
X143876489Y-123986757D01*
X143871041Y-124000443D01*
X143866521Y-124008917D01*
X143861864Y-124013733D01*
X143856170Y-124016392D01*
X143848868Y-124017558D01*
X143835547Y-124018496D01*
X143817240Y-124019209D01*
X143794980Y-124019697D01*
X143769799Y-124019965D01*
X143742731Y-124020013D01*
X143714808Y-124019845D01*
X143687063Y-124019461D01*
X143660528Y-124018866D01*
X143636237Y-124018060D01*
X143615223Y-124017046D01*
X143598681Y-124015841D01*
X143435739Y-123998212D01*
X143335861Y-123984838D01*
X143293141Y-123978400D01*
X143256322Y-123972100D01*
X143224266Y-123965624D01*
X143195833Y-123958661D01*
X143169884Y-123950899D01*
X143145279Y-123942025D01*
X143120878Y-123931727D01*
X143095543Y-123919694D01*
X143092444Y-123918147D01*
X143036885Y-123886813D01*
X142982336Y-123849211D01*
X142929767Y-123806128D01*
X142880148Y-123758353D01*
X142839686Y-123713042D01*
X142821653Y-123691319D01*
X142819252Y-123716569D01*
X142812225Y-123763991D01*
X142800319Y-123813168D01*
X142784198Y-123862224D01*
X142764523Y-123909282D01*
X142741958Y-123952463D01*
X142728281Y-123974289D01*
X142690660Y-124024006D01*
X142647859Y-124069003D01*
X142599963Y-124109251D01*
X142547063Y-124144723D01*
X142489243Y-124175389D01*
X142426594Y-124201223D01*
X142359201Y-124222197D01*
X142287152Y-124238282D01*
X142210535Y-124249451D01*
X142129438Y-124255676D01*
X142043947Y-124256929D01*
X141954152Y-124253182D01*
X141875361Y-124246139D01*
X141802218Y-124236822D01*
X141724125Y-124224509D01*
X141642379Y-124209481D01*
X141558276Y-124192024D01*
X141473113Y-124172418D01*
X141388187Y-124150949D01*
X141304795Y-124127899D01*
X141228014Y-124104745D01*
X141130540Y-124072112D01*
X141036214Y-124036670D01*
X140945387Y-123998629D01*
X140858408Y-123958203D01*
X140775628Y-123915600D01*
X140697396Y-123871034D01*
X140624063Y-123824714D01*
X140555979Y-123776853D01*
X140493494Y-123727661D01*
X140436959Y-123677350D01*
X140386722Y-123626131D01*
X140343135Y-123574215D01*
X140338484Y-123568103D01*
X140328868Y-123555676D01*
X140322108Y-123548104D01*
X140317071Y-123544422D01*
X140312623Y-123543664D01*
X140310274Y-123544079D01*
X140290837Y-123548388D01*
X140265760Y-123553070D01*
X140236432Y-123557922D01*
X140204243Y-123562737D01*
X140170585Y-123567313D01*
X140136848Y-123571443D01*
X140104422Y-123574923D01*
X140093833Y-123575932D01*
X140062095Y-123578462D01*
X140030112Y-123580184D01*
X139997209Y-123581067D01*
X139962710Y-123581080D01*
X139925940Y-123580194D01*
X139886225Y-123578377D01*
X139842887Y-123575599D01*
X139795254Y-123571829D01*
X139742648Y-123567037D01*
X139684395Y-123561192D01*
X139622875Y-123554600D01*
X139533835Y-123544237D01*
X139438361Y-123532018D01*
X139336807Y-123518007D01*
X139229531Y-123502269D01*
X139116885Y-123484868D01*
X138999226Y-123465867D01*
X138876909Y-123445332D01*
X138750288Y-123423326D01*
X138619720Y-123399914D01*
X138485559Y-123375160D01*
X138348160Y-123349128D01*
X138207879Y-123321882D01*
X138065070Y-123293486D01*
X137920089Y-123264006D01*
X137773291Y-123233505D01*
X137625031Y-123202046D01*
X137475665Y-123169696D01*
X137388028Y-123150408D01*
X137343534Y-123140554D01*
X137305316Y-123132267D01*
X137272742Y-123125680D01*
X137245177Y-123120928D01*
X137221989Y-123118146D01*
X137202545Y-123117468D01*
X137186212Y-123119028D01*
X137172358Y-123122962D01*
X137160348Y-123129404D01*
X137149551Y-123138488D01*
X137139333Y-123150348D01*
X137129062Y-123165120D01*
X137118104Y-123182938D01*
X137105826Y-123203936D01*
X137101547Y-123211295D01*
X137064278Y-123277072D01*
X137029346Y-123342322D01*
X136997145Y-123406214D01*
X136968071Y-123467915D01*
X136942519Y-123526594D01*
X136920883Y-123581419D01*
X136907018Y-123620859D01*
X136891558Y-123673272D01*
X136880842Y-123722184D01*
X136874842Y-123767367D01*
X136873531Y-123808594D01*
X136876881Y-123845635D01*
X136884866Y-123878262D01*
X136897457Y-123906247D01*
X136914628Y-123929362D01*
X136936351Y-123947378D01*
X136946876Y-123953395D01*
X136957009Y-123958154D01*
X136968059Y-123962524D01*
X136980385Y-123966533D01*
X136994343Y-123970209D01*
X137010291Y-123973581D01*
X137028587Y-123976677D01*
X137049586Y-123979524D01*
X137073648Y-123982152D01*
X137101128Y-123984587D01*
X137132385Y-123986859D01*
X137167775Y-123988995D01*
X137207657Y-123991023D01*
X137252387Y-123992973D01*
X137302323Y-123994871D01*
X137357822Y-123996746D01*
X137419241Y-123998626D01*
X137486938Y-124000540D01*
X137561269Y-124002515D01*
X137575000Y-124002869D01*
X137697077Y-124006207D01*
X137812656Y-124009786D01*
X137922293Y-124013639D01*
X138026544Y-124017794D01*
X138125963Y-124022284D01*
X138221105Y-124027138D01*
X138312526Y-124032388D01*
X138400781Y-124038064D01*
X138486426Y-124044196D01*
X138570015Y-124050816D01*
X138652103Y-124057954D01*
X138733246Y-124065640D01*
X138760333Y-124068345D01*
X138889033Y-124082177D01*
X139013498Y-124097273D01*
X139134477Y-124113805D01*
X139252719Y-124131941D01*
X139368972Y-124151851D01*
X139483984Y-124173705D01*
X139598504Y-124197671D01*
X139713279Y-124223920D01*
X139829059Y-124252620D01*
X139946592Y-124283942D01*
X140066627Y-124318054D01*
X140189910Y-124355127D01*
X140317192Y-124395329D01*
X140449220Y-124438830D01*
X140554208Y-124474551D01*
X140604068Y-124492059D01*
X140651600Y-124509485D01*
X140697473Y-124527150D01*
X140742357Y-124545374D01*
X140786920Y-124564476D01*
X140831833Y-124584779D01*
X140877765Y-124606601D01*
X140925385Y-124630263D01*
X140975363Y-124656085D01*
X141028367Y-124684388D01*
X141085068Y-124715492D01*
X141146135Y-124749717D01*
X141212237Y-124787384D01*
X141233306Y-124799493D01*
X141291927Y-124833223D01*
X141344898Y-124863651D01*
X141392666Y-124891025D01*
X141435679Y-124915591D01*
X141474384Y-124937596D01*
X141509229Y-124957287D01*
X141540662Y-124974910D01*
X141569130Y-124990714D01*
X141595081Y-125004944D01*
X141618963Y-125017848D01*
X141641223Y-125029672D01*
X141662308Y-125040664D01*
X141682668Y-125051070D01*
X141702748Y-125061138D01*
X141722997Y-125071113D01*
X141743862Y-125081244D01*
X141745694Y-125082128D01*
X141813133Y-125113565D01*
X141876750Y-125140819D01*
X141937918Y-125164282D01*
X141998008Y-125184345D01*
X142058391Y-125201402D01*
X142120440Y-125215844D01*
X142185526Y-125228064D01*
X142255022Y-125238454D01*
X142319861Y-125246279D01*
X142360848Y-125250039D01*
X142406794Y-125252999D01*
X142455642Y-125255105D01*
X142505337Y-125256301D01*
X142553821Y-125256532D01*
X142599038Y-125255744D01*
X142628542Y-125254508D01*
X142708088Y-125247865D01*
X142788544Y-125236743D01*
X142868722Y-125221443D01*
X142947433Y-125202263D01*
X143023489Y-125179501D01*
X143095702Y-125153456D01*
X143162884Y-125124427D01*
X143180992Y-125115625D01*
X143261972Y-125071372D01*
X143341194Y-125020408D01*
X143418518Y-124962893D01*
X143493805Y-124898983D01*
X143566914Y-124828836D01*
X143637705Y-124752610D01*
X143706040Y-124670463D01*
X143771777Y-124582552D01*
X143834778Y-124489036D01*
X143894903Y-124390070D01*
X143952011Y-124285814D01*
X143997103Y-124195201D01*
X144015441Y-124155287D01*
X144033063Y-124113922D01*
X144050474Y-124069814D01*
X144068181Y-124021672D01*
X144086690Y-123968204D01*
X144091035Y-123955250D01*
X144098704Y-123931804D01*
X144106807Y-123906214D01*
X144114992Y-123879673D01*
X144122907Y-123853373D01*
X144130199Y-123828508D01*
X144136515Y-123806269D01*
X144141504Y-123787848D01*
X144144813Y-123774440D01*
X144145622Y-123770558D01*
X144147791Y-123758996D01*
X144352405Y-123676428D01*
X144388385Y-123661883D01*
X144422393Y-123648085D01*
X144453868Y-123635266D01*
X144482252Y-123623654D01*
X144506986Y-123613480D01*
X144527510Y-123604974D01*
X144543266Y-123598367D01*
X144553693Y-123593889D01*
X144558232Y-123591769D01*
X144558381Y-123591656D01*
X144556040Y-123589006D01*
X144548838Y-123582050D01*
X144537188Y-123571163D01*
X144521505Y-123556724D01*
X144502203Y-123539108D01*
X144479696Y-123518694D01*
X144454399Y-123495859D01*
X144426726Y-123470979D01*
X144397091Y-123444432D01*
X144371714Y-123421769D01*
X144335698Y-123389640D01*
X144304584Y-123361846D01*
X144278002Y-123338033D01*
X144255585Y-123317848D01*
X144236962Y-123300935D01*
X144221765Y-123286942D01*
X144209624Y-123275513D01*
X144200170Y-123266294D01*
X144193035Y-123258931D01*
X144187848Y-123253071D01*
X144184241Y-123248358D01*
X144181844Y-123244439D01*
X144180288Y-123240959D01*
X144179205Y-123237565D01*
X144179021Y-123236897D01*
X144172612Y-123216348D01*
X144163510Y-123191398D01*
X144152440Y-123163816D01*
X144140126Y-123135375D01*
X144127295Y-123107843D01*
X144120700Y-123094554D01*
X144088251Y-123036345D01*
X144051023Y-122980220D01*
X144008334Y-122925249D01*
X143959501Y-122870502D01*
X143946358Y-122856849D01*
X143890849Y-122803310D01*
X143833569Y-122754827D01*
X143773315Y-122710531D01*
X143708883Y-122669557D01*
X143639069Y-122631037D01*
X143618083Y-122620420D01*
X143550029Y-122588548D01*
X143482015Y-122560713D01*
X143412813Y-122536541D01*
X143341193Y-122515659D01*
X143265928Y-122497692D01*
X143185788Y-122482268D01*
X143139320Y-122474752D01*
X143119484Y-122471832D01*
X143102156Y-122469566D01*
X143085939Y-122467870D01*
X143069438Y-122466659D01*
X143051258Y-122465848D01*
X143030002Y-122465355D01*
X143004276Y-122465094D01*
X142977792Y-122464991D01*
X142940577Y-122465069D01*
D12*
X161005000Y-115800000D03*
X158295000Y-115800000D03*
X161005000Y-100200000D03*
X158295000Y-100200000D03*
X161005000Y-115400000D03*
X161005000Y-115000000D03*
X161005000Y-114600000D03*
X161005000Y-114200000D03*
X161005000Y-113800000D03*
X161005000Y-113400000D03*
X161005000Y-113000000D03*
X161005000Y-112600000D03*
X161005000Y-112200000D03*
X161005000Y-111800000D03*
X161005000Y-111400000D03*
X161005000Y-111000000D03*
X161005000Y-110600000D03*
X161005000Y-110200000D03*
X161005000Y-109800000D03*
X161005000Y-109400000D03*
X161005000Y-109000000D03*
X161005000Y-108600000D03*
X161005000Y-108200000D03*
X161005000Y-107800000D03*
X161005000Y-107400000D03*
X161005000Y-107000000D03*
X161005000Y-106600000D03*
X161005000Y-106200000D03*
X161005000Y-105800000D03*
X161005000Y-105400000D03*
X161005000Y-105000000D03*
X161005000Y-104600000D03*
X161005000Y-104200000D03*
X161005000Y-103800000D03*
X161005000Y-103400000D03*
X161005000Y-103000000D03*
X161005000Y-102600000D03*
X161005000Y-102200000D03*
X161005000Y-101800000D03*
X161005000Y-101400000D03*
X161005000Y-101000000D03*
X161005000Y-100600000D03*
D13*
X161005000Y-99725000D03*
X158295000Y-99725000D03*
X161005000Y-116275000D03*
X158295000Y-116275000D03*
D12*
X158295000Y-100600000D03*
X158295000Y-101000000D03*
X158295000Y-101400000D03*
X158295000Y-101800000D03*
X158295000Y-102200000D03*
X158295000Y-102600000D03*
X158295000Y-103000000D03*
X158295000Y-103400000D03*
X158295000Y-103800000D03*
X158295000Y-104200000D03*
X158295000Y-104600000D03*
X158295000Y-105000000D03*
X158295000Y-105400000D03*
X158295000Y-105800000D03*
X158295000Y-106200000D03*
X158295000Y-106600000D03*
X158295000Y-107000000D03*
X158295000Y-107400000D03*
X158295000Y-107800000D03*
X158295000Y-108200000D03*
X158295000Y-108600000D03*
X158295000Y-109000000D03*
X158295000Y-109400000D03*
X158295000Y-109800000D03*
X158295000Y-110200000D03*
X158295000Y-110600000D03*
X158295000Y-111000000D03*
X158295000Y-111400000D03*
X158295000Y-111800000D03*
X158295000Y-112200000D03*
X158295000Y-112600000D03*
X158295000Y-113000000D03*
X158295000Y-113400000D03*
X158295000Y-113800000D03*
X158295000Y-114200000D03*
X158295000Y-114600000D03*
X158295000Y-115000000D03*
X158295000Y-115400000D03*
D14*
X156250000Y-95900000D03*
X158150000Y-95900000D03*
D15*
X158712500Y-92862500D03*
X158712500Y-93362500D03*
X158712500Y-93862500D03*
X158712500Y-94362500D03*
X155812500Y-94362500D03*
X155812500Y-93862500D03*
X155812500Y-93362500D03*
X155812500Y-92862500D03*
D16*
X156825000Y-93975000D03*
X156825000Y-93250000D03*
X157700000Y-93975000D03*
X157700000Y-93250000D03*
D17*
X156550000Y-91200000D03*
X154350000Y-91200000D03*
D18*
X158550000Y-91250000D03*
D19*
X146860000Y-118910000D03*
X146860000Y-117010000D03*
X152570000Y-118950000D03*
X152570000Y-117050000D03*
D20*
X131860000Y-105960000D03*
D21*
X131860000Y-103420000D03*
D22*
X148620000Y-118930000D03*
X148620000Y-117980000D03*
X148620000Y-117030000D03*
X150820000Y-117030000D03*
X150820000Y-118930000D03*
D23*
X162950000Y-97849974D03*
X162500000Y-95300000D03*
X156335426Y-119765426D03*
X150790000Y-122670000D03*
X150770000Y-125050000D03*
X159612905Y-125034648D03*
X132060000Y-117450000D03*
X159390000Y-121280000D03*
D24*
X163335170Y-106128721D03*
X162579214Y-106491109D03*
X162993938Y-107218712D03*
X162237982Y-107581100D03*
X162237982Y-108419301D03*
X162993938Y-108781689D03*
X162579214Y-109509292D03*
X163335170Y-109871680D03*
D23*
X164264956Y-95352566D03*
X160500000Y-95450000D03*
X157300000Y-95000000D03*
X159100000Y-98150000D03*
X159950000Y-93400000D03*
X154500000Y-92950000D03*
X153600000Y-93750000D03*
X154325068Y-92130246D03*
X160303087Y-96914049D03*
X157300000Y-97100000D03*
X156750000Y-92200000D03*
X154650000Y-94900000D03*
D24*
X156380187Y-105401118D03*
D23*
X160729126Y-94320874D03*
X159570000Y-119181520D03*
X152050000Y-120360000D03*
X133060000Y-114350000D03*
X135130000Y-114530000D03*
X145490000Y-118960000D03*
D24*
X156306694Y-107218712D03*
X157062650Y-107581100D03*
X157062650Y-108419301D03*
X156306694Y-108781689D03*
X156721418Y-109509292D03*
X155965462Y-109871680D03*
X154941767Y-102858749D03*
X155697723Y-103221137D03*
D23*
X160817802Y-117018356D03*
D24*
X158255617Y-116945501D03*
X161045015Y-99054899D03*
X158255617Y-99054899D03*
X158255617Y-99054899D03*
D23*
X155245312Y-124684569D03*
X161955101Y-117373351D03*
X162720000Y-118130000D03*
D24*
X163625674Y-117420519D03*
X164626605Y-116049236D03*
X165041329Y-115321633D03*
X164285373Y-114959245D03*
X164700097Y-114231642D03*
X163944142Y-113869254D03*
X164358866Y-113141651D03*
X163602910Y-112779264D03*
X164017634Y-112051661D03*
X163261678Y-111689273D03*
X163676402Y-110961670D03*
X162920446Y-110599282D03*
X162920446Y-105401118D03*
X163676402Y-105038731D03*
X163261678Y-104311128D03*
X164017634Y-103948740D03*
X163602910Y-103221137D03*
X164358866Y-102858749D03*
X163944142Y-102131146D03*
X164700097Y-101768759D03*
X164285373Y-101041156D03*
X165041329Y-100678768D03*
X164626605Y-99951165D03*
X163642567Y-99005000D03*
X163166374Y-99692120D03*
X162511810Y-99165956D03*
X162035617Y-99853076D03*
X157265015Y-99853076D03*
X156788823Y-99165956D03*
X156134258Y-99692120D03*
D23*
X156900000Y-123730000D03*
X153470000Y-123800000D03*
X153010000Y-113030000D03*
X152990000Y-110430000D03*
X154080000Y-98370000D03*
X153630000Y-99130000D03*
D24*
X154259303Y-100678768D03*
X155015259Y-101041156D03*
X154600535Y-101768759D03*
X155356491Y-102131146D03*
X155965462Y-106128721D03*
X156721418Y-106491109D03*
X156380187Y-110599282D03*
X155624231Y-110961670D03*
X156038955Y-111689273D03*
X155282999Y-112051661D03*
X155697723Y-112779264D03*
X154941767Y-113141651D03*
X155356491Y-113869254D03*
X154600535Y-114231642D03*
X155015259Y-114959245D03*
X154259303Y-115321633D03*
X154674027Y-116049236D03*
X155658066Y-116995401D03*
X156134258Y-116308281D03*
X156788823Y-116834445D03*
X157265015Y-116147324D03*
D25*
X162154815Y-98095191D02*
X162850000Y-97400006D01*
X162850000Y-97400006D02*
X162850000Y-97749974D01*
X162850000Y-97749974D02*
X162950000Y-97849974D01*
X159945189Y-105385878D02*
X159945189Y-98623744D01*
X160473743Y-98095191D02*
X162154815Y-98095191D01*
X159531067Y-105800000D02*
X159945189Y-105385878D01*
X159945189Y-98623744D02*
X160473743Y-98095191D01*
X158295000Y-105800000D02*
X159531067Y-105800000D01*
X162500000Y-94815067D02*
X162500000Y-95300000D01*
X159239900Y-92560100D02*
X160445033Y-92560100D01*
X158937500Y-92862500D02*
X159239900Y-92560100D01*
X160445033Y-92560100D02*
X162500000Y-94615067D01*
X158712500Y-92862500D02*
X158937500Y-92862500D01*
X162500000Y-94615067D02*
X162500000Y-94815067D01*
X161005000Y-109400000D02*
X159600000Y-109400000D01*
X161005000Y-109000000D02*
X159740000Y-109000000D01*
X161005000Y-108600000D02*
X159810000Y-108600000D01*
X161005000Y-108200000D02*
X159590000Y-108200000D01*
X161005000Y-107800000D02*
X159730000Y-107800000D01*
X161005000Y-107400000D02*
X159550000Y-107400000D01*
X161005000Y-107000000D02*
X159760000Y-107000000D01*
X161005000Y-106600000D02*
X159980000Y-106600000D01*
X156385785Y-119715067D02*
X156335426Y-119765426D01*
X156770000Y-119715067D02*
X156385785Y-119715067D01*
D26*
X150790000Y-122670000D02*
X150790000Y-122250000D01*
D25*
X150770000Y-125050000D02*
X150770000Y-124680000D01*
D26*
X160090000Y-125030000D02*
X159617553Y-125030000D01*
X159617553Y-125030000D02*
X159612905Y-125034648D01*
D25*
X132060000Y-117450000D02*
X132060000Y-118050000D01*
D26*
X159390000Y-121280000D02*
X159390000Y-120870000D01*
D25*
X160522600Y-106600000D02*
X160250000Y-106327400D01*
X161005000Y-106600000D02*
X160522600Y-106600000D01*
X160250000Y-99550000D02*
X160473514Y-99326486D01*
X160473514Y-99326486D02*
X160473514Y-98780578D01*
X160770694Y-98483398D02*
X163362426Y-98483398D01*
X163362426Y-98483398D02*
X164200000Y-97645824D01*
X164200000Y-97645824D02*
X164200000Y-97400000D01*
X160250000Y-106327400D02*
X160250000Y-99550000D01*
X160473514Y-98780578D02*
X160770694Y-98483398D01*
X161190316Y-106624000D02*
X161540316Y-106624000D01*
X161540316Y-106624000D02*
X162460992Y-105841578D01*
X162460992Y-105841578D02*
X162749830Y-105946114D01*
X162749830Y-105946114D02*
X163335170Y-106128721D01*
X161190316Y-107024000D02*
X161540316Y-107024000D01*
X161540316Y-107024000D02*
X162406505Y-106287883D01*
X162406505Y-106287883D02*
X162579214Y-106491109D01*
X161190316Y-107424000D02*
X161540316Y-107424000D01*
X161540316Y-107424000D02*
X162119760Y-106931569D01*
X162119760Y-106931569D02*
X162408598Y-107036104D01*
X162408598Y-107036104D02*
X162993938Y-107218712D01*
X161190316Y-107824000D02*
X161540316Y-107824000D01*
X161540316Y-107824000D02*
X162065274Y-107377873D01*
X162065274Y-107377873D02*
X162237982Y-107581100D01*
X161190316Y-108176401D02*
X161540316Y-108176401D01*
X161540316Y-108176401D02*
X162065274Y-108622527D01*
X162065274Y-108622527D02*
X162237982Y-108419301D01*
X161190316Y-108576401D02*
X161540316Y-108576401D01*
X161540316Y-108576401D02*
X162119760Y-109068832D01*
X162119760Y-109068832D02*
X162408598Y-108964297D01*
X162408598Y-108964297D02*
X162993938Y-108781689D01*
X161190316Y-108976401D02*
X161540316Y-108976401D01*
X161540316Y-108976401D02*
X162406505Y-109712518D01*
X162406505Y-109712518D02*
X162579214Y-109509292D01*
X161190316Y-109376401D02*
X161540316Y-109376401D01*
X161540316Y-109376401D02*
X162460992Y-110158823D01*
X162460992Y-110158823D02*
X162749830Y-110054287D01*
X162749830Y-110054287D02*
X163335170Y-109871680D01*
X163750000Y-95382589D02*
X163780023Y-95352566D01*
X163780023Y-95352566D02*
X164264956Y-95352566D01*
X163750000Y-95450000D02*
X163750000Y-95382589D01*
X160500000Y-95450000D02*
X160050000Y-95900000D01*
X160050000Y-95900000D02*
X158150000Y-95900000D01*
X160500000Y-95450000D02*
X159497600Y-95450000D01*
X159497600Y-95450000D02*
X158712500Y-94664900D01*
X158712500Y-94664900D02*
X158712500Y-94362500D01*
X157300000Y-95000000D02*
X158377400Y-95000000D01*
X158377400Y-95000000D02*
X158712500Y-94664900D01*
X157300000Y-95000000D02*
X157300000Y-95050000D01*
X157300000Y-95050000D02*
X158150000Y-95900000D01*
X158808467Y-105400000D02*
X159300000Y-104908467D01*
X158295000Y-105400000D02*
X158808467Y-105400000D01*
X160228028Y-93749372D02*
X159927400Y-94050000D01*
X159589348Y-98950000D02*
X159589348Y-98548519D01*
X161003448Y-93749372D02*
X160228028Y-93749372D01*
X161376312Y-97163035D02*
X161376312Y-94122236D01*
X161376312Y-94122236D02*
X161003448Y-93749372D01*
X160748967Y-97790380D02*
X161376312Y-97163035D01*
X159589348Y-98548519D02*
X160347487Y-97790380D01*
X160347487Y-97790380D02*
X160748967Y-97790380D01*
X159589348Y-98639348D02*
X159100000Y-98150000D01*
X159300000Y-99239348D02*
X159589348Y-98950000D01*
X159589348Y-98950000D02*
X159589348Y-98639348D01*
X159300000Y-104908467D02*
X159300000Y-99239348D01*
X159950000Y-94027400D02*
X159927400Y-94050000D01*
X159950000Y-93400000D02*
X159950000Y-94027400D01*
X159927400Y-94050000D02*
X159239900Y-93362500D01*
X159239900Y-93362500D02*
X158712500Y-93362500D01*
X154400000Y-92950000D02*
X154500000Y-92950000D01*
X153600000Y-93750000D02*
X154400000Y-92950000D01*
X154350000Y-92105314D02*
X154325068Y-92130246D01*
X154350000Y-91200000D02*
X154350000Y-92105314D01*
X157300000Y-97100000D02*
X160117136Y-97100000D01*
X160117136Y-97100000D02*
X160303087Y-96914049D01*
X156250000Y-96050000D02*
X156250000Y-95900000D01*
X157300000Y-97100000D02*
X156250000Y-96050000D01*
X156750000Y-92200000D02*
X156475000Y-92200000D01*
X156475000Y-92200000D02*
X155812500Y-92862500D01*
X156250000Y-95900000D02*
X156025000Y-95900000D01*
X155025000Y-94900000D02*
X154650000Y-94900000D01*
X156025000Y-95900000D02*
X155025000Y-94900000D01*
X158110316Y-106224000D02*
X157760316Y-106224000D01*
X157760316Y-106224000D02*
X156552895Y-105197892D01*
X156552895Y-105197892D02*
X156380187Y-105401118D01*
X158295000Y-105000000D02*
X158777400Y-105000000D01*
X158777400Y-105000000D02*
X158950000Y-104827400D01*
X161071501Y-97036738D02*
X161071501Y-95175679D01*
X158528498Y-98474322D02*
X158528498Y-97875678D01*
X161071501Y-95175679D02*
X160745822Y-94850000D01*
X160745822Y-94850000D02*
X160227400Y-94850000D01*
X160622670Y-97485569D02*
X161071501Y-97036738D01*
X158950000Y-104827400D02*
X158950000Y-98895824D01*
X158528498Y-97875678D02*
X158918607Y-97485569D01*
X158918607Y-97485569D02*
X160622670Y-97485569D01*
X158950000Y-98895824D02*
X158528498Y-98474322D01*
X160227400Y-94850000D02*
X160227400Y-94822600D01*
X160227400Y-94822600D02*
X160386227Y-94663773D01*
X160386227Y-94663773D02*
X160729126Y-94320874D01*
X160227400Y-94850000D02*
X159239900Y-93862500D01*
X159239900Y-93862500D02*
X158712500Y-93862500D01*
X156400000Y-91200000D02*
X156550000Y-91200000D01*
X155812500Y-93362500D02*
X155285100Y-93362500D01*
X155208899Y-93286299D02*
X155208899Y-92391101D01*
X155208899Y-92391101D02*
X156400000Y-91200000D01*
X155285100Y-93362500D02*
X155208899Y-93286299D01*
X156550000Y-91200000D02*
X158500000Y-91200000D01*
X158500000Y-91200000D02*
X158550000Y-91250000D01*
D26*
X159338480Y-118950000D02*
X159570000Y-119181520D01*
X152570000Y-118950000D02*
X159338480Y-118950000D01*
X152570000Y-118950000D02*
X152570000Y-119840000D01*
X152570000Y-119840000D02*
X152050000Y-120360000D01*
X150820000Y-118930000D02*
X152550000Y-118930000D01*
X152550000Y-118930000D02*
X152570000Y-118950000D01*
X135130000Y-114530000D02*
X133240000Y-114530000D01*
X133240000Y-114530000D02*
X133060000Y-114350000D01*
D27*
X146860000Y-118910000D02*
X146860000Y-118685000D01*
X146860000Y-118685000D02*
X147660000Y-117885000D01*
X147660000Y-117885000D02*
X147660000Y-117206000D01*
X147660000Y-117206000D02*
X147836000Y-117030000D01*
X147836000Y-117030000D02*
X148620000Y-117030000D01*
X148620000Y-118930000D02*
X146880000Y-118930000D01*
X146880000Y-118930000D02*
X146860000Y-118910000D01*
X145490000Y-118960000D02*
X146810000Y-118960000D01*
X146810000Y-118960000D02*
X146860000Y-118910000D01*
D25*
X158110316Y-107424000D02*
X157760316Y-107424000D01*
X157760316Y-107424000D02*
X157180872Y-106931569D01*
X157180872Y-106931569D02*
X156892034Y-107036104D01*
X156892034Y-107036104D02*
X156306694Y-107218712D01*
X158110316Y-107824000D02*
X157760316Y-107824000D01*
X157760316Y-107824000D02*
X157235359Y-107377873D01*
X157235359Y-107377873D02*
X157062650Y-107581100D01*
X158110316Y-108176401D02*
X157760316Y-108176401D01*
X157760316Y-108176401D02*
X157235359Y-108622527D01*
X157235359Y-108622527D02*
X157062650Y-108419301D01*
X158110316Y-108576401D02*
X157760316Y-108576401D01*
X157760316Y-108576401D02*
X157180872Y-109068832D01*
X157180872Y-109068832D02*
X156892034Y-108964297D01*
X156892034Y-108964297D02*
X156306694Y-108781689D01*
X158110316Y-108976401D02*
X157760316Y-108976401D01*
X157760316Y-108976401D02*
X156894127Y-109712518D01*
X156894127Y-109712518D02*
X156721418Y-109509292D01*
X158110316Y-109376401D02*
X157760316Y-109376401D01*
X157760316Y-109376401D02*
X156839640Y-110158823D01*
X156839640Y-110158823D02*
X156550802Y-110054287D01*
X156550802Y-110054287D02*
X155965462Y-109871680D01*
X154375678Y-94328498D02*
X153650000Y-95054176D01*
X153058498Y-98545678D02*
X153058498Y-99404322D01*
X154501803Y-102515850D02*
X154598868Y-102515850D01*
X155285100Y-94362500D02*
X155251098Y-94328498D01*
X154598868Y-102515850D02*
X154941767Y-102858749D01*
X153650000Y-99995824D02*
X153650000Y-101664047D01*
X153650000Y-97954176D02*
X153058498Y-98545678D01*
X153650000Y-101664047D02*
X154501803Y-102515850D01*
X153058498Y-99404322D02*
X153650000Y-99995824D01*
X153650000Y-95054176D02*
X153650000Y-97954176D01*
X155812500Y-94362500D02*
X155285100Y-94362500D01*
X155251098Y-94328498D02*
X154375678Y-94328498D01*
X158110316Y-104224000D02*
X157760316Y-104224000D01*
X157760316Y-104224000D02*
X155815945Y-102571606D01*
X155815945Y-102571606D02*
X155527107Y-102676142D01*
X155527107Y-102676142D02*
X154941767Y-102858749D01*
X153345189Y-102107994D02*
X154801231Y-103564036D01*
X153345189Y-100122080D02*
X153345189Y-102107994D01*
X152753687Y-99530578D02*
X153345189Y-100122080D01*
X155812500Y-93862500D02*
X154410609Y-93862500D01*
X152753687Y-98419422D02*
X152753687Y-99530578D01*
X153345189Y-97827920D02*
X152753687Y-98419422D01*
X154410609Y-93862500D02*
X153345189Y-94927920D01*
X153345189Y-94927920D02*
X153345189Y-97827920D01*
X155354824Y-103564036D02*
X155697723Y-103221137D01*
X154801231Y-103564036D02*
X155354824Y-103564036D01*
X158110316Y-104624000D02*
X157760316Y-104624000D01*
X157760316Y-104624000D02*
X155870431Y-103017911D01*
X155870431Y-103017911D02*
X155697723Y-103221137D01*
X160972160Y-117018356D02*
X160817802Y-117018356D01*
X161045015Y-116945501D02*
X160972160Y-117018356D01*
X160817802Y-116387198D02*
X160817802Y-116533423D01*
X160817802Y-116533423D02*
X160817802Y-117018356D01*
X161005000Y-116200000D02*
X160817802Y-116387198D01*
X161005000Y-115800000D02*
X161005000Y-116200000D01*
X158295000Y-116200000D02*
X158295000Y-116906118D01*
X158295000Y-116906118D02*
X158255617Y-116945501D01*
X158295000Y-115800000D02*
X158295000Y-116200000D01*
X161005000Y-99800000D02*
X161005000Y-100200000D01*
X161045015Y-99054899D02*
X161045015Y-99759985D01*
X161045015Y-99759985D02*
X161005000Y-99800000D01*
X158295000Y-99800000D02*
X158295000Y-100200000D01*
X158255617Y-99054899D02*
X158255617Y-99760617D01*
X158255617Y-99760617D02*
X158295000Y-99800000D01*
X162035617Y-118299691D02*
X162035617Y-121824383D01*
X161540301Y-115376401D02*
X161566555Y-115402655D01*
X155588211Y-124341670D02*
X155245312Y-124684569D01*
X161566555Y-115402655D02*
X161566555Y-116916073D01*
X162035617Y-121824383D02*
X159518330Y-124341670D01*
X161383599Y-117647673D02*
X162035617Y-118299691D01*
X161383599Y-117099029D02*
X161383599Y-117647673D01*
X161190316Y-115376401D02*
X161540301Y-115376401D01*
X159518330Y-124341670D02*
X155588211Y-124341670D01*
X161566555Y-116916073D02*
X161383599Y-117099029D01*
X162298000Y-117030452D02*
X161955101Y-117373351D01*
X162657575Y-116670877D02*
X162298000Y-117030452D01*
X162657575Y-115925886D02*
X162657575Y-116670877D01*
X161540316Y-114976401D02*
X162657575Y-115925886D01*
X161190316Y-114976401D02*
X161540316Y-114976401D01*
X161190316Y-114576401D02*
X161540316Y-114576401D01*
X161540316Y-114576401D02*
X163339083Y-116105055D01*
X163339083Y-116105055D02*
X163339083Y-116453063D01*
X163339083Y-116453063D02*
X162720000Y-117072146D01*
X162720000Y-117072146D02*
X162720000Y-117645067D01*
X162720000Y-117645067D02*
X162720000Y-118130000D01*
X163788332Y-116086842D02*
X163968573Y-116267083D01*
X161190316Y-114176401D02*
X161540316Y-114176401D01*
X161540316Y-114176401D02*
X163788332Y-116086842D01*
X163968573Y-116267083D02*
X163968573Y-117077620D01*
X163968573Y-117077620D02*
X163625674Y-117420519D01*
X161540316Y-113776401D02*
X164453897Y-116252462D01*
X164453897Y-116252462D02*
X164626605Y-116049236D01*
X161190316Y-113776401D02*
X161540316Y-113776401D01*
X161190316Y-113376401D02*
X161540316Y-113376401D01*
X161540316Y-113376401D02*
X164167151Y-115608776D01*
X164167151Y-115608776D02*
X164455989Y-115504240D01*
X164455989Y-115504240D02*
X165041329Y-115321633D01*
X161190316Y-112976401D02*
X161540316Y-112976401D01*
X161540316Y-112976401D02*
X164112665Y-115162471D01*
X164112665Y-115162471D02*
X164285373Y-114959245D01*
X161190316Y-112576401D02*
X161540316Y-112576401D01*
X161540316Y-112576401D02*
X163825920Y-114518785D01*
X163825920Y-114518785D02*
X164114757Y-114414250D01*
X164114757Y-114414250D02*
X164700097Y-114231642D01*
X161190316Y-112176401D02*
X161540316Y-112176401D01*
X161540316Y-112176401D02*
X163771433Y-114072481D01*
X163771433Y-114072481D02*
X163944142Y-113869254D01*
X161190316Y-111776401D02*
X161540316Y-111776401D01*
X161540316Y-111776401D02*
X163484688Y-113428795D01*
X163484688Y-113428795D02*
X163773526Y-113324259D01*
X163773526Y-113324259D02*
X164358866Y-113141651D01*
X161190316Y-111376401D02*
X161540316Y-111376401D01*
X161540316Y-111376401D02*
X163430201Y-112982490D01*
X163430201Y-112982490D02*
X163602910Y-112779264D01*
X161190316Y-110976401D02*
X161540316Y-110976401D01*
X161540316Y-110976401D02*
X163143456Y-112338804D01*
X163143456Y-112338804D02*
X163432294Y-112234268D01*
X163432294Y-112234268D02*
X164017634Y-112051661D01*
X161190316Y-110576401D02*
X161540316Y-110576401D01*
X161540316Y-110576401D02*
X163088969Y-111892499D01*
X163088969Y-111892499D02*
X163261678Y-111689273D01*
X161190316Y-110176401D02*
X161540316Y-110176401D01*
X161540316Y-110176401D02*
X162802224Y-111248813D01*
X162802224Y-111248813D02*
X163091062Y-111144278D01*
X163091062Y-111144278D02*
X163676402Y-110961670D01*
X161190316Y-109776401D02*
X161540316Y-109776401D01*
X161540316Y-109776401D02*
X162747737Y-110802509D01*
X162747737Y-110802509D02*
X162920446Y-110599282D01*
X161190316Y-106224000D02*
X161540316Y-106224000D01*
X161540316Y-106224000D02*
X162747737Y-105197892D01*
X162747737Y-105197892D02*
X162920446Y-105401118D01*
X161190316Y-105824000D02*
X161540316Y-105824000D01*
X161540316Y-105824000D02*
X162802224Y-104751587D01*
X162802224Y-104751587D02*
X163091062Y-104856123D01*
X163091062Y-104856123D02*
X163676402Y-105038731D01*
X161190316Y-105424000D02*
X161540316Y-105424000D01*
X161540316Y-105424000D02*
X163088969Y-104107901D01*
X163088969Y-104107901D02*
X163261678Y-104311128D01*
X161190316Y-105024000D02*
X161540316Y-105024000D01*
X161540316Y-105024000D02*
X163143456Y-103661597D01*
X163143456Y-103661597D02*
X163432294Y-103766132D01*
X163432294Y-103766132D02*
X164017634Y-103948740D01*
X161190316Y-104624000D02*
X161540316Y-104624000D01*
X161540316Y-104624000D02*
X163430201Y-103017911D01*
X163430201Y-103017911D02*
X163602910Y-103221137D01*
X161190316Y-104224000D02*
X161540316Y-104224000D01*
X161540316Y-104224000D02*
X163484688Y-102571606D01*
X163484688Y-102571606D02*
X163773526Y-102676142D01*
X163773526Y-102676142D02*
X164358866Y-102858749D01*
X161190316Y-103824000D02*
X161540316Y-103824000D01*
X161540316Y-103824000D02*
X163771433Y-101927920D01*
X163771433Y-101927920D02*
X163944142Y-102131146D01*
X161190316Y-103424000D02*
X161540316Y-103424000D01*
X161540316Y-103424000D02*
X163825920Y-101481616D01*
X163825920Y-101481616D02*
X164114757Y-101586151D01*
X164114757Y-101586151D02*
X164700097Y-101768759D01*
X161190316Y-103024000D02*
X161540316Y-103024000D01*
X161540316Y-103024000D02*
X164112665Y-100837930D01*
X164112665Y-100837930D02*
X164285373Y-101041156D01*
X161190316Y-102624000D02*
X161540316Y-102624000D01*
X161540316Y-102624000D02*
X164167151Y-100391625D01*
X164167151Y-100391625D02*
X164455989Y-100496161D01*
X164455989Y-100496161D02*
X165041329Y-100678768D01*
X161190316Y-102224000D02*
X161540316Y-102224000D01*
X161540316Y-102224000D02*
X164453897Y-99747939D01*
X164453897Y-99747939D02*
X164626605Y-99951165D01*
X161190316Y-101824000D02*
X161540316Y-101824000D01*
X161540316Y-101824000D02*
X163788332Y-99913558D01*
X163788332Y-99913558D02*
X163731753Y-99611642D01*
X163731753Y-99611642D02*
X163642567Y-99005000D01*
X161190316Y-101424000D02*
X161540316Y-101424000D01*
X161540316Y-101424000D02*
X163339083Y-99895346D01*
X163339083Y-99895346D02*
X163166374Y-99692120D01*
X161190316Y-101024000D02*
X161540316Y-101024000D01*
X161540316Y-101024000D02*
X162657575Y-100074515D01*
X162657575Y-100074515D02*
X162600996Y-99772598D01*
X162600996Y-99772598D02*
X162511810Y-99165956D01*
X161190316Y-100624000D02*
X161540316Y-100624000D01*
X161540316Y-100624000D02*
X162208326Y-100056303D01*
X162208326Y-100056303D02*
X162035617Y-99853076D01*
X158110316Y-100624000D02*
X157760316Y-100624000D01*
X157760316Y-100624000D02*
X157092307Y-100056303D01*
X157092307Y-100056303D02*
X157265015Y-99853076D01*
X158110316Y-101024000D02*
X157760316Y-101024000D01*
X157760316Y-101024000D02*
X156643057Y-100074515D01*
X156643057Y-100074515D02*
X156699637Y-99772598D01*
X156699637Y-99772598D02*
X156788823Y-99165956D01*
X158110316Y-101424000D02*
X157760316Y-101424000D01*
X157760316Y-101424000D02*
X155961549Y-99895346D01*
X155961549Y-99895346D02*
X156134258Y-99692120D01*
X153470000Y-123800000D02*
X156830000Y-123800000D01*
X156830000Y-123800000D02*
X156900000Y-123730000D01*
X152990000Y-110430000D02*
X152990000Y-113010000D01*
X152990000Y-113010000D02*
X153010000Y-113030000D01*
X154715000Y-99005000D02*
X154080000Y-98370000D01*
X155658066Y-99005000D02*
X154715000Y-99005000D01*
X158110316Y-101824000D02*
X157760316Y-101824000D01*
X157760316Y-101824000D02*
X155512300Y-99913558D01*
X155512300Y-99913558D02*
X155568880Y-99611642D01*
X155568880Y-99611642D02*
X155658066Y-99005000D01*
X154228797Y-99130000D02*
X154114933Y-99130000D01*
X154846736Y-99747939D02*
X154228797Y-99130000D01*
X158110316Y-102224000D02*
X157760316Y-102224000D01*
X154114933Y-99130000D02*
X153630000Y-99130000D01*
X157760316Y-102224000D02*
X154846736Y-99747939D01*
X158110316Y-102624000D02*
X157760316Y-102624000D01*
X157760316Y-102624000D02*
X155133481Y-100391625D01*
X155133481Y-100391625D02*
X154844643Y-100496161D01*
X154844643Y-100496161D02*
X154259303Y-100678768D01*
X158110316Y-103024000D02*
X157760316Y-103024000D01*
X157760316Y-103024000D02*
X155187968Y-100837930D01*
X155187968Y-100837930D02*
X155015259Y-101041156D01*
X158110316Y-103424000D02*
X157760316Y-103424000D01*
X157760316Y-103424000D02*
X155474713Y-101481616D01*
X155474713Y-101481616D02*
X155185875Y-101586151D01*
X155185875Y-101586151D02*
X154600535Y-101768759D01*
X158110316Y-103824000D02*
X157760316Y-103824000D01*
X157760316Y-103824000D02*
X155529200Y-101927920D01*
X155529200Y-101927920D02*
X155356491Y-102131146D01*
X158110316Y-106624000D02*
X157760316Y-106624000D01*
X157760316Y-106624000D02*
X156839640Y-105841578D01*
X156839640Y-105841578D02*
X156550802Y-105946114D01*
X156550802Y-105946114D02*
X155965462Y-106128721D01*
X158110316Y-107024000D02*
X157760316Y-107024000D01*
X157760316Y-107024000D02*
X156894127Y-106287883D01*
X156894127Y-106287883D02*
X156721418Y-106491109D01*
X158110316Y-109776401D02*
X157760316Y-109776401D01*
X157760316Y-109776401D02*
X156552895Y-110802509D01*
X156552895Y-110802509D02*
X156380187Y-110599282D01*
X158110316Y-110176401D02*
X157760316Y-110176401D01*
X157760316Y-110176401D02*
X156498409Y-111248813D01*
X156498409Y-111248813D02*
X156209571Y-111144278D01*
X156209571Y-111144278D02*
X155624231Y-110961670D01*
X158110316Y-110576401D02*
X157760316Y-110576401D01*
X157760316Y-110576401D02*
X156211663Y-111892499D01*
X156211663Y-111892499D02*
X156038955Y-111689273D01*
X158110316Y-110976401D02*
X157760316Y-110976401D01*
X157760316Y-110976401D02*
X156157177Y-112338804D01*
X156157177Y-112338804D02*
X155868339Y-112234268D01*
X155868339Y-112234268D02*
X155282999Y-112051661D01*
X158110316Y-111376401D02*
X157760316Y-111376401D01*
X157760316Y-111376401D02*
X155870431Y-112982490D01*
X155870431Y-112982490D02*
X155697723Y-112779264D01*
X158110316Y-111776401D02*
X157760316Y-111776401D01*
X157760316Y-111776401D02*
X155815945Y-113428795D01*
X155815945Y-113428795D02*
X155527107Y-113324259D01*
X155527107Y-113324259D02*
X154941767Y-113141651D01*
X158110316Y-112176401D02*
X157760316Y-112176401D01*
X157760316Y-112176401D02*
X155529200Y-114072481D01*
X155529200Y-114072481D02*
X155356491Y-113869254D01*
X158110316Y-112576401D02*
X157760316Y-112576401D01*
X157760316Y-112576401D02*
X155474713Y-114518785D01*
X155474713Y-114518785D02*
X155185875Y-114414250D01*
X155185875Y-114414250D02*
X154600535Y-114231642D01*
X158110316Y-112976401D02*
X157760316Y-112976401D01*
X157760316Y-112976401D02*
X155187968Y-115162471D01*
X155187968Y-115162471D02*
X155015259Y-114959245D01*
X158110316Y-113376401D02*
X157760316Y-113376401D01*
X157760316Y-113376401D02*
X155133481Y-115608776D01*
X155133481Y-115608776D02*
X154844643Y-115504240D01*
X154844643Y-115504240D02*
X154259303Y-115321633D01*
X158110316Y-113776401D02*
X157760316Y-113776401D01*
X157760316Y-113776401D02*
X154846736Y-116252462D01*
X154846736Y-116252462D02*
X154674027Y-116049236D01*
X158110316Y-114176401D02*
X157760316Y-114176401D01*
X157760316Y-114176401D02*
X155512300Y-116086842D01*
X155512300Y-116086842D02*
X155568880Y-116388759D01*
X155568880Y-116388759D02*
X155658066Y-116995401D01*
X158110316Y-114576401D02*
X157760316Y-114576401D01*
X157760316Y-114576401D02*
X155961549Y-116105055D01*
X155961549Y-116105055D02*
X156134258Y-116308281D01*
X158110316Y-114976401D02*
X157760316Y-114976401D01*
X157760316Y-114976401D02*
X156643057Y-115925886D01*
X156643057Y-115925886D02*
X156699637Y-116227803D01*
X156699637Y-116227803D02*
X156788823Y-116834445D01*
X158110316Y-115376401D02*
X157760316Y-115376401D01*
X157760316Y-115376401D02*
X157092307Y-115944098D01*
X157092307Y-115944098D02*
X157265015Y-116147324D01*
G36*
X157624618Y-90630511D02*
X157556897Y-90793600D01*
X157486669Y-90793600D01*
X157486669Y-90750000D01*
X157463644Y-90627635D01*
X157391327Y-90515251D01*
X157280983Y-90439856D01*
X157150000Y-90413331D01*
X155950000Y-90413331D01*
X155827635Y-90436356D01*
X155715251Y-90508673D01*
X155639856Y-90619017D01*
X155613331Y-90750000D01*
X155613331Y-91411933D01*
X155264172Y-91761092D01*
X155286669Y-91650000D01*
X155286669Y-90750000D01*
X155263644Y-90627635D01*
X155191327Y-90515251D01*
X155080983Y-90439856D01*
X154950000Y-90413331D01*
X153750000Y-90413331D01*
X153627635Y-90436356D01*
X153515251Y-90508673D01*
X153439856Y-90619017D01*
X153413331Y-90750000D01*
X153413331Y-91650000D01*
X153436356Y-91772365D01*
X153508673Y-91884749D01*
X153619017Y-91960144D01*
X153663166Y-91969085D01*
X153652085Y-91995771D01*
X153651851Y-92263547D01*
X153754109Y-92511029D01*
X153894894Y-92652059D01*
X153827017Y-92815525D01*
X153826901Y-92948363D01*
X153698279Y-93076985D01*
X153466699Y-93076783D01*
X153219217Y-93179041D01*
X153029706Y-93368222D01*
X152927017Y-93615525D01*
X152926783Y-93883301D01*
X153029041Y-94130783D01*
X153218222Y-94320294D01*
X153331176Y-94367197D01*
X153057821Y-94640552D01*
X152969724Y-94772397D01*
X152938789Y-94927920D01*
X152938789Y-97659584D01*
X152466319Y-98132054D01*
X152378222Y-98263899D01*
X152347287Y-98419422D01*
X152347287Y-99530578D01*
X152378222Y-99686101D01*
X152428013Y-99760617D01*
X152466319Y-99817946D01*
X152938789Y-100290416D01*
X152938789Y-102107994D01*
X152969724Y-102263517D01*
X153030195Y-102354017D01*
X153057821Y-102395362D01*
X154513863Y-103851404D01*
X154645708Y-103939501D01*
X154801231Y-103970436D01*
X155354824Y-103970436D01*
X155510347Y-103939501D01*
X155578244Y-103894133D01*
X155831024Y-103894354D01*
X156078506Y-103792096D01*
X156113149Y-103757513D01*
X157497142Y-104933678D01*
X157552302Y-104964391D01*
X157604793Y-104999465D01*
X157621129Y-105002714D01*
X157628331Y-105006724D01*
X157628331Y-105115000D01*
X157644912Y-105203120D01*
X157628331Y-105285000D01*
X157628331Y-105515000D01*
X157642555Y-105590590D01*
X156837080Y-104906070D01*
X156761965Y-104830824D01*
X156514662Y-104728135D01*
X156246886Y-104727901D01*
X155999404Y-104830159D01*
X155809893Y-105019340D01*
X155707204Y-105266643D01*
X155706994Y-105507222D01*
X155584679Y-105557762D01*
X155395168Y-105746943D01*
X155292479Y-105994246D01*
X155292245Y-106262022D01*
X155394503Y-106509504D01*
X155583684Y-106699015D01*
X155789110Y-106784315D01*
X155736400Y-106836934D01*
X155633711Y-107084237D01*
X155633477Y-107352013D01*
X155735735Y-107599495D01*
X155924916Y-107789006D01*
X156172219Y-107891695D01*
X156439995Y-107891929D01*
X156459463Y-107883885D01*
X156491691Y-107961883D01*
X156529843Y-108000101D01*
X156492356Y-108037523D01*
X156459617Y-108116366D01*
X156441169Y-108108706D01*
X156173393Y-108108472D01*
X155925911Y-108210730D01*
X155736400Y-108399911D01*
X155633711Y-108647214D01*
X155633477Y-108914990D01*
X155735735Y-109162472D01*
X155789330Y-109216160D01*
X155584679Y-109300721D01*
X155395168Y-109489902D01*
X155292479Y-109737205D01*
X155292245Y-110004981D01*
X155394503Y-110252463D01*
X155448098Y-110306151D01*
X155243448Y-110390711D01*
X155053937Y-110579892D01*
X154951248Y-110827195D01*
X154951014Y-111094971D01*
X155053272Y-111342453D01*
X155106867Y-111396141D01*
X154902216Y-111480702D01*
X154712705Y-111669883D01*
X154610016Y-111917186D01*
X154609782Y-112184962D01*
X154712040Y-112432444D01*
X154765634Y-112486132D01*
X154560984Y-112570692D01*
X154371473Y-112759873D01*
X154268784Y-113007176D01*
X154268550Y-113274952D01*
X154370808Y-113522434D01*
X154424403Y-113576122D01*
X154219752Y-113660683D01*
X154030241Y-113849864D01*
X153927552Y-114097167D01*
X153927318Y-114364943D01*
X154029576Y-114612425D01*
X154083171Y-114666113D01*
X153878520Y-114750674D01*
X153689009Y-114939855D01*
X153586320Y-115187158D01*
X153586086Y-115454934D01*
X153688344Y-115702416D01*
X153877525Y-115891927D01*
X154001019Y-115943206D01*
X154000810Y-116182537D01*
X154103068Y-116430019D01*
X154292249Y-116619530D01*
X154539552Y-116722219D01*
X154807328Y-116722453D01*
X155054810Y-116620195D01*
X155130467Y-116544670D01*
X155175417Y-116506470D01*
X155177937Y-116523615D01*
X155087772Y-116613623D01*
X154985083Y-116860926D01*
X154984849Y-117128702D01*
X155087107Y-117376184D01*
X155276288Y-117565695D01*
X155523591Y-117668384D01*
X155791367Y-117668618D01*
X156038849Y-117566360D01*
X156228360Y-117377179D01*
X156272769Y-117270229D01*
X156407045Y-117404739D01*
X156654348Y-117507428D01*
X156922124Y-117507662D01*
X157169606Y-117405404D01*
X157359117Y-117216223D01*
X157461806Y-116968920D01*
X157461959Y-116794244D01*
X157616038Y-116730580D01*
X157582634Y-116811026D01*
X157582400Y-117078802D01*
X157684658Y-117326284D01*
X157873839Y-117515795D01*
X158121142Y-117618484D01*
X158388918Y-117618718D01*
X158636400Y-117516460D01*
X158825911Y-117327279D01*
X158928600Y-117079976D01*
X158928834Y-116812200D01*
X158871677Y-116673870D01*
X158935144Y-116580983D01*
X158961669Y-116450000D01*
X158961669Y-116100000D01*
X158943625Y-116004105D01*
X158961669Y-115915000D01*
X158961669Y-115685000D01*
X158945088Y-115596880D01*
X158961669Y-115515000D01*
X158961669Y-115285000D01*
X158945088Y-115196880D01*
X158961669Y-115115000D01*
X158961669Y-114885000D01*
X158945088Y-114796880D01*
X158961669Y-114715000D01*
X158961669Y-114485000D01*
X158945088Y-114396880D01*
X158961669Y-114315000D01*
X158961669Y-114085000D01*
X158945088Y-113996880D01*
X158961669Y-113915000D01*
X158961669Y-113685000D01*
X158945088Y-113596880D01*
X158961669Y-113515000D01*
X158961669Y-113285000D01*
X158945088Y-113196880D01*
X158961669Y-113115000D01*
X158961669Y-112885000D01*
X158945088Y-112796880D01*
X158961669Y-112715000D01*
X158961669Y-112485000D01*
X158945088Y-112396880D01*
X158961669Y-112315000D01*
X158961669Y-112085000D01*
X158945088Y-111996880D01*
X158961669Y-111915000D01*
X158961669Y-111685000D01*
X158945088Y-111596880D01*
X158961669Y-111515000D01*
X158961669Y-111285000D01*
X158945088Y-111196880D01*
X158961669Y-111115000D01*
X158961669Y-110885000D01*
X158945088Y-110796880D01*
X158961669Y-110715000D01*
X158961669Y-110485000D01*
X158945088Y-110396880D01*
X158961669Y-110315000D01*
X158961669Y-110085000D01*
X158945088Y-109996880D01*
X158961669Y-109915000D01*
X158961669Y-109685000D01*
X158945088Y-109596880D01*
X158961669Y-109515000D01*
X158961669Y-109285000D01*
X158945088Y-109196880D01*
X158961669Y-109115000D01*
X158961669Y-108885000D01*
X158945088Y-108796880D01*
X158961669Y-108715000D01*
X158961669Y-108485000D01*
X158945088Y-108396880D01*
X158961669Y-108315000D01*
X158961669Y-108085000D01*
X158945088Y-107996880D01*
X158961669Y-107915000D01*
X158961669Y-107685000D01*
X158945088Y-107596880D01*
X158961669Y-107515000D01*
X158961669Y-107285000D01*
X158945088Y-107196880D01*
X158961669Y-107115000D01*
X158961669Y-106885000D01*
X158945088Y-106796880D01*
X158961669Y-106715000D01*
X158961669Y-106485000D01*
X158945088Y-106396880D01*
X158961669Y-106315000D01*
X158961669Y-106206400D01*
X159531067Y-106206400D01*
X159686590Y-106175465D01*
X159818435Y-106087368D01*
X160232557Y-105673246D01*
X160251780Y-105644477D01*
X160320654Y-105541401D01*
X160338331Y-105452531D01*
X160338331Y-105515000D01*
X160354912Y-105603120D01*
X160338331Y-105685000D01*
X160338331Y-105915000D01*
X160351793Y-105986543D01*
X160344077Y-105989739D01*
X160179739Y-106154078D01*
X160090800Y-106368796D01*
X160090800Y-106396450D01*
X160214083Y-106519733D01*
X160179739Y-106554078D01*
X160090800Y-106768796D01*
X160090800Y-106796450D01*
X160094350Y-106800000D01*
X160090800Y-106803550D01*
X160090800Y-106831204D01*
X160160718Y-107000000D01*
X160090800Y-107168796D01*
X160090800Y-107196450D01*
X160094350Y-107200000D01*
X160090800Y-107203550D01*
X160090800Y-107231204D01*
X160160718Y-107400000D01*
X160090800Y-107568796D01*
X160090800Y-107596450D01*
X160094350Y-107600000D01*
X160090800Y-107603550D01*
X160090800Y-107631204D01*
X160160718Y-107800000D01*
X160090800Y-107968796D01*
X160090800Y-107996450D01*
X160094350Y-108000000D01*
X160090800Y-108003550D01*
X160090800Y-108031204D01*
X160160718Y-108200000D01*
X160090800Y-108368796D01*
X160090800Y-108396450D01*
X160094350Y-108400000D01*
X160090800Y-108403550D01*
X160090800Y-108431204D01*
X160160718Y-108600000D01*
X160090800Y-108768796D01*
X160090800Y-108796450D01*
X160094350Y-108800000D01*
X160090800Y-108803550D01*
X160090800Y-108831204D01*
X160160718Y-109000000D01*
X160090800Y-109168796D01*
X160090800Y-109196450D01*
X160094350Y-109200000D01*
X160090800Y-109203550D01*
X160090800Y-109231204D01*
X160179739Y-109445922D01*
X160214083Y-109480267D01*
X160090800Y-109603550D01*
X160090800Y-109631204D01*
X160179739Y-109845922D01*
X160344077Y-110010261D01*
X160352740Y-110013849D01*
X160338331Y-110085000D01*
X160338331Y-110315000D01*
X160354912Y-110403120D01*
X160338331Y-110485000D01*
X160338331Y-110715000D01*
X160354912Y-110803120D01*
X160338331Y-110885000D01*
X160338331Y-111115000D01*
X160354912Y-111203120D01*
X160338331Y-111285000D01*
X160338331Y-111515000D01*
X160354912Y-111603120D01*
X160338331Y-111685000D01*
X160338331Y-111915000D01*
X160354912Y-112003120D01*
X160338331Y-112085000D01*
X160338331Y-112315000D01*
X160354912Y-112403120D01*
X160338331Y-112485000D01*
X160338331Y-112715000D01*
X160354912Y-112803120D01*
X160338331Y-112885000D01*
X160338331Y-113115000D01*
X160354912Y-113203120D01*
X160338331Y-113285000D01*
X160338331Y-113515000D01*
X160354912Y-113603120D01*
X160338331Y-113685000D01*
X160338331Y-113915000D01*
X160354912Y-114003120D01*
X160338331Y-114085000D01*
X160338331Y-114315000D01*
X160354912Y-114403120D01*
X160338331Y-114485000D01*
X160338331Y-114715000D01*
X160354912Y-114803120D01*
X160338331Y-114885000D01*
X160338331Y-115115000D01*
X160354912Y-115203120D01*
X160338331Y-115285000D01*
X160338331Y-115515000D01*
X160354912Y-115603120D01*
X160338331Y-115685000D01*
X160338331Y-115915000D01*
X160356375Y-116010895D01*
X160338331Y-116100000D01*
X160338331Y-116450000D01*
X160353525Y-116530746D01*
X160247508Y-116636578D01*
X160144819Y-116883881D01*
X160144585Y-117151657D01*
X160246843Y-117399139D01*
X160436024Y-117588650D01*
X160683327Y-117691339D01*
X160951103Y-117691573D01*
X160983286Y-117678275D01*
X161008134Y-117803196D01*
X161068334Y-117893291D01*
X161096231Y-117935041D01*
X161629217Y-118468027D01*
X161629217Y-121656047D01*
X159349994Y-123935270D01*
X157543586Y-123935270D01*
X157572983Y-123864475D01*
X157573217Y-123596699D01*
X157470959Y-123349217D01*
X157281778Y-123159706D01*
X157034475Y-123057017D01*
X156766699Y-123056783D01*
X156519217Y-123159041D01*
X156329706Y-123348222D01*
X156310863Y-123393600D01*
X154015387Y-123393600D01*
X153851778Y-123229706D01*
X153604475Y-123127017D01*
X153336699Y-123126783D01*
X153089217Y-123229041D01*
X152899706Y-123418222D01*
X152797017Y-123665525D01*
X152796783Y-123933301D01*
X152899041Y-124180783D01*
X153088222Y-124370294D01*
X153335525Y-124472983D01*
X153603301Y-124473217D01*
X153850783Y-124370959D01*
X154015629Y-124206400D01*
X154771577Y-124206400D01*
X154675018Y-124302791D01*
X154572329Y-124550094D01*
X154572095Y-124817870D01*
X154674353Y-125065352D01*
X154863534Y-125254863D01*
X155110837Y-125357552D01*
X155378613Y-125357786D01*
X155626095Y-125255528D01*
X155815606Y-125066347D01*
X155918295Y-124819044D01*
X155918357Y-124748070D01*
X159518330Y-124748070D01*
X159673853Y-124717135D01*
X159805698Y-124629038D01*
X161420004Y-123014732D01*
X161419483Y-123612452D01*
X161697527Y-124285371D01*
X162211921Y-124800664D01*
X162884354Y-125079882D01*
X163612452Y-125080517D01*
X164285371Y-124802473D01*
X164800664Y-124288079D01*
X165079882Y-123615646D01*
X165080517Y-122887548D01*
X164802473Y-122214629D01*
X164288079Y-121699336D01*
X163615646Y-121420118D01*
X162887548Y-121419483D01*
X162442017Y-121603572D01*
X162442017Y-118743393D01*
X162585525Y-118802983D01*
X162853301Y-118803217D01*
X163100783Y-118700959D01*
X163290294Y-118511778D01*
X163392983Y-118264475D01*
X163393168Y-118052796D01*
X163491199Y-118093502D01*
X163758975Y-118093736D01*
X164006457Y-117991478D01*
X164195968Y-117802297D01*
X164298657Y-117554994D01*
X164298879Y-117300727D01*
X164344038Y-117233143D01*
X164374973Y-117077620D01*
X164374973Y-116673571D01*
X164492130Y-116722219D01*
X164759906Y-116722453D01*
X165007388Y-116620195D01*
X165196899Y-116431014D01*
X165299588Y-116183711D01*
X165299798Y-115943131D01*
X165422112Y-115892592D01*
X165594800Y-115720205D01*
X165594800Y-123210093D01*
X165408979Y-124144277D01*
X164902410Y-124902412D01*
X164144277Y-125408979D01*
X163210092Y-125594800D01*
X132789907Y-125594800D01*
X131855723Y-125408979D01*
X131097588Y-124902410D01*
X130591021Y-124144277D01*
X130485235Y-123612452D01*
X130919483Y-123612452D01*
X131197527Y-124285371D01*
X131711921Y-124800664D01*
X132384354Y-125079882D01*
X133112452Y-125080517D01*
X133785371Y-124802473D01*
X134300664Y-124288079D01*
X134504187Y-123797940D01*
X136538500Y-123797940D01*
X136541879Y-123818285D01*
X136539694Y-123838786D01*
X136543044Y-123875827D01*
X136550187Y-123900068D01*
X136551290Y-123925319D01*
X136559275Y-123957946D01*
X136572258Y-123985786D01*
X136572366Y-123987946D01*
X136573142Y-123989583D01*
X136579181Y-124015796D01*
X136591772Y-124043781D01*
X136612832Y-124073334D01*
X136617242Y-124082641D01*
X136618197Y-124085847D01*
X136619553Y-124087517D01*
X136628376Y-124106134D01*
X136645548Y-124129249D01*
X136665624Y-124147416D01*
X136667673Y-124150292D01*
X136671284Y-124152551D01*
X136671291Y-124152565D01*
X136671863Y-124153062D01*
X136675326Y-124156196D01*
X136700645Y-124187374D01*
X136722368Y-124205391D01*
X136740580Y-124215246D01*
X136742523Y-124217005D01*
X136746361Y-124218375D01*
X136748000Y-124219262D01*
X136769989Y-124238381D01*
X136780514Y-124244398D01*
X136793425Y-124248719D01*
X136804381Y-124256799D01*
X136814514Y-124261558D01*
X136824817Y-124264109D01*
X136833736Y-124269863D01*
X136844786Y-124274233D01*
X136855172Y-124276126D01*
X136864382Y-124281287D01*
X136876708Y-124285297D01*
X136886320Y-124286438D01*
X136895017Y-124290680D01*
X136908975Y-124294356D01*
X136917317Y-124294867D01*
X136925002Y-124298159D01*
X136940951Y-124301531D01*
X136947884Y-124301614D01*
X136954364Y-124304083D01*
X136972660Y-124307179D01*
X136978259Y-124307018D01*
X136983553Y-124308838D01*
X137004552Y-124311685D01*
X137008972Y-124311412D01*
X137013193Y-124312742D01*
X137037255Y-124315370D01*
X137040720Y-124315066D01*
X137044062Y-124316044D01*
X137071542Y-124318479D01*
X137074226Y-124318188D01*
X137076827Y-124318905D01*
X137108084Y-124321177D01*
X137110164Y-124320918D01*
X137112190Y-124321450D01*
X137147580Y-124323586D01*
X137149184Y-124323366D01*
X137150752Y-124323762D01*
X137190635Y-124325790D01*
X137191856Y-124325611D01*
X137193058Y-124325905D01*
X137237787Y-124327855D01*
X137238730Y-124327710D01*
X137239656Y-124327931D01*
X137289592Y-124329829D01*
X137290303Y-124329715D01*
X137291005Y-124329880D01*
X137346504Y-124331755D01*
X137347039Y-124331667D01*
X137347567Y-124331789D01*
X137408986Y-124333669D01*
X137409379Y-124333603D01*
X137409768Y-124333692D01*
X137477465Y-124335606D01*
X137477751Y-124335558D01*
X137478035Y-124335622D01*
X137552366Y-124337597D01*
X137552498Y-124337574D01*
X137552630Y-124337604D01*
X137566169Y-124337953D01*
X137687484Y-124341270D01*
X137801532Y-124344802D01*
X137909704Y-124348603D01*
X138012231Y-124352690D01*
X138109851Y-124357098D01*
X138202959Y-124361849D01*
X138292196Y-124366973D01*
X138378093Y-124372497D01*
X138461175Y-124378446D01*
X138542285Y-124384870D01*
X138621838Y-124391787D01*
X138700710Y-124399258D01*
X138725729Y-124401757D01*
X138850987Y-124415219D01*
X138970630Y-124429730D01*
X139086366Y-124445545D01*
X139198973Y-124462817D01*
X139309401Y-124481730D01*
X139418344Y-124502430D01*
X139526847Y-124525137D01*
X139635565Y-124550001D01*
X139745549Y-124577264D01*
X139857625Y-124607132D01*
X139972565Y-124639796D01*
X140091162Y-124675460D01*
X140214266Y-124714342D01*
X140342845Y-124756708D01*
X140444711Y-124791367D01*
X140490900Y-124807586D01*
X140533703Y-124823279D01*
X140574171Y-124838862D01*
X140613266Y-124854736D01*
X140651857Y-124871279D01*
X140690835Y-124888899D01*
X140731285Y-124908116D01*
X140773855Y-124929269D01*
X140819460Y-124952831D01*
X140868732Y-124979141D01*
X140922541Y-125008658D01*
X140981253Y-125041563D01*
X141045616Y-125078240D01*
X141066133Y-125090031D01*
X141124754Y-125123761D01*
X141124872Y-125123801D01*
X141124965Y-125123882D01*
X141177935Y-125154310D01*
X141178103Y-125154366D01*
X141178234Y-125154481D01*
X141226003Y-125181856D01*
X141226238Y-125181935D01*
X141226426Y-125182098D01*
X141269439Y-125206664D01*
X141269757Y-125206770D01*
X141270010Y-125206989D01*
X141308715Y-125228994D01*
X141309136Y-125229134D01*
X141309472Y-125229423D01*
X141344317Y-125249114D01*
X141344864Y-125249294D01*
X141345304Y-125249670D01*
X141376737Y-125267293D01*
X141377419Y-125267515D01*
X141377965Y-125267978D01*
X141406434Y-125283782D01*
X141407282Y-125284054D01*
X141407965Y-125284627D01*
X141433916Y-125298857D01*
X141434924Y-125299175D01*
X141435737Y-125299848D01*
X141459619Y-125312752D01*
X141460779Y-125313110D01*
X141461719Y-125313877D01*
X141483979Y-125325701D01*
X141485240Y-125326080D01*
X141486269Y-125326907D01*
X141507354Y-125337898D01*
X141508675Y-125338284D01*
X141509757Y-125339139D01*
X141530117Y-125349545D01*
X141531386Y-125349905D01*
X141532428Y-125350715D01*
X141552508Y-125360783D01*
X141553667Y-125361102D01*
X141554621Y-125361833D01*
X141574870Y-125371808D01*
X141575810Y-125372060D01*
X141576587Y-125372648D01*
X141597452Y-125382779D01*
X141597855Y-125382884D01*
X141598189Y-125383136D01*
X141600021Y-125384020D01*
X141602232Y-125384592D01*
X141604071Y-125385940D01*
X141671509Y-125417377D01*
X141676714Y-125418650D01*
X141681134Y-125421681D01*
X141744751Y-125448935D01*
X141751160Y-125450290D01*
X141756702Y-125453785D01*
X141817870Y-125477248D01*
X141825255Y-125478515D01*
X141831761Y-125482228D01*
X141891851Y-125502291D01*
X141899772Y-125503294D01*
X141906886Y-125506922D01*
X141967270Y-125523979D01*
X141975176Y-125524604D01*
X141982404Y-125527876D01*
X142044453Y-125542318D01*
X142051782Y-125542555D01*
X142058586Y-125545288D01*
X142123672Y-125557508D01*
X142130006Y-125557440D01*
X142135963Y-125559579D01*
X142205458Y-125569969D01*
X142210276Y-125569738D01*
X142214860Y-125571239D01*
X142279699Y-125579064D01*
X142284563Y-125578692D01*
X142289240Y-125580077D01*
X142330226Y-125583837D01*
X142334825Y-125583353D01*
X142339298Y-125584546D01*
X142385244Y-125587506D01*
X142388837Y-125587029D01*
X142392356Y-125587888D01*
X142441203Y-125589994D01*
X142444410Y-125589499D01*
X142447577Y-125590208D01*
X142497272Y-125591404D01*
X142500515Y-125590840D01*
X142503740Y-125591497D01*
X142552224Y-125591728D01*
X142555938Y-125591008D01*
X142559662Y-125591681D01*
X142604879Y-125590893D01*
X142608951Y-125590009D01*
X142613068Y-125590650D01*
X142642572Y-125589414D01*
X142649428Y-125587749D01*
X142656438Y-125588545D01*
X142735984Y-125581902D01*
X142744816Y-125579365D01*
X142753989Y-125579907D01*
X142834444Y-125568785D01*
X142842667Y-125565934D01*
X142851375Y-125566002D01*
X142931553Y-125550702D01*
X142939506Y-125547480D01*
X142948080Y-125547114D01*
X143026791Y-125527934D01*
X143034775Y-125524220D01*
X143043540Y-125523390D01*
X143119596Y-125500628D01*
X143127911Y-125496223D01*
X143137215Y-125494819D01*
X143209427Y-125468774D01*
X143218405Y-125463362D01*
X143228659Y-125461160D01*
X143295841Y-125432131D01*
X143302087Y-125427819D01*
X143309424Y-125425898D01*
X143327532Y-125417096D01*
X143333994Y-125412196D01*
X143341733Y-125409770D01*
X143422713Y-125365517D01*
X143432028Y-125357727D01*
X143443323Y-125353277D01*
X143522545Y-125302313D01*
X143530834Y-125294307D01*
X143541248Y-125289364D01*
X143618572Y-125231849D01*
X143625896Y-125223745D01*
X143635444Y-125218436D01*
X143710731Y-125154526D01*
X143717160Y-125146421D01*
X143725877Y-125140854D01*
X143798986Y-125070707D01*
X143804594Y-125062678D01*
X143812531Y-125056940D01*
X143883322Y-124980714D01*
X143888188Y-124972814D01*
X143895399Y-124966976D01*
X143963734Y-124884829D01*
X143967938Y-124877088D01*
X143974487Y-124871199D01*
X144040224Y-124783288D01*
X144043833Y-124775735D01*
X144049776Y-124769837D01*
X144112777Y-124676321D01*
X144115859Y-124668959D01*
X144121253Y-124663079D01*
X144181378Y-124564113D01*
X144183990Y-124556949D01*
X144188887Y-124551105D01*
X144245995Y-124446849D01*
X144248006Y-124440455D01*
X144252107Y-124435151D01*
X144297199Y-124344538D01*
X144298588Y-124339429D01*
X144301694Y-124335142D01*
X144320032Y-124295228D01*
X144321138Y-124290594D01*
X144323823Y-124286662D01*
X144341445Y-124245297D01*
X144342380Y-124240832D01*
X144344851Y-124236996D01*
X144362262Y-124192888D01*
X144362978Y-124188945D01*
X144365069Y-124185525D01*
X144382776Y-124137383D01*
X144383285Y-124134150D01*
X144384939Y-124131324D01*
X144403448Y-124077856D01*
X144403673Y-124076226D01*
X144404489Y-124074800D01*
X144408834Y-124061846D01*
X144408997Y-124060575D01*
X144409625Y-124059458D01*
X144417294Y-124036013D01*
X144417487Y-124034407D01*
X144418266Y-124032992D01*
X144426136Y-124008138D01*
X144477840Y-123987274D01*
X144477928Y-123987216D01*
X144478034Y-123987196D01*
X144514014Y-123972651D01*
X144514197Y-123972531D01*
X144514407Y-123972491D01*
X144548416Y-123958693D01*
X144548607Y-123958568D01*
X144548828Y-123958525D01*
X144580303Y-123945707D01*
X144580528Y-123945559D01*
X144580789Y-123945508D01*
X144609173Y-123933896D01*
X144609445Y-123933716D01*
X144609766Y-123933653D01*
X144634500Y-123923479D01*
X144634879Y-123923227D01*
X144635322Y-123923139D01*
X144655846Y-123914633D01*
X144656437Y-123914238D01*
X144657135Y-123914096D01*
X144672891Y-123907489D01*
X144674106Y-123906669D01*
X144675539Y-123906365D01*
X144685967Y-123901887D01*
X144690365Y-123898866D01*
X144695543Y-123897595D01*
X144700082Y-123895475D01*
X144728769Y-123874413D01*
X144760783Y-123858850D01*
X144760932Y-123858737D01*
X144769346Y-123849252D01*
X144780304Y-123842872D01*
X144789572Y-123830702D01*
X144793763Y-123827823D01*
X144795164Y-123825667D01*
X144805507Y-123818073D01*
X144823846Y-123787809D01*
X144847721Y-123760893D01*
X144851865Y-123748909D01*
X144859546Y-123738823D01*
X144864193Y-123721228D01*
X144873288Y-123706218D01*
X144878593Y-123671608D01*
X144890461Y-123637285D01*
X144889703Y-123624626D01*
X144892940Y-123612369D01*
X144890470Y-123594121D01*
X144893104Y-123576940D01*
X144884828Y-123543210D01*
X144882644Y-123506730D01*
X144877100Y-123495327D01*
X144875400Y-123482762D01*
X144866062Y-123466721D01*
X144864772Y-123461465D01*
X144863449Y-123455370D01*
X144863182Y-123454985D01*
X144861939Y-123449919D01*
X144841478Y-123422050D01*
X144825462Y-123389105D01*
X144815977Y-123380691D01*
X144809597Y-123369733D01*
X144807256Y-123367083D01*
X144796566Y-123358942D01*
X144788909Y-123347902D01*
X144781707Y-123340946D01*
X144779343Y-123339425D01*
X144777704Y-123337143D01*
X144766055Y-123326257D01*
X144764975Y-123325587D01*
X144764228Y-123324563D01*
X144748545Y-123310123D01*
X144747909Y-123309735D01*
X144747467Y-123309135D01*
X144728165Y-123291519D01*
X144727714Y-123291246D01*
X144727400Y-123290823D01*
X144704892Y-123270409D01*
X144704545Y-123270201D01*
X144704301Y-123269873D01*
X144679004Y-123247038D01*
X144678711Y-123246863D01*
X144678508Y-123246592D01*
X144650835Y-123221712D01*
X144650569Y-123221554D01*
X144650383Y-123221306D01*
X144620748Y-123194759D01*
X144620524Y-123194627D01*
X144620367Y-123194418D01*
X144594990Y-123171755D01*
X144594909Y-123171708D01*
X144594854Y-123171634D01*
X144558838Y-123139505D01*
X144527893Y-123111862D01*
X144501995Y-123088661D01*
X144480362Y-123069181D01*
X144472945Y-123062445D01*
X144463521Y-123038964D01*
X144461013Y-123035119D01*
X144460046Y-123030633D01*
X144447732Y-123002192D01*
X144445066Y-122998336D01*
X144443952Y-122993780D01*
X144431121Y-122966248D01*
X144428646Y-122962871D01*
X144427553Y-122958832D01*
X144420958Y-122945543D01*
X144415983Y-122939093D01*
X144413481Y-122931342D01*
X144381032Y-122873132D01*
X144372553Y-122863165D01*
X144367587Y-122851060D01*
X144330359Y-122794935D01*
X144321434Y-122785950D01*
X144315768Y-122774626D01*
X144273079Y-122719655D01*
X144264346Y-122712086D01*
X144258482Y-122702123D01*
X144209649Y-122647376D01*
X144204483Y-122643481D01*
X144200991Y-122638033D01*
X144187848Y-122624380D01*
X144182663Y-122620771D01*
X144179060Y-122615584D01*
X144123551Y-122562045D01*
X144114274Y-122556086D01*
X144107409Y-122547457D01*
X144050129Y-122498974D01*
X144039959Y-122493338D01*
X144032114Y-122484755D01*
X143971860Y-122440459D01*
X143961476Y-122435601D01*
X143953188Y-122427680D01*
X143888756Y-122386706D01*
X143878900Y-122382882D01*
X143870817Y-122376067D01*
X143801003Y-122337547D01*
X143795190Y-122335699D01*
X143790387Y-122331935D01*
X143769401Y-122321318D01*
X143764417Y-122319928D01*
X143760250Y-122316862D01*
X143692196Y-122284990D01*
X143684017Y-122282974D01*
X143676990Y-122278322D01*
X143608976Y-122250487D01*
X143600228Y-122248786D01*
X143592550Y-122244262D01*
X143523348Y-122220090D01*
X143514534Y-122218851D01*
X143506639Y-122214740D01*
X143435019Y-122193858D01*
X143426654Y-122193125D01*
X143419024Y-122189620D01*
X143343759Y-122171653D01*
X143336244Y-122171367D01*
X143329279Y-122168533D01*
X143249139Y-122153109D01*
X143244064Y-122153141D01*
X143239310Y-122151369D01*
X143192842Y-122143852D01*
X143190419Y-122143939D01*
X143188138Y-122143126D01*
X143168302Y-122140206D01*
X143165555Y-122140344D01*
X143162949Y-122139462D01*
X143145620Y-122137196D01*
X143141227Y-122137488D01*
X143137021Y-122136184D01*
X143120805Y-122134488D01*
X143115554Y-122134973D01*
X143110473Y-122133569D01*
X143093972Y-122132358D01*
X143089122Y-122132958D01*
X143084376Y-122131792D01*
X143066196Y-122130981D01*
X143062591Y-122131532D01*
X143059031Y-122130738D01*
X143037774Y-122130245D01*
X143035581Y-122130629D01*
X143033402Y-122130172D01*
X143007677Y-122129911D01*
X143006625Y-122130109D01*
X143005579Y-122129897D01*
X142979096Y-122129794D01*
X142978093Y-122129989D01*
X142977089Y-122129792D01*
X142939874Y-122129870D01*
X142937569Y-122130333D01*
X142935254Y-122129911D01*
X142903583Y-122130414D01*
X142899905Y-122131207D01*
X142896190Y-122130613D01*
X142868558Y-122131662D01*
X142863514Y-122132866D01*
X142858371Y-122132204D01*
X142833272Y-122133923D01*
X142827426Y-122135508D01*
X142821395Y-122134949D01*
X142797326Y-122137460D01*
X142791682Y-122139208D01*
X142785784Y-122138867D01*
X142761238Y-122142292D01*
X142756720Y-122143865D01*
X142751937Y-122143723D01*
X142725409Y-122148187D01*
X142722740Y-122149201D01*
X142719887Y-122149164D01*
X142697923Y-122153239D01*
X142693159Y-122155141D01*
X142688030Y-122155229D01*
X142629175Y-122167992D01*
X142622369Y-122170949D01*
X142614963Y-122171400D01*
X142553866Y-122187467D01*
X142547687Y-122190479D01*
X142540849Y-122191173D01*
X142480396Y-122209710D01*
X142473950Y-122213181D01*
X142466702Y-122214233D01*
X142409778Y-122234405D01*
X142405361Y-122237034D01*
X142400299Y-122237926D01*
X142388921Y-122242349D01*
X142387737Y-122243103D01*
X142386357Y-122243358D01*
X142343179Y-122260551D01*
X142342410Y-122261050D01*
X142341505Y-122261222D01*
X142299130Y-122278360D01*
X142298276Y-122278920D01*
X142297274Y-122279117D01*
X142255316Y-122296379D01*
X142254399Y-122296988D01*
X142253323Y-122297207D01*
X142211393Y-122314774D01*
X142210443Y-122315414D01*
X142209321Y-122315650D01*
X142167032Y-122333702D01*
X142166071Y-122334359D01*
X142164935Y-122334606D01*
X142121900Y-122353324D01*
X142120961Y-122353976D01*
X142119845Y-122354226D01*
X142075676Y-122373790D01*
X142074779Y-122374422D01*
X142073708Y-122374669D01*
X142028016Y-122395260D01*
X142027178Y-122395858D01*
X142026179Y-122396095D01*
X141978578Y-122417892D01*
X141977809Y-122418448D01*
X141976887Y-122418672D01*
X141926989Y-122441857D01*
X141926300Y-122442361D01*
X141925471Y-122442567D01*
X141872888Y-122467320D01*
X141872280Y-122467769D01*
X141871543Y-122467956D01*
X141815887Y-122494458D01*
X141815358Y-122494852D01*
X141814722Y-122495016D01*
X141755607Y-122523445D01*
X141755152Y-122523787D01*
X141754600Y-122523931D01*
X141691636Y-122554470D01*
X141691249Y-122554763D01*
X141690779Y-122554887D01*
X141623581Y-122587716D01*
X141623260Y-122587960D01*
X141622871Y-122588064D01*
X141551050Y-122623362D01*
X141550783Y-122623567D01*
X141550457Y-122623654D01*
X141473624Y-122661603D01*
X141473407Y-122661770D01*
X141473140Y-122661842D01*
X141390909Y-122702623D01*
X141390735Y-122702757D01*
X141390522Y-122702815D01*
X141302505Y-122746606D01*
X141302414Y-122746677D01*
X141302302Y-122746707D01*
X141279794Y-122757925D01*
X141279792Y-122757925D01*
X141201822Y-122796715D01*
X141129922Y-122832308D01*
X141063537Y-122864964D01*
X141002217Y-122894892D01*
X140945247Y-122922429D01*
X140892249Y-122947750D01*
X140843079Y-122970920D01*
X140796742Y-122992409D01*
X140753107Y-123012280D01*
X140711388Y-123030900D01*
X140671230Y-123048437D01*
X140631773Y-123065280D01*
X140592885Y-123081502D01*
X140553615Y-123097520D01*
X140513604Y-123113500D01*
X140481065Y-123126279D01*
X140481063Y-123126280D01*
X140457555Y-123135511D01*
X140456867Y-123135953D01*
X140456064Y-123136101D01*
X140434670Y-123144620D01*
X140433855Y-123145149D01*
X140432903Y-123145330D01*
X140414534Y-123152766D01*
X140413389Y-123153518D01*
X140412045Y-123153785D01*
X140397590Y-123159772D01*
X140395358Y-123161263D01*
X140392735Y-123161828D01*
X140383087Y-123166003D01*
X140374840Y-123171703D01*
X140365180Y-123174387D01*
X140361239Y-123176376D01*
X140353908Y-123182110D01*
X140345095Y-123185087D01*
X140311117Y-123214797D01*
X140295557Y-123214462D01*
X140265596Y-123213198D01*
X140263993Y-123213784D01*
X140254306Y-123213576D01*
X140251957Y-123213991D01*
X140245151Y-123216640D01*
X140241366Y-123216745D01*
X140237725Y-123216824D01*
X140223775Y-123219917D01*
X140207650Y-123222927D01*
X140184287Y-123226792D01*
X140156814Y-123230902D01*
X140127648Y-123234867D01*
X140098607Y-123238422D01*
X140070683Y-123241419D01*
X140064584Y-123242000D01*
X140039757Y-123243979D01*
X140016597Y-123245226D01*
X139992664Y-123245869D01*
X139966695Y-123245878D01*
X139937638Y-123245178D01*
X139904569Y-123243665D01*
X139866859Y-123241248D01*
X139823695Y-123237832D01*
X139774552Y-123233355D01*
X139719016Y-123227783D01*
X139660167Y-123221477D01*
X139574448Y-123211501D01*
X139482580Y-123199743D01*
X139384002Y-123186143D01*
X139279469Y-123170807D01*
X139169190Y-123153772D01*
X139053684Y-123135118D01*
X138933369Y-123114920D01*
X138808496Y-123093217D01*
X138679705Y-123070124D01*
X138547144Y-123045665D01*
X138411288Y-123019925D01*
X138272536Y-122992976D01*
X138131095Y-122964852D01*
X137987663Y-122935687D01*
X137842203Y-122905464D01*
X137695115Y-122874254D01*
X137547251Y-122842229D01*
X137460246Y-122823080D01*
X137416014Y-122813284D01*
X137415258Y-122813268D01*
X137414566Y-122812967D01*
X137376348Y-122804680D01*
X137373960Y-122804639D01*
X137371754Y-122803717D01*
X137339180Y-122797130D01*
X137334269Y-122797114D01*
X137329688Y-122795353D01*
X137302123Y-122790601D01*
X137293400Y-122790825D01*
X137285106Y-122788115D01*
X137261919Y-122785333D01*
X137247625Y-122786435D01*
X137233670Y-122783150D01*
X137214226Y-122782472D01*
X137192537Y-122786006D01*
X137170674Y-122783787D01*
X137154341Y-122785347D01*
X137140329Y-122789552D01*
X137139017Y-122789425D01*
X137123068Y-122794288D01*
X137094648Y-122796576D01*
X137080794Y-122800510D01*
X137063483Y-122809370D01*
X137059131Y-122809852D01*
X137043106Y-122818671D01*
X137030451Y-122822530D01*
X137029074Y-122822943D01*
X137029061Y-122822954D01*
X137013915Y-122827572D01*
X137001905Y-122834015D01*
X136979839Y-122852178D01*
X136964368Y-122860096D01*
X136961316Y-122863682D01*
X136944548Y-122872910D01*
X136933751Y-122881994D01*
X136916879Y-122903072D01*
X136895602Y-122919698D01*
X136885384Y-122931558D01*
X136876748Y-122946824D01*
X136864121Y-122958992D01*
X136853849Y-122973764D01*
X136850030Y-122982521D01*
X136843537Y-122989523D01*
X136832579Y-123007341D01*
X136831260Y-123010900D01*
X136828740Y-123013741D01*
X136816462Y-123034739D01*
X136816327Y-123035131D01*
X136816052Y-123035442D01*
X136811773Y-123042802D01*
X136811154Y-123044606D01*
X136809907Y-123046052D01*
X136772638Y-123111830D01*
X136771356Y-123115709D01*
X136768762Y-123118866D01*
X136733830Y-123184116D01*
X136732606Y-123188142D01*
X136730013Y-123191461D01*
X136697812Y-123255353D01*
X136696606Y-123259704D01*
X136693922Y-123263333D01*
X136664848Y-123325034D01*
X136663627Y-123329940D01*
X136660745Y-123334089D01*
X136635193Y-123392768D01*
X136633932Y-123398559D01*
X136630720Y-123403546D01*
X136609084Y-123458372D01*
X136607934Y-123464708D01*
X136604654Y-123470250D01*
X136590789Y-123509690D01*
X136589559Y-123518315D01*
X136585513Y-123526026D01*
X136570053Y-123578439D01*
X136568962Y-123590467D01*
X136564124Y-123601536D01*
X136553408Y-123650447D01*
X136553134Y-123664632D01*
X136548559Y-123678059D01*
X136542559Y-123723242D01*
X136543650Y-123740178D01*
X136539811Y-123756713D01*
X136538500Y-123797940D01*
X134504187Y-123797940D01*
X134579882Y-123615646D01*
X134580517Y-122887548D01*
X134302473Y-122214629D01*
X133788079Y-121699336D01*
X133115646Y-121420118D01*
X132387548Y-121419483D01*
X131714629Y-121697527D01*
X131199336Y-122211921D01*
X130920118Y-122884354D01*
X130919483Y-123612452D01*
X130485235Y-123612452D01*
X130405200Y-123210092D01*
X130405200Y-119093301D01*
X144816783Y-119093301D01*
X144919041Y-119340783D01*
X145108222Y-119530294D01*
X145355525Y-119632983D01*
X145623301Y-119633217D01*
X145870783Y-119530959D01*
X145984740Y-119417200D01*
X146148331Y-119417200D01*
X146148331Y-119510000D01*
X146171356Y-119632365D01*
X146243673Y-119744749D01*
X146354017Y-119820144D01*
X146485000Y-119846669D01*
X147235000Y-119846669D01*
X147357365Y-119823644D01*
X147469749Y-119751327D01*
X147545144Y-119640983D01*
X147571669Y-119510000D01*
X147571669Y-119387200D01*
X147782685Y-119387200D01*
X147848673Y-119489749D01*
X147959017Y-119565144D01*
X148090000Y-119591669D01*
X149150000Y-119591669D01*
X149272365Y-119568644D01*
X149384749Y-119496327D01*
X149460144Y-119385983D01*
X149486669Y-119255000D01*
X149486669Y-118794515D01*
X149645261Y-118635922D01*
X149734200Y-118421204D01*
X149734200Y-118288550D01*
X149588150Y-118142500D01*
X148797800Y-118142500D01*
X148797800Y-118177800D01*
X148442200Y-118177800D01*
X148442200Y-118142500D01*
X148422200Y-118142500D01*
X148422200Y-117817500D01*
X148442200Y-117817500D01*
X148442200Y-117782200D01*
X148797800Y-117782200D01*
X148797800Y-117817500D01*
X149588150Y-117817500D01*
X149734200Y-117671450D01*
X149734200Y-117538796D01*
X149645261Y-117324078D01*
X149486669Y-117165485D01*
X149486669Y-116705000D01*
X149953331Y-116705000D01*
X149953331Y-117355000D01*
X149976356Y-117477365D01*
X150048673Y-117589749D01*
X150159017Y-117665144D01*
X150290000Y-117691669D01*
X151350000Y-117691669D01*
X151472365Y-117668644D01*
X151584749Y-117596327D01*
X151610800Y-117558200D01*
X151610800Y-117766205D01*
X151699739Y-117980923D01*
X151864078Y-118145261D01*
X151919551Y-118168239D01*
X151884856Y-118219017D01*
X151858331Y-118350000D01*
X151858331Y-118498200D01*
X151666573Y-118498200D01*
X151663644Y-118482635D01*
X151591327Y-118370251D01*
X151480983Y-118294856D01*
X151350000Y-118268331D01*
X150290000Y-118268331D01*
X150167635Y-118291356D01*
X150055251Y-118363673D01*
X149979856Y-118474017D01*
X149953331Y-118605000D01*
X149953331Y-119255000D01*
X149976356Y-119377365D01*
X150048673Y-119489749D01*
X150159017Y-119565144D01*
X150290000Y-119591669D01*
X151350000Y-119591669D01*
X151472365Y-119568644D01*
X151584749Y-119496327D01*
X151660144Y-119385983D01*
X151665041Y-119361800D01*
X151858331Y-119361800D01*
X151858331Y-119550000D01*
X151881356Y-119672365D01*
X151896108Y-119695291D01*
X151669217Y-119789041D01*
X151479706Y-119978222D01*
X151377017Y-120225525D01*
X151376783Y-120493301D01*
X151479041Y-120740783D01*
X151668222Y-120930294D01*
X151915525Y-121032983D01*
X152183301Y-121033217D01*
X152430783Y-120930959D01*
X152620294Y-120741778D01*
X152722983Y-120494475D01*
X152723155Y-120297503D01*
X152875329Y-120145329D01*
X152935904Y-120054671D01*
X152968931Y-120005243D01*
X152994365Y-119877380D01*
X153067365Y-119863644D01*
X153179749Y-119791327D01*
X153255144Y-119680983D01*
X153281669Y-119550000D01*
X153281669Y-119381800D01*
X158924458Y-119381800D01*
X158999041Y-119562303D01*
X159188222Y-119751814D01*
X159435525Y-119854503D01*
X159703301Y-119854737D01*
X159950783Y-119752479D01*
X160140294Y-119563298D01*
X160242983Y-119315995D01*
X160243217Y-119048219D01*
X160140959Y-118800737D01*
X159951778Y-118611226D01*
X159704475Y-118508537D01*
X159436699Y-118508303D01*
X159388613Y-118528172D01*
X159338480Y-118518200D01*
X153281669Y-118518200D01*
X153281669Y-118350000D01*
X153258644Y-118227635D01*
X153220429Y-118168247D01*
X153275922Y-118145261D01*
X153440261Y-117980923D01*
X153529200Y-117766205D01*
X153529200Y-117373850D01*
X153383150Y-117227800D01*
X152747800Y-117227800D01*
X152747800Y-117247800D01*
X152392200Y-117247800D01*
X152392200Y-117227800D01*
X152372200Y-117227800D01*
X152372200Y-116872200D01*
X152392200Y-116872200D01*
X152392200Y-116011850D01*
X152747800Y-116011850D01*
X152747800Y-116872200D01*
X153383150Y-116872200D01*
X153529200Y-116726150D01*
X153529200Y-116333795D01*
X153440261Y-116119077D01*
X153275922Y-115954739D01*
X153061204Y-115865800D01*
X152893850Y-115865800D01*
X152747800Y-116011850D01*
X152392200Y-116011850D01*
X152246150Y-115865800D01*
X152078796Y-115865800D01*
X151864078Y-115954739D01*
X151699739Y-116119077D01*
X151610800Y-116333795D01*
X151610800Y-116500513D01*
X151591327Y-116470251D01*
X151480983Y-116394856D01*
X151350000Y-116368331D01*
X150290000Y-116368331D01*
X150167635Y-116391356D01*
X150055251Y-116463673D01*
X149979856Y-116574017D01*
X149953331Y-116705000D01*
X149486669Y-116705000D01*
X149463644Y-116582635D01*
X149391327Y-116470251D01*
X149280983Y-116394856D01*
X149150000Y-116368331D01*
X148090000Y-116368331D01*
X147967635Y-116391356D01*
X147855251Y-116463673D01*
X147819200Y-116516435D01*
X147819200Y-116293795D01*
X147730261Y-116079077D01*
X147565922Y-115914739D01*
X147351204Y-115825800D01*
X147183850Y-115825800D01*
X147037800Y-115971850D01*
X147037800Y-116832200D01*
X147057800Y-116832200D01*
X147057800Y-117187800D01*
X147037800Y-117187800D01*
X147037800Y-117207800D01*
X146682200Y-117207800D01*
X146682200Y-117187800D01*
X146046850Y-117187800D01*
X145900800Y-117333850D01*
X145900800Y-117726205D01*
X145989739Y-117940923D01*
X146154078Y-118105261D01*
X146209551Y-118128239D01*
X146174856Y-118179017D01*
X146148331Y-118310000D01*
X146148331Y-118502800D01*
X145984675Y-118502800D01*
X145871778Y-118389706D01*
X145624475Y-118287017D01*
X145356699Y-118286783D01*
X145109217Y-118389041D01*
X144919706Y-118578222D01*
X144817017Y-118825525D01*
X144816783Y-119093301D01*
X130405200Y-119093301D01*
X130405200Y-116293795D01*
X145900800Y-116293795D01*
X145900800Y-116686150D01*
X146046850Y-116832200D01*
X146682200Y-116832200D01*
X146682200Y-115971850D01*
X146536150Y-115825800D01*
X146368796Y-115825800D01*
X146154078Y-115914739D01*
X145989739Y-116079077D01*
X145900800Y-116293795D01*
X130405200Y-116293795D01*
X130405200Y-114483301D01*
X132386783Y-114483301D01*
X132489041Y-114730783D01*
X132678222Y-114920294D01*
X132925525Y-115022983D01*
X133193301Y-115023217D01*
X133341941Y-114961800D01*
X134609969Y-114961800D01*
X134748222Y-115100294D01*
X134995525Y-115202983D01*
X135263301Y-115203217D01*
X135510783Y-115100959D01*
X135700294Y-114911778D01*
X135802983Y-114664475D01*
X135803217Y-114396699D01*
X135700959Y-114149217D01*
X135511778Y-113959706D01*
X135264475Y-113857017D01*
X134996699Y-113856783D01*
X134749217Y-113959041D01*
X134609815Y-114098200D01*
X133684254Y-114098200D01*
X133630959Y-113969217D01*
X133441778Y-113779706D01*
X133194475Y-113677017D01*
X132926699Y-113676783D01*
X132679217Y-113779041D01*
X132489706Y-113968222D01*
X132387017Y-114215525D01*
X132386783Y-114483301D01*
X130405200Y-114483301D01*
X130405200Y-110563301D01*
X152316783Y-110563301D01*
X152419041Y-110810783D01*
X152583600Y-110975629D01*
X152583600Y-112504579D01*
X152439706Y-112648222D01*
X152337017Y-112895525D01*
X152336783Y-113163301D01*
X152439041Y-113410783D01*
X152628222Y-113600294D01*
X152875525Y-113702983D01*
X153143301Y-113703217D01*
X153390783Y-113600959D01*
X153580294Y-113411778D01*
X153682983Y-113164475D01*
X153683217Y-112896699D01*
X153580959Y-112649217D01*
X153396400Y-112464336D01*
X153396400Y-110975387D01*
X153560294Y-110811778D01*
X153662983Y-110564475D01*
X153663217Y-110296699D01*
X153560959Y-110049217D01*
X153371778Y-109859706D01*
X153124475Y-109757017D01*
X152856699Y-109756783D01*
X152609217Y-109859041D01*
X152419706Y-110048222D01*
X152317017Y-110295525D01*
X152316783Y-110563301D01*
X130405200Y-110563301D01*
X130405200Y-107363383D01*
X130513077Y-107471261D01*
X130727795Y-107560200D01*
X131536150Y-107560200D01*
X131682200Y-107414150D01*
X131682200Y-106137800D01*
X132037800Y-106137800D01*
X132037800Y-107414150D01*
X132183850Y-107560200D01*
X132992205Y-107560200D01*
X133206923Y-107471261D01*
X133371261Y-107306922D01*
X133460200Y-107092204D01*
X133460200Y-106283850D01*
X133314150Y-106137800D01*
X132037800Y-106137800D01*
X131682200Y-106137800D01*
X131662200Y-106137800D01*
X131662200Y-105782200D01*
X131682200Y-105782200D01*
X131682200Y-105762200D01*
X132037800Y-105762200D01*
X132037800Y-105782200D01*
X133314150Y-105782200D01*
X133460200Y-105636150D01*
X133460200Y-104827796D01*
X133371261Y-104613078D01*
X133206923Y-104448739D01*
X132992205Y-104359800D01*
X132846371Y-104359800D01*
X133130101Y-103935168D01*
X133232574Y-103420000D01*
X133130101Y-102904832D01*
X132838281Y-102468093D01*
X132401542Y-102176273D01*
X131886374Y-102073800D01*
X131833626Y-102073800D01*
X131318458Y-102176273D01*
X130881719Y-102468093D01*
X130589899Y-102904832D01*
X130487426Y-103420000D01*
X130589899Y-103935168D01*
X130873629Y-104359800D01*
X130727795Y-104359800D01*
X130513077Y-104448739D01*
X130405200Y-104556617D01*
X130405200Y-93112452D01*
X130919483Y-93112452D01*
X131197527Y-93785371D01*
X131711921Y-94300664D01*
X132384354Y-94579882D01*
X133112452Y-94580517D01*
X133785371Y-94302473D01*
X134300664Y-93788079D01*
X134579882Y-93115646D01*
X134580517Y-92387548D01*
X134302473Y-91714629D01*
X133788079Y-91199336D01*
X133115646Y-90920118D01*
X132387548Y-90919483D01*
X131714629Y-91197527D01*
X131199336Y-91711921D01*
X130920118Y-92384354D01*
X130919483Y-93112452D01*
X130405200Y-93112452D01*
X130405200Y-92789908D01*
X130591021Y-91855723D01*
X131097588Y-91097590D01*
X131855723Y-90591021D01*
X132789907Y-90405200D01*
X157850322Y-90405200D01*
X157624618Y-90630511D01*
X157624618Y-90630511D01*
G37*
X157624618Y-90630511D02*
X157556897Y-90793600D01*
X157486669Y-90793600D01*
X157486669Y-90750000D01*
X157463644Y-90627635D01*
X157391327Y-90515251D01*
X157280983Y-90439856D01*
X157150000Y-90413331D01*
X155950000Y-90413331D01*
X155827635Y-90436356D01*
X155715251Y-90508673D01*
X155639856Y-90619017D01*
X155613331Y-90750000D01*
X155613331Y-91411933D01*
X155264172Y-91761092D01*
X155286669Y-91650000D01*
X155286669Y-90750000D01*
X155263644Y-90627635D01*
X155191327Y-90515251D01*
X155080983Y-90439856D01*
X154950000Y-90413331D01*
X153750000Y-90413331D01*
X153627635Y-90436356D01*
X153515251Y-90508673D01*
X153439856Y-90619017D01*
X153413331Y-90750000D01*
X153413331Y-91650000D01*
X153436356Y-91772365D01*
X153508673Y-91884749D01*
X153619017Y-91960144D01*
X153663166Y-91969085D01*
X153652085Y-91995771D01*
X153651851Y-92263547D01*
X153754109Y-92511029D01*
X153894894Y-92652059D01*
X153827017Y-92815525D01*
X153826901Y-92948363D01*
X153698279Y-93076985D01*
X153466699Y-93076783D01*
X153219217Y-93179041D01*
X153029706Y-93368222D01*
X152927017Y-93615525D01*
X152926783Y-93883301D01*
X153029041Y-94130783D01*
X153218222Y-94320294D01*
X153331176Y-94367197D01*
X153057821Y-94640552D01*
X152969724Y-94772397D01*
X152938789Y-94927920D01*
X152938789Y-97659584D01*
X152466319Y-98132054D01*
X152378222Y-98263899D01*
X152347287Y-98419422D01*
X152347287Y-99530578D01*
X152378222Y-99686101D01*
X152428013Y-99760617D01*
X152466319Y-99817946D01*
X152938789Y-100290416D01*
X152938789Y-102107994D01*
X152969724Y-102263517D01*
X153030195Y-102354017D01*
X153057821Y-102395362D01*
X154513863Y-103851404D01*
X154645708Y-103939501D01*
X154801231Y-103970436D01*
X155354824Y-103970436D01*
X155510347Y-103939501D01*
X155578244Y-103894133D01*
X155831024Y-103894354D01*
X156078506Y-103792096D01*
X156113149Y-103757513D01*
X157497142Y-104933678D01*
X157552302Y-104964391D01*
X157604793Y-104999465D01*
X157621129Y-105002714D01*
X157628331Y-105006724D01*
X157628331Y-105115000D01*
X157644912Y-105203120D01*
X157628331Y-105285000D01*
X157628331Y-105515000D01*
X157642555Y-105590590D01*
X156837080Y-104906070D01*
X156761965Y-104830824D01*
X156514662Y-104728135D01*
X156246886Y-104727901D01*
X155999404Y-104830159D01*
X155809893Y-105019340D01*
X155707204Y-105266643D01*
X155706994Y-105507222D01*
X155584679Y-105557762D01*
X155395168Y-105746943D01*
X155292479Y-105994246D01*
X155292245Y-106262022D01*
X155394503Y-106509504D01*
X155583684Y-106699015D01*
X155789110Y-106784315D01*
X155736400Y-106836934D01*
X155633711Y-107084237D01*
X155633477Y-107352013D01*
X155735735Y-107599495D01*
X155924916Y-107789006D01*
X156172219Y-107891695D01*
X156439995Y-107891929D01*
X156459463Y-107883885D01*
X156491691Y-107961883D01*
X156529843Y-108000101D01*
X156492356Y-108037523D01*
X156459617Y-108116366D01*
X156441169Y-108108706D01*
X156173393Y-108108472D01*
X155925911Y-108210730D01*
X155736400Y-108399911D01*
X155633711Y-108647214D01*
X155633477Y-108914990D01*
X155735735Y-109162472D01*
X155789330Y-109216160D01*
X155584679Y-109300721D01*
X155395168Y-109489902D01*
X155292479Y-109737205D01*
X155292245Y-110004981D01*
X155394503Y-110252463D01*
X155448098Y-110306151D01*
X155243448Y-110390711D01*
X155053937Y-110579892D01*
X154951248Y-110827195D01*
X154951014Y-111094971D01*
X155053272Y-111342453D01*
X155106867Y-111396141D01*
X154902216Y-111480702D01*
X154712705Y-111669883D01*
X154610016Y-111917186D01*
X154609782Y-112184962D01*
X154712040Y-112432444D01*
X154765634Y-112486132D01*
X154560984Y-112570692D01*
X154371473Y-112759873D01*
X154268784Y-113007176D01*
X154268550Y-113274952D01*
X154370808Y-113522434D01*
X154424403Y-113576122D01*
X154219752Y-113660683D01*
X154030241Y-113849864D01*
X153927552Y-114097167D01*
X153927318Y-114364943D01*
X154029576Y-114612425D01*
X154083171Y-114666113D01*
X153878520Y-114750674D01*
X153689009Y-114939855D01*
X153586320Y-115187158D01*
X153586086Y-115454934D01*
X153688344Y-115702416D01*
X153877525Y-115891927D01*
X154001019Y-115943206D01*
X154000810Y-116182537D01*
X154103068Y-116430019D01*
X154292249Y-116619530D01*
X154539552Y-116722219D01*
X154807328Y-116722453D01*
X155054810Y-116620195D01*
X155130467Y-116544670D01*
X155175417Y-116506470D01*
X155177937Y-116523615D01*
X155087772Y-116613623D01*
X154985083Y-116860926D01*
X154984849Y-117128702D01*
X155087107Y-117376184D01*
X155276288Y-117565695D01*
X155523591Y-117668384D01*
X155791367Y-117668618D01*
X156038849Y-117566360D01*
X156228360Y-117377179D01*
X156272769Y-117270229D01*
X156407045Y-117404739D01*
X156654348Y-117507428D01*
X156922124Y-117507662D01*
X157169606Y-117405404D01*
X157359117Y-117216223D01*
X157461806Y-116968920D01*
X157461959Y-116794244D01*
X157616038Y-116730580D01*
X157582634Y-116811026D01*
X157582400Y-117078802D01*
X157684658Y-117326284D01*
X157873839Y-117515795D01*
X158121142Y-117618484D01*
X158388918Y-117618718D01*
X158636400Y-117516460D01*
X158825911Y-117327279D01*
X158928600Y-117079976D01*
X158928834Y-116812200D01*
X158871677Y-116673870D01*
X158935144Y-116580983D01*
X158961669Y-116450000D01*
X158961669Y-116100000D01*
X158943625Y-116004105D01*
X158961669Y-115915000D01*
X158961669Y-115685000D01*
X158945088Y-115596880D01*
X158961669Y-115515000D01*
X158961669Y-115285000D01*
X158945088Y-115196880D01*
X158961669Y-115115000D01*
X158961669Y-114885000D01*
X158945088Y-114796880D01*
X158961669Y-114715000D01*
X158961669Y-114485000D01*
X158945088Y-114396880D01*
X158961669Y-114315000D01*
X158961669Y-114085000D01*
X158945088Y-113996880D01*
X158961669Y-113915000D01*
X158961669Y-113685000D01*
X158945088Y-113596880D01*
X158961669Y-113515000D01*
X158961669Y-113285000D01*
X158945088Y-113196880D01*
X158961669Y-113115000D01*
X158961669Y-112885000D01*
X158945088Y-112796880D01*
X158961669Y-112715000D01*
X158961669Y-112485000D01*
X158945088Y-112396880D01*
X158961669Y-112315000D01*
X158961669Y-112085000D01*
X158945088Y-111996880D01*
X158961669Y-111915000D01*
X158961669Y-111685000D01*
X158945088Y-111596880D01*
X158961669Y-111515000D01*
X158961669Y-111285000D01*
X158945088Y-111196880D01*
X158961669Y-111115000D01*
X158961669Y-110885000D01*
X158945088Y-110796880D01*
X158961669Y-110715000D01*
X158961669Y-110485000D01*
X158945088Y-110396880D01*
X158961669Y-110315000D01*
X158961669Y-110085000D01*
X158945088Y-109996880D01*
X158961669Y-109915000D01*
X158961669Y-109685000D01*
X158945088Y-109596880D01*
X158961669Y-109515000D01*
X158961669Y-109285000D01*
X158945088Y-109196880D01*
X158961669Y-109115000D01*
X158961669Y-108885000D01*
X158945088Y-108796880D01*
X158961669Y-108715000D01*
X158961669Y-108485000D01*
X158945088Y-108396880D01*
X158961669Y-108315000D01*
X158961669Y-108085000D01*
X158945088Y-107996880D01*
X158961669Y-107915000D01*
X158961669Y-107685000D01*
X158945088Y-107596880D01*
X158961669Y-107515000D01*
X158961669Y-107285000D01*
X158945088Y-107196880D01*
X158961669Y-107115000D01*
X158961669Y-106885000D01*
X158945088Y-106796880D01*
X158961669Y-106715000D01*
X158961669Y-106485000D01*
X158945088Y-106396880D01*
X158961669Y-106315000D01*
X158961669Y-106206400D01*
X159531067Y-106206400D01*
X159686590Y-106175465D01*
X159818435Y-106087368D01*
X160232557Y-105673246D01*
X160251780Y-105644477D01*
X160320654Y-105541401D01*
X160338331Y-105452531D01*
X160338331Y-105515000D01*
X160354912Y-105603120D01*
X160338331Y-105685000D01*
X160338331Y-105915000D01*
X160351793Y-105986543D01*
X160344077Y-105989739D01*
X160179739Y-106154078D01*
X160090800Y-106368796D01*
X160090800Y-106396450D01*
X160214083Y-106519733D01*
X160179739Y-106554078D01*
X160090800Y-106768796D01*
X160090800Y-106796450D01*
X160094350Y-106800000D01*
X160090800Y-106803550D01*
X160090800Y-106831204D01*
X160160718Y-107000000D01*
X160090800Y-107168796D01*
X160090800Y-107196450D01*
X160094350Y-107200000D01*
X160090800Y-107203550D01*
X160090800Y-107231204D01*
X160160718Y-107400000D01*
X160090800Y-107568796D01*
X160090800Y-107596450D01*
X160094350Y-107600000D01*
X160090800Y-107603550D01*
X160090800Y-107631204D01*
X160160718Y-107800000D01*
X160090800Y-107968796D01*
X160090800Y-107996450D01*
X160094350Y-108000000D01*
X160090800Y-108003550D01*
X160090800Y-108031204D01*
X160160718Y-108200000D01*
X160090800Y-108368796D01*
X160090800Y-108396450D01*
X160094350Y-108400000D01*
X160090800Y-108403550D01*
X160090800Y-108431204D01*
X160160718Y-108600000D01*
X160090800Y-108768796D01*
X160090800Y-108796450D01*
X160094350Y-108800000D01*
X160090800Y-108803550D01*
X160090800Y-108831204D01*
X160160718Y-109000000D01*
X160090800Y-109168796D01*
X160090800Y-109196450D01*
X160094350Y-109200000D01*
X160090800Y-109203550D01*
X160090800Y-109231204D01*
X160179739Y-109445922D01*
X160214083Y-109480267D01*
X160090800Y-109603550D01*
X160090800Y-109631204D01*
X160179739Y-109845922D01*
X160344077Y-110010261D01*
X160352740Y-110013849D01*
X160338331Y-110085000D01*
X160338331Y-110315000D01*
X160354912Y-110403120D01*
X160338331Y-110485000D01*
X160338331Y-110715000D01*
X160354912Y-110803120D01*
X160338331Y-110885000D01*
X160338331Y-111115000D01*
X160354912Y-111203120D01*
X160338331Y-111285000D01*
X160338331Y-111515000D01*
X160354912Y-111603120D01*
X160338331Y-111685000D01*
X160338331Y-111915000D01*
X160354912Y-112003120D01*
X160338331Y-112085000D01*
X160338331Y-112315000D01*
X160354912Y-112403120D01*
X160338331Y-112485000D01*
X160338331Y-112715000D01*
X160354912Y-112803120D01*
X160338331Y-112885000D01*
X160338331Y-113115000D01*
X160354912Y-113203120D01*
X160338331Y-113285000D01*
X160338331Y-113515000D01*
X160354912Y-113603120D01*
X160338331Y-113685000D01*
X160338331Y-113915000D01*
X160354912Y-114003120D01*
X160338331Y-114085000D01*
X160338331Y-114315000D01*
X160354912Y-114403120D01*
X160338331Y-114485000D01*
X160338331Y-114715000D01*
X160354912Y-114803120D01*
X160338331Y-114885000D01*
X160338331Y-115115000D01*
X160354912Y-115203120D01*
X160338331Y-115285000D01*
X160338331Y-115515000D01*
X160354912Y-115603120D01*
X160338331Y-115685000D01*
X160338331Y-115915000D01*
X160356375Y-116010895D01*
X160338331Y-116100000D01*
X160338331Y-116450000D01*
X160353525Y-116530746D01*
X160247508Y-116636578D01*
X160144819Y-116883881D01*
X160144585Y-117151657D01*
X160246843Y-117399139D01*
X160436024Y-117588650D01*
X160683327Y-117691339D01*
X160951103Y-117691573D01*
X160983286Y-117678275D01*
X161008134Y-117803196D01*
X161068334Y-117893291D01*
X161096231Y-117935041D01*
X161629217Y-118468027D01*
X161629217Y-121656047D01*
X159349994Y-123935270D01*
X157543586Y-123935270D01*
X157572983Y-123864475D01*
X157573217Y-123596699D01*
X157470959Y-123349217D01*
X157281778Y-123159706D01*
X157034475Y-123057017D01*
X156766699Y-123056783D01*
X156519217Y-123159041D01*
X156329706Y-123348222D01*
X156310863Y-123393600D01*
X154015387Y-123393600D01*
X153851778Y-123229706D01*
X153604475Y-123127017D01*
X153336699Y-123126783D01*
X153089217Y-123229041D01*
X152899706Y-123418222D01*
X152797017Y-123665525D01*
X152796783Y-123933301D01*
X152899041Y-124180783D01*
X153088222Y-124370294D01*
X153335525Y-124472983D01*
X153603301Y-124473217D01*
X153850783Y-124370959D01*
X154015629Y-124206400D01*
X154771577Y-124206400D01*
X154675018Y-124302791D01*
X154572329Y-124550094D01*
X154572095Y-124817870D01*
X154674353Y-125065352D01*
X154863534Y-125254863D01*
X155110837Y-125357552D01*
X155378613Y-125357786D01*
X155626095Y-125255528D01*
X155815606Y-125066347D01*
X155918295Y-124819044D01*
X155918357Y-124748070D01*
X159518330Y-124748070D01*
X159673853Y-124717135D01*
X159805698Y-124629038D01*
X161420004Y-123014732D01*
X161419483Y-123612452D01*
X161697527Y-124285371D01*
X162211921Y-124800664D01*
X162884354Y-125079882D01*
X163612452Y-125080517D01*
X164285371Y-124802473D01*
X164800664Y-124288079D01*
X165079882Y-123615646D01*
X165080517Y-122887548D01*
X164802473Y-122214629D01*
X164288079Y-121699336D01*
X163615646Y-121420118D01*
X162887548Y-121419483D01*
X162442017Y-121603572D01*
X162442017Y-118743393D01*
X162585525Y-118802983D01*
X162853301Y-118803217D01*
X163100783Y-118700959D01*
X163290294Y-118511778D01*
X163392983Y-118264475D01*
X163393168Y-118052796D01*
X163491199Y-118093502D01*
X163758975Y-118093736D01*
X164006457Y-117991478D01*
X164195968Y-117802297D01*
X164298657Y-117554994D01*
X164298879Y-117300727D01*
X164344038Y-117233143D01*
X164374973Y-117077620D01*
X164374973Y-116673571D01*
X164492130Y-116722219D01*
X164759906Y-116722453D01*
X165007388Y-116620195D01*
X165196899Y-116431014D01*
X165299588Y-116183711D01*
X165299798Y-115943131D01*
X165422112Y-115892592D01*
X165594800Y-115720205D01*
X165594800Y-123210093D01*
X165408979Y-124144277D01*
X164902410Y-124902412D01*
X164144277Y-125408979D01*
X163210092Y-125594800D01*
X132789907Y-125594800D01*
X131855723Y-125408979D01*
X131097588Y-124902410D01*
X130591021Y-124144277D01*
X130485235Y-123612452D01*
X130919483Y-123612452D01*
X131197527Y-124285371D01*
X131711921Y-124800664D01*
X132384354Y-125079882D01*
X133112452Y-125080517D01*
X133785371Y-124802473D01*
X134300664Y-124288079D01*
X134504187Y-123797940D01*
X136538500Y-123797940D01*
X136541879Y-123818285D01*
X136539694Y-123838786D01*
X136543044Y-123875827D01*
X136550187Y-123900068D01*
X136551290Y-123925319D01*
X136559275Y-123957946D01*
X136572258Y-123985786D01*
X136572366Y-123987946D01*
X136573142Y-123989583D01*
X136579181Y-124015796D01*
X136591772Y-124043781D01*
X136612832Y-124073334D01*
X136617242Y-124082641D01*
X136618197Y-124085847D01*
X136619553Y-124087517D01*
X136628376Y-124106134D01*
X136645548Y-124129249D01*
X136665624Y-124147416D01*
X136667673Y-124150292D01*
X136671284Y-124152551D01*
X136671291Y-124152565D01*
X136671863Y-124153062D01*
X136675326Y-124156196D01*
X136700645Y-124187374D01*
X136722368Y-124205391D01*
X136740580Y-124215246D01*
X136742523Y-124217005D01*
X136746361Y-124218375D01*
X136748000Y-124219262D01*
X136769989Y-124238381D01*
X136780514Y-124244398D01*
X136793425Y-124248719D01*
X136804381Y-124256799D01*
X136814514Y-124261558D01*
X136824817Y-124264109D01*
X136833736Y-124269863D01*
X136844786Y-124274233D01*
X136855172Y-124276126D01*
X136864382Y-124281287D01*
X136876708Y-124285297D01*
X136886320Y-124286438D01*
X136895017Y-124290680D01*
X136908975Y-124294356D01*
X136917317Y-124294867D01*
X136925002Y-124298159D01*
X136940951Y-124301531D01*
X136947884Y-124301614D01*
X136954364Y-124304083D01*
X136972660Y-124307179D01*
X136978259Y-124307018D01*
X136983553Y-124308838D01*
X137004552Y-124311685D01*
X137008972Y-124311412D01*
X137013193Y-124312742D01*
X137037255Y-124315370D01*
X137040720Y-124315066D01*
X137044062Y-124316044D01*
X137071542Y-124318479D01*
X137074226Y-124318188D01*
X137076827Y-124318905D01*
X137108084Y-124321177D01*
X137110164Y-124320918D01*
X137112190Y-124321450D01*
X137147580Y-124323586D01*
X137149184Y-124323366D01*
X137150752Y-124323762D01*
X137190635Y-124325790D01*
X137191856Y-124325611D01*
X137193058Y-124325905D01*
X137237787Y-124327855D01*
X137238730Y-124327710D01*
X137239656Y-124327931D01*
X137289592Y-124329829D01*
X137290303Y-124329715D01*
X137291005Y-124329880D01*
X137346504Y-124331755D01*
X137347039Y-124331667D01*
X137347567Y-124331789D01*
X137408986Y-124333669D01*
X137409379Y-124333603D01*
X137409768Y-124333692D01*
X137477465Y-124335606D01*
X137477751Y-124335558D01*
X137478035Y-124335622D01*
X137552366Y-124337597D01*
X137552498Y-124337574D01*
X137552630Y-124337604D01*
X137566169Y-124337953D01*
X137687484Y-124341270D01*
X137801532Y-124344802D01*
X137909704Y-124348603D01*
X138012231Y-124352690D01*
X138109851Y-124357098D01*
X138202959Y-124361849D01*
X138292196Y-124366973D01*
X138378093Y-124372497D01*
X138461175Y-124378446D01*
X138542285Y-124384870D01*
X138621838Y-124391787D01*
X138700710Y-124399258D01*
X138725729Y-124401757D01*
X138850987Y-124415219D01*
X138970630Y-124429730D01*
X139086366Y-124445545D01*
X139198973Y-124462817D01*
X139309401Y-124481730D01*
X139418344Y-124502430D01*
X139526847Y-124525137D01*
X139635565Y-124550001D01*
X139745549Y-124577264D01*
X139857625Y-124607132D01*
X139972565Y-124639796D01*
X140091162Y-124675460D01*
X140214266Y-124714342D01*
X140342845Y-124756708D01*
X140444711Y-124791367D01*
X140490900Y-124807586D01*
X140533703Y-124823279D01*
X140574171Y-124838862D01*
X140613266Y-124854736D01*
X140651857Y-124871279D01*
X140690835Y-124888899D01*
X140731285Y-124908116D01*
X140773855Y-124929269D01*
X140819460Y-124952831D01*
X140868732Y-124979141D01*
X140922541Y-125008658D01*
X140981253Y-125041563D01*
X141045616Y-125078240D01*
X141066133Y-125090031D01*
X141124754Y-125123761D01*
X141124872Y-125123801D01*
X141124965Y-125123882D01*
X141177935Y-125154310D01*
X141178103Y-125154366D01*
X141178234Y-125154481D01*
X141226003Y-125181856D01*
X141226238Y-125181935D01*
X141226426Y-125182098D01*
X141269439Y-125206664D01*
X141269757Y-125206770D01*
X141270010Y-125206989D01*
X141308715Y-125228994D01*
X141309136Y-125229134D01*
X141309472Y-125229423D01*
X141344317Y-125249114D01*
X141344864Y-125249294D01*
X141345304Y-125249670D01*
X141376737Y-125267293D01*
X141377419Y-125267515D01*
X141377965Y-125267978D01*
X141406434Y-125283782D01*
X141407282Y-125284054D01*
X141407965Y-125284627D01*
X141433916Y-125298857D01*
X141434924Y-125299175D01*
X141435737Y-125299848D01*
X141459619Y-125312752D01*
X141460779Y-125313110D01*
X141461719Y-125313877D01*
X141483979Y-125325701D01*
X141485240Y-125326080D01*
X141486269Y-125326907D01*
X141507354Y-125337898D01*
X141508675Y-125338284D01*
X141509757Y-125339139D01*
X141530117Y-125349545D01*
X141531386Y-125349905D01*
X141532428Y-125350715D01*
X141552508Y-125360783D01*
X141553667Y-125361102D01*
X141554621Y-125361833D01*
X141574870Y-125371808D01*
X141575810Y-125372060D01*
X141576587Y-125372648D01*
X141597452Y-125382779D01*
X141597855Y-125382884D01*
X141598189Y-125383136D01*
X141600021Y-125384020D01*
X141602232Y-125384592D01*
X141604071Y-125385940D01*
X141671509Y-125417377D01*
X141676714Y-125418650D01*
X141681134Y-125421681D01*
X141744751Y-125448935D01*
X141751160Y-125450290D01*
X141756702Y-125453785D01*
X141817870Y-125477248D01*
X141825255Y-125478515D01*
X141831761Y-125482228D01*
X141891851Y-125502291D01*
X141899772Y-125503294D01*
X141906886Y-125506922D01*
X141967270Y-125523979D01*
X141975176Y-125524604D01*
X141982404Y-125527876D01*
X142044453Y-125542318D01*
X142051782Y-125542555D01*
X142058586Y-125545288D01*
X142123672Y-125557508D01*
X142130006Y-125557440D01*
X142135963Y-125559579D01*
X142205458Y-125569969D01*
X142210276Y-125569738D01*
X142214860Y-125571239D01*
X142279699Y-125579064D01*
X142284563Y-125578692D01*
X142289240Y-125580077D01*
X142330226Y-125583837D01*
X142334825Y-125583353D01*
X142339298Y-125584546D01*
X142385244Y-125587506D01*
X142388837Y-125587029D01*
X142392356Y-125587888D01*
X142441203Y-125589994D01*
X142444410Y-125589499D01*
X142447577Y-125590208D01*
X142497272Y-125591404D01*
X142500515Y-125590840D01*
X142503740Y-125591497D01*
X142552224Y-125591728D01*
X142555938Y-125591008D01*
X142559662Y-125591681D01*
X142604879Y-125590893D01*
X142608951Y-125590009D01*
X142613068Y-125590650D01*
X142642572Y-125589414D01*
X142649428Y-125587749D01*
X142656438Y-125588545D01*
X142735984Y-125581902D01*
X142744816Y-125579365D01*
X142753989Y-125579907D01*
X142834444Y-125568785D01*
X142842667Y-125565934D01*
X142851375Y-125566002D01*
X142931553Y-125550702D01*
X142939506Y-125547480D01*
X142948080Y-125547114D01*
X143026791Y-125527934D01*
X143034775Y-125524220D01*
X143043540Y-125523390D01*
X143119596Y-125500628D01*
X143127911Y-125496223D01*
X143137215Y-125494819D01*
X143209427Y-125468774D01*
X143218405Y-125463362D01*
X143228659Y-125461160D01*
X143295841Y-125432131D01*
X143302087Y-125427819D01*
X143309424Y-125425898D01*
X143327532Y-125417096D01*
X143333994Y-125412196D01*
X143341733Y-125409770D01*
X143422713Y-125365517D01*
X143432028Y-125357727D01*
X143443323Y-125353277D01*
X143522545Y-125302313D01*
X143530834Y-125294307D01*
X143541248Y-125289364D01*
X143618572Y-125231849D01*
X143625896Y-125223745D01*
X143635444Y-125218436D01*
X143710731Y-125154526D01*
X143717160Y-125146421D01*
X143725877Y-125140854D01*
X143798986Y-125070707D01*
X143804594Y-125062678D01*
X143812531Y-125056940D01*
X143883322Y-124980714D01*
X143888188Y-124972814D01*
X143895399Y-124966976D01*
X143963734Y-124884829D01*
X143967938Y-124877088D01*
X143974487Y-124871199D01*
X144040224Y-124783288D01*
X144043833Y-124775735D01*
X144049776Y-124769837D01*
X144112777Y-124676321D01*
X144115859Y-124668959D01*
X144121253Y-124663079D01*
X144181378Y-124564113D01*
X144183990Y-124556949D01*
X144188887Y-124551105D01*
X144245995Y-124446849D01*
X144248006Y-124440455D01*
X144252107Y-124435151D01*
X144297199Y-124344538D01*
X144298588Y-124339429D01*
X144301694Y-124335142D01*
X144320032Y-124295228D01*
X144321138Y-124290594D01*
X144323823Y-124286662D01*
X144341445Y-124245297D01*
X144342380Y-124240832D01*
X144344851Y-124236996D01*
X144362262Y-124192888D01*
X144362978Y-124188945D01*
X144365069Y-124185525D01*
X144382776Y-124137383D01*
X144383285Y-124134150D01*
X144384939Y-124131324D01*
X144403448Y-124077856D01*
X144403673Y-124076226D01*
X144404489Y-124074800D01*
X144408834Y-124061846D01*
X144408997Y-124060575D01*
X144409625Y-124059458D01*
X144417294Y-124036013D01*
X144417487Y-124034407D01*
X144418266Y-124032992D01*
X144426136Y-124008138D01*
X144477840Y-123987274D01*
X144477928Y-123987216D01*
X144478034Y-123987196D01*
X144514014Y-123972651D01*
X144514197Y-123972531D01*
X144514407Y-123972491D01*
X144548416Y-123958693D01*
X144548607Y-123958568D01*
X144548828Y-123958525D01*
X144580303Y-123945707D01*
X144580528Y-123945559D01*
X144580789Y-123945508D01*
X144609173Y-123933896D01*
X144609445Y-123933716D01*
X144609766Y-123933653D01*
X144634500Y-123923479D01*
X144634879Y-123923227D01*
X144635322Y-123923139D01*
X144655846Y-123914633D01*
X144656437Y-123914238D01*
X144657135Y-123914096D01*
X144672891Y-123907489D01*
X144674106Y-123906669D01*
X144675539Y-123906365D01*
X144685967Y-123901887D01*
X144690365Y-123898866D01*
X144695543Y-123897595D01*
X144700082Y-123895475D01*
X144728769Y-123874413D01*
X144760783Y-123858850D01*
X144760932Y-123858737D01*
X144769346Y-123849252D01*
X144780304Y-123842872D01*
X144789572Y-123830702D01*
X144793763Y-123827823D01*
X144795164Y-123825667D01*
X144805507Y-123818073D01*
X144823846Y-123787809D01*
X144847721Y-123760893D01*
X144851865Y-123748909D01*
X144859546Y-123738823D01*
X144864193Y-123721228D01*
X144873288Y-123706218D01*
X144878593Y-123671608D01*
X144890461Y-123637285D01*
X144889703Y-123624626D01*
X144892940Y-123612369D01*
X144890470Y-123594121D01*
X144893104Y-123576940D01*
X144884828Y-123543210D01*
X144882644Y-123506730D01*
X144877100Y-123495327D01*
X144875400Y-123482762D01*
X144866062Y-123466721D01*
X144864772Y-123461465D01*
X144863449Y-123455370D01*
X144863182Y-123454985D01*
X144861939Y-123449919D01*
X144841478Y-123422050D01*
X144825462Y-123389105D01*
X144815977Y-123380691D01*
X144809597Y-123369733D01*
X144807256Y-123367083D01*
X144796566Y-123358942D01*
X144788909Y-123347902D01*
X144781707Y-123340946D01*
X144779343Y-123339425D01*
X144777704Y-123337143D01*
X144766055Y-123326257D01*
X144764975Y-123325587D01*
X144764228Y-123324563D01*
X144748545Y-123310123D01*
X144747909Y-123309735D01*
X144747467Y-123309135D01*
X144728165Y-123291519D01*
X144727714Y-123291246D01*
X144727400Y-123290823D01*
X144704892Y-123270409D01*
X144704545Y-123270201D01*
X144704301Y-123269873D01*
X144679004Y-123247038D01*
X144678711Y-123246863D01*
X144678508Y-123246592D01*
X144650835Y-123221712D01*
X144650569Y-123221554D01*
X144650383Y-123221306D01*
X144620748Y-123194759D01*
X144620524Y-123194627D01*
X144620367Y-123194418D01*
X144594990Y-123171755D01*
X144594909Y-123171708D01*
X144594854Y-123171634D01*
X144558838Y-123139505D01*
X144527893Y-123111862D01*
X144501995Y-123088661D01*
X144480362Y-123069181D01*
X144472945Y-123062445D01*
X144463521Y-123038964D01*
X144461013Y-123035119D01*
X144460046Y-123030633D01*
X144447732Y-123002192D01*
X144445066Y-122998336D01*
X144443952Y-122993780D01*
X144431121Y-122966248D01*
X144428646Y-122962871D01*
X144427553Y-122958832D01*
X144420958Y-122945543D01*
X144415983Y-122939093D01*
X144413481Y-122931342D01*
X144381032Y-122873132D01*
X144372553Y-122863165D01*
X144367587Y-122851060D01*
X144330359Y-122794935D01*
X144321434Y-122785950D01*
X144315768Y-122774626D01*
X144273079Y-122719655D01*
X144264346Y-122712086D01*
X144258482Y-122702123D01*
X144209649Y-122647376D01*
X144204483Y-122643481D01*
X144200991Y-122638033D01*
X144187848Y-122624380D01*
X144182663Y-122620771D01*
X144179060Y-122615584D01*
X144123551Y-122562045D01*
X144114274Y-122556086D01*
X144107409Y-122547457D01*
X144050129Y-122498974D01*
X144039959Y-122493338D01*
X144032114Y-122484755D01*
X143971860Y-122440459D01*
X143961476Y-122435601D01*
X143953188Y-122427680D01*
X143888756Y-122386706D01*
X143878900Y-122382882D01*
X143870817Y-122376067D01*
X143801003Y-122337547D01*
X143795190Y-122335699D01*
X143790387Y-122331935D01*
X143769401Y-122321318D01*
X143764417Y-122319928D01*
X143760250Y-122316862D01*
X143692196Y-122284990D01*
X143684017Y-122282974D01*
X143676990Y-122278322D01*
X143608976Y-122250487D01*
X143600228Y-122248786D01*
X143592550Y-122244262D01*
X143523348Y-122220090D01*
X143514534Y-122218851D01*
X143506639Y-122214740D01*
X143435019Y-122193858D01*
X143426654Y-122193125D01*
X143419024Y-122189620D01*
X143343759Y-122171653D01*
X143336244Y-122171367D01*
X143329279Y-122168533D01*
X143249139Y-122153109D01*
X143244064Y-122153141D01*
X143239310Y-122151369D01*
X143192842Y-122143852D01*
X143190419Y-122143939D01*
X143188138Y-122143126D01*
X143168302Y-122140206D01*
X143165555Y-122140344D01*
X143162949Y-122139462D01*
X143145620Y-122137196D01*
X143141227Y-122137488D01*
X143137021Y-122136184D01*
X143120805Y-122134488D01*
X143115554Y-122134973D01*
X143110473Y-122133569D01*
X143093972Y-122132358D01*
X143089122Y-122132958D01*
X143084376Y-122131792D01*
X143066196Y-122130981D01*
X143062591Y-122131532D01*
X143059031Y-122130738D01*
X143037774Y-122130245D01*
X143035581Y-122130629D01*
X143033402Y-122130172D01*
X143007677Y-122129911D01*
X143006625Y-122130109D01*
X143005579Y-122129897D01*
X142979096Y-122129794D01*
X142978093Y-122129989D01*
X142977089Y-122129792D01*
X142939874Y-122129870D01*
X142937569Y-122130333D01*
X142935254Y-122129911D01*
X142903583Y-122130414D01*
X142899905Y-122131207D01*
X142896190Y-122130613D01*
X142868558Y-122131662D01*
X142863514Y-122132866D01*
X142858371Y-122132204D01*
X142833272Y-122133923D01*
X142827426Y-122135508D01*
X142821395Y-122134949D01*
X142797326Y-122137460D01*
X142791682Y-122139208D01*
X142785784Y-122138867D01*
X142761238Y-122142292D01*
X142756720Y-122143865D01*
X142751937Y-122143723D01*
X142725409Y-122148187D01*
X142722740Y-122149201D01*
X142719887Y-122149164D01*
X142697923Y-122153239D01*
X142693159Y-122155141D01*
X142688030Y-122155229D01*
X142629175Y-122167992D01*
X142622369Y-122170949D01*
X142614963Y-122171400D01*
X142553866Y-122187467D01*
X142547687Y-122190479D01*
X142540849Y-122191173D01*
X142480396Y-122209710D01*
X142473950Y-122213181D01*
X142466702Y-122214233D01*
X142409778Y-122234405D01*
X142405361Y-122237034D01*
X142400299Y-122237926D01*
X142388921Y-122242349D01*
X142387737Y-122243103D01*
X142386357Y-122243358D01*
X142343179Y-122260551D01*
X142342410Y-122261050D01*
X142341505Y-122261222D01*
X142299130Y-122278360D01*
X142298276Y-122278920D01*
X142297274Y-122279117D01*
X142255316Y-122296379D01*
X142254399Y-122296988D01*
X142253323Y-122297207D01*
X142211393Y-122314774D01*
X142210443Y-122315414D01*
X142209321Y-122315650D01*
X142167032Y-122333702D01*
X142166071Y-122334359D01*
X142164935Y-122334606D01*
X142121900Y-122353324D01*
X142120961Y-122353976D01*
X142119845Y-122354226D01*
X142075676Y-122373790D01*
X142074779Y-122374422D01*
X142073708Y-122374669D01*
X142028016Y-122395260D01*
X142027178Y-122395858D01*
X142026179Y-122396095D01*
X141978578Y-122417892D01*
X141977809Y-122418448D01*
X141976887Y-122418672D01*
X141926989Y-122441857D01*
X141926300Y-122442361D01*
X141925471Y-122442567D01*
X141872888Y-122467320D01*
X141872280Y-122467769D01*
X141871543Y-122467956D01*
X141815887Y-122494458D01*
X141815358Y-122494852D01*
X141814722Y-122495016D01*
X141755607Y-122523445D01*
X141755152Y-122523787D01*
X141754600Y-122523931D01*
X141691636Y-122554470D01*
X141691249Y-122554763D01*
X141690779Y-122554887D01*
X141623581Y-122587716D01*
X141623260Y-122587960D01*
X141622871Y-122588064D01*
X141551050Y-122623362D01*
X141550783Y-122623567D01*
X141550457Y-122623654D01*
X141473624Y-122661603D01*
X141473407Y-122661770D01*
X141473140Y-122661842D01*
X141390909Y-122702623D01*
X141390735Y-122702757D01*
X141390522Y-122702815D01*
X141302505Y-122746606D01*
X141302414Y-122746677D01*
X141302302Y-122746707D01*
X141279794Y-122757925D01*
X141279792Y-122757925D01*
X141201822Y-122796715D01*
X141129922Y-122832308D01*
X141063537Y-122864964D01*
X141002217Y-122894892D01*
X140945247Y-122922429D01*
X140892249Y-122947750D01*
X140843079Y-122970920D01*
X140796742Y-122992409D01*
X140753107Y-123012280D01*
X140711388Y-123030900D01*
X140671230Y-123048437D01*
X140631773Y-123065280D01*
X140592885Y-123081502D01*
X140553615Y-123097520D01*
X140513604Y-123113500D01*
X140481065Y-123126279D01*
X140481063Y-123126280D01*
X140457555Y-123135511D01*
X140456867Y-123135953D01*
X140456064Y-123136101D01*
X140434670Y-123144620D01*
X140433855Y-123145149D01*
X140432903Y-123145330D01*
X140414534Y-123152766D01*
X140413389Y-123153518D01*
X140412045Y-123153785D01*
X140397590Y-123159772D01*
X140395358Y-123161263D01*
X140392735Y-123161828D01*
X140383087Y-123166003D01*
X140374840Y-123171703D01*
X140365180Y-123174387D01*
X140361239Y-123176376D01*
X140353908Y-123182110D01*
X140345095Y-123185087D01*
X140311117Y-123214797D01*
X140295557Y-123214462D01*
X140265596Y-123213198D01*
X140263993Y-123213784D01*
X140254306Y-123213576D01*
X140251957Y-123213991D01*
X140245151Y-123216640D01*
X140241366Y-123216745D01*
X140237725Y-123216824D01*
X140223775Y-123219917D01*
X140207650Y-123222927D01*
X140184287Y-123226792D01*
X140156814Y-123230902D01*
X140127648Y-123234867D01*
X140098607Y-123238422D01*
X140070683Y-123241419D01*
X140064584Y-123242000D01*
X140039757Y-123243979D01*
X140016597Y-123245226D01*
X139992664Y-123245869D01*
X139966695Y-123245878D01*
X139937638Y-123245178D01*
X139904569Y-123243665D01*
X139866859Y-123241248D01*
X139823695Y-123237832D01*
X139774552Y-123233355D01*
X139719016Y-123227783D01*
X139660167Y-123221477D01*
X139574448Y-123211501D01*
X139482580Y-123199743D01*
X139384002Y-123186143D01*
X139279469Y-123170807D01*
X139169190Y-123153772D01*
X139053684Y-123135118D01*
X138933369Y-123114920D01*
X138808496Y-123093217D01*
X138679705Y-123070124D01*
X138547144Y-123045665D01*
X138411288Y-123019925D01*
X138272536Y-122992976D01*
X138131095Y-122964852D01*
X137987663Y-122935687D01*
X137842203Y-122905464D01*
X137695115Y-122874254D01*
X137547251Y-122842229D01*
X137460246Y-122823080D01*
X137416014Y-122813284D01*
X137415258Y-122813268D01*
X137414566Y-122812967D01*
X137376348Y-122804680D01*
X137373960Y-122804639D01*
X137371754Y-122803717D01*
X137339180Y-122797130D01*
X137334269Y-122797114D01*
X137329688Y-122795353D01*
X137302123Y-122790601D01*
X137293400Y-122790825D01*
X137285106Y-122788115D01*
X137261919Y-122785333D01*
X137247625Y-122786435D01*
X137233670Y-122783150D01*
X137214226Y-122782472D01*
X137192537Y-122786006D01*
X137170674Y-122783787D01*
X137154341Y-122785347D01*
X137140329Y-122789552D01*
X137139017Y-122789425D01*
X137123068Y-122794288D01*
X137094648Y-122796576D01*
X137080794Y-122800510D01*
X137063483Y-122809370D01*
X137059131Y-122809852D01*
X137043106Y-122818671D01*
X137030451Y-122822530D01*
X137029074Y-122822943D01*
X137029061Y-122822954D01*
X137013915Y-122827572D01*
X137001905Y-122834015D01*
X136979839Y-122852178D01*
X136964368Y-122860096D01*
X136961316Y-122863682D01*
X136944548Y-122872910D01*
X136933751Y-122881994D01*
X136916879Y-122903072D01*
X136895602Y-122919698D01*
X136885384Y-122931558D01*
X136876748Y-122946824D01*
X136864121Y-122958992D01*
X136853849Y-122973764D01*
X136850030Y-122982521D01*
X136843537Y-122989523D01*
X136832579Y-123007341D01*
X136831260Y-123010900D01*
X136828740Y-123013741D01*
X136816462Y-123034739D01*
X136816327Y-123035131D01*
X136816052Y-123035442D01*
X136811773Y-123042802D01*
X136811154Y-123044606D01*
X136809907Y-123046052D01*
X136772638Y-123111830D01*
X136771356Y-123115709D01*
X136768762Y-123118866D01*
X136733830Y-123184116D01*
X136732606Y-123188142D01*
X136730013Y-123191461D01*
X136697812Y-123255353D01*
X136696606Y-123259704D01*
X136693922Y-123263333D01*
X136664848Y-123325034D01*
X136663627Y-123329940D01*
X136660745Y-123334089D01*
X136635193Y-123392768D01*
X136633932Y-123398559D01*
X136630720Y-123403546D01*
X136609084Y-123458372D01*
X136607934Y-123464708D01*
X136604654Y-123470250D01*
X136590789Y-123509690D01*
X136589559Y-123518315D01*
X136585513Y-123526026D01*
X136570053Y-123578439D01*
X136568962Y-123590467D01*
X136564124Y-123601536D01*
X136553408Y-123650447D01*
X136553134Y-123664632D01*
X136548559Y-123678059D01*
X136542559Y-123723242D01*
X136543650Y-123740178D01*
X136539811Y-123756713D01*
X136538500Y-123797940D01*
X134504187Y-123797940D01*
X134579882Y-123615646D01*
X134580517Y-122887548D01*
X134302473Y-122214629D01*
X133788079Y-121699336D01*
X133115646Y-121420118D01*
X132387548Y-121419483D01*
X131714629Y-121697527D01*
X131199336Y-122211921D01*
X130920118Y-122884354D01*
X130919483Y-123612452D01*
X130485235Y-123612452D01*
X130405200Y-123210092D01*
X130405200Y-119093301D01*
X144816783Y-119093301D01*
X144919041Y-119340783D01*
X145108222Y-119530294D01*
X145355525Y-119632983D01*
X145623301Y-119633217D01*
X145870783Y-119530959D01*
X145984740Y-119417200D01*
X146148331Y-119417200D01*
X146148331Y-119510000D01*
X146171356Y-119632365D01*
X146243673Y-119744749D01*
X146354017Y-119820144D01*
X146485000Y-119846669D01*
X147235000Y-119846669D01*
X147357365Y-119823644D01*
X147469749Y-119751327D01*
X147545144Y-119640983D01*
X147571669Y-119510000D01*
X147571669Y-119387200D01*
X147782685Y-119387200D01*
X147848673Y-119489749D01*
X147959017Y-119565144D01*
X148090000Y-119591669D01*
X149150000Y-119591669D01*
X149272365Y-119568644D01*
X149384749Y-119496327D01*
X149460144Y-119385983D01*
X149486669Y-119255000D01*
X149486669Y-118794515D01*
X149645261Y-118635922D01*
X149734200Y-118421204D01*
X149734200Y-118288550D01*
X149588150Y-118142500D01*
X148797800Y-118142500D01*
X148797800Y-118177800D01*
X148442200Y-118177800D01*
X148442200Y-118142500D01*
X148422200Y-118142500D01*
X148422200Y-117817500D01*
X148442200Y-117817500D01*
X148442200Y-117782200D01*
X148797800Y-117782200D01*
X148797800Y-117817500D01*
X149588150Y-117817500D01*
X149734200Y-117671450D01*
X149734200Y-117538796D01*
X149645261Y-117324078D01*
X149486669Y-117165485D01*
X149486669Y-116705000D01*
X149953331Y-116705000D01*
X149953331Y-117355000D01*
X149976356Y-117477365D01*
X150048673Y-117589749D01*
X150159017Y-117665144D01*
X150290000Y-117691669D01*
X151350000Y-117691669D01*
X151472365Y-117668644D01*
X151584749Y-117596327D01*
X151610800Y-117558200D01*
X151610800Y-117766205D01*
X151699739Y-117980923D01*
X151864078Y-118145261D01*
X151919551Y-118168239D01*
X151884856Y-118219017D01*
X151858331Y-118350000D01*
X151858331Y-118498200D01*
X151666573Y-118498200D01*
X151663644Y-118482635D01*
X151591327Y-118370251D01*
X151480983Y-118294856D01*
X151350000Y-118268331D01*
X150290000Y-118268331D01*
X150167635Y-118291356D01*
X150055251Y-118363673D01*
X149979856Y-118474017D01*
X149953331Y-118605000D01*
X149953331Y-119255000D01*
X149976356Y-119377365D01*
X150048673Y-119489749D01*
X150159017Y-119565144D01*
X150290000Y-119591669D01*
X151350000Y-119591669D01*
X151472365Y-119568644D01*
X151584749Y-119496327D01*
X151660144Y-119385983D01*
X151665041Y-119361800D01*
X151858331Y-119361800D01*
X151858331Y-119550000D01*
X151881356Y-119672365D01*
X151896108Y-119695291D01*
X151669217Y-119789041D01*
X151479706Y-119978222D01*
X151377017Y-120225525D01*
X151376783Y-120493301D01*
X151479041Y-120740783D01*
X151668222Y-120930294D01*
X151915525Y-121032983D01*
X152183301Y-121033217D01*
X152430783Y-120930959D01*
X152620294Y-120741778D01*
X152722983Y-120494475D01*
X152723155Y-120297503D01*
X152875329Y-120145329D01*
X152935904Y-120054671D01*
X152968931Y-120005243D01*
X152994365Y-119877380D01*
X153067365Y-119863644D01*
X153179749Y-119791327D01*
X153255144Y-119680983D01*
X153281669Y-119550000D01*
X153281669Y-119381800D01*
X158924458Y-119381800D01*
X158999041Y-119562303D01*
X159188222Y-119751814D01*
X159435525Y-119854503D01*
X159703301Y-119854737D01*
X159950783Y-119752479D01*
X160140294Y-119563298D01*
X160242983Y-119315995D01*
X160243217Y-119048219D01*
X160140959Y-118800737D01*
X159951778Y-118611226D01*
X159704475Y-118508537D01*
X159436699Y-118508303D01*
X159388613Y-118528172D01*
X159338480Y-118518200D01*
X153281669Y-118518200D01*
X153281669Y-118350000D01*
X153258644Y-118227635D01*
X153220429Y-118168247D01*
X153275922Y-118145261D01*
X153440261Y-117980923D01*
X153529200Y-117766205D01*
X153529200Y-117373850D01*
X153383150Y-117227800D01*
X152747800Y-117227800D01*
X152747800Y-117247800D01*
X152392200Y-117247800D01*
X152392200Y-117227800D01*
X152372200Y-117227800D01*
X152372200Y-116872200D01*
X152392200Y-116872200D01*
X152392200Y-116011850D01*
X152747800Y-116011850D01*
X152747800Y-116872200D01*
X153383150Y-116872200D01*
X153529200Y-116726150D01*
X153529200Y-116333795D01*
X153440261Y-116119077D01*
X153275922Y-115954739D01*
X153061204Y-115865800D01*
X152893850Y-115865800D01*
X152747800Y-116011850D01*
X152392200Y-116011850D01*
X152246150Y-115865800D01*
X152078796Y-115865800D01*
X151864078Y-115954739D01*
X151699739Y-116119077D01*
X151610800Y-116333795D01*
X151610800Y-116500513D01*
X151591327Y-116470251D01*
X151480983Y-116394856D01*
X151350000Y-116368331D01*
X150290000Y-116368331D01*
X150167635Y-116391356D01*
X150055251Y-116463673D01*
X149979856Y-116574017D01*
X149953331Y-116705000D01*
X149486669Y-116705000D01*
X149463644Y-116582635D01*
X149391327Y-116470251D01*
X149280983Y-116394856D01*
X149150000Y-116368331D01*
X148090000Y-116368331D01*
X147967635Y-116391356D01*
X147855251Y-116463673D01*
X147819200Y-116516435D01*
X147819200Y-116293795D01*
X147730261Y-116079077D01*
X147565922Y-115914739D01*
X147351204Y-115825800D01*
X147183850Y-115825800D01*
X147037800Y-115971850D01*
X147037800Y-116832200D01*
X147057800Y-116832200D01*
X147057800Y-117187800D01*
X147037800Y-117187800D01*
X147037800Y-117207800D01*
X146682200Y-117207800D01*
X146682200Y-117187800D01*
X146046850Y-117187800D01*
X145900800Y-117333850D01*
X145900800Y-117726205D01*
X145989739Y-117940923D01*
X146154078Y-118105261D01*
X146209551Y-118128239D01*
X146174856Y-118179017D01*
X146148331Y-118310000D01*
X146148331Y-118502800D01*
X145984675Y-118502800D01*
X145871778Y-118389706D01*
X145624475Y-118287017D01*
X145356699Y-118286783D01*
X145109217Y-118389041D01*
X144919706Y-118578222D01*
X144817017Y-118825525D01*
X144816783Y-119093301D01*
X130405200Y-119093301D01*
X130405200Y-116293795D01*
X145900800Y-116293795D01*
X145900800Y-116686150D01*
X146046850Y-116832200D01*
X146682200Y-116832200D01*
X146682200Y-115971850D01*
X146536150Y-115825800D01*
X146368796Y-115825800D01*
X146154078Y-115914739D01*
X145989739Y-116079077D01*
X145900800Y-116293795D01*
X130405200Y-116293795D01*
X130405200Y-114483301D01*
X132386783Y-114483301D01*
X132489041Y-114730783D01*
X132678222Y-114920294D01*
X132925525Y-115022983D01*
X133193301Y-115023217D01*
X133341941Y-114961800D01*
X134609969Y-114961800D01*
X134748222Y-115100294D01*
X134995525Y-115202983D01*
X135263301Y-115203217D01*
X135510783Y-115100959D01*
X135700294Y-114911778D01*
X135802983Y-114664475D01*
X135803217Y-114396699D01*
X135700959Y-114149217D01*
X135511778Y-113959706D01*
X135264475Y-113857017D01*
X134996699Y-113856783D01*
X134749217Y-113959041D01*
X134609815Y-114098200D01*
X133684254Y-114098200D01*
X133630959Y-113969217D01*
X133441778Y-113779706D01*
X133194475Y-113677017D01*
X132926699Y-113676783D01*
X132679217Y-113779041D01*
X132489706Y-113968222D01*
X132387017Y-114215525D01*
X132386783Y-114483301D01*
X130405200Y-114483301D01*
X130405200Y-110563301D01*
X152316783Y-110563301D01*
X152419041Y-110810783D01*
X152583600Y-110975629D01*
X152583600Y-112504579D01*
X152439706Y-112648222D01*
X152337017Y-112895525D01*
X152336783Y-113163301D01*
X152439041Y-113410783D01*
X152628222Y-113600294D01*
X152875525Y-113702983D01*
X153143301Y-113703217D01*
X153390783Y-113600959D01*
X153580294Y-113411778D01*
X153682983Y-113164475D01*
X153683217Y-112896699D01*
X153580959Y-112649217D01*
X153396400Y-112464336D01*
X153396400Y-110975387D01*
X153560294Y-110811778D01*
X153662983Y-110564475D01*
X153663217Y-110296699D01*
X153560959Y-110049217D01*
X153371778Y-109859706D01*
X153124475Y-109757017D01*
X152856699Y-109756783D01*
X152609217Y-109859041D01*
X152419706Y-110048222D01*
X152317017Y-110295525D01*
X152316783Y-110563301D01*
X130405200Y-110563301D01*
X130405200Y-107363383D01*
X130513077Y-107471261D01*
X130727795Y-107560200D01*
X131536150Y-107560200D01*
X131682200Y-107414150D01*
X131682200Y-106137800D01*
X132037800Y-106137800D01*
X132037800Y-107414150D01*
X132183850Y-107560200D01*
X132992205Y-107560200D01*
X133206923Y-107471261D01*
X133371261Y-107306922D01*
X133460200Y-107092204D01*
X133460200Y-106283850D01*
X133314150Y-106137800D01*
X132037800Y-106137800D01*
X131682200Y-106137800D01*
X131662200Y-106137800D01*
X131662200Y-105782200D01*
X131682200Y-105782200D01*
X131682200Y-105762200D01*
X132037800Y-105762200D01*
X132037800Y-105782200D01*
X133314150Y-105782200D01*
X133460200Y-105636150D01*
X133460200Y-104827796D01*
X133371261Y-104613078D01*
X133206923Y-104448739D01*
X132992205Y-104359800D01*
X132846371Y-104359800D01*
X133130101Y-103935168D01*
X133232574Y-103420000D01*
X133130101Y-102904832D01*
X132838281Y-102468093D01*
X132401542Y-102176273D01*
X131886374Y-102073800D01*
X131833626Y-102073800D01*
X131318458Y-102176273D01*
X130881719Y-102468093D01*
X130589899Y-102904832D01*
X130487426Y-103420000D01*
X130589899Y-103935168D01*
X130873629Y-104359800D01*
X130727795Y-104359800D01*
X130513077Y-104448739D01*
X130405200Y-104556617D01*
X130405200Y-93112452D01*
X130919483Y-93112452D01*
X131197527Y-93785371D01*
X131711921Y-94300664D01*
X132384354Y-94579882D01*
X133112452Y-94580517D01*
X133785371Y-94302473D01*
X134300664Y-93788079D01*
X134579882Y-93115646D01*
X134580517Y-92387548D01*
X134302473Y-91714629D01*
X133788079Y-91199336D01*
X133115646Y-90920118D01*
X132387548Y-90919483D01*
X131714629Y-91197527D01*
X131199336Y-91711921D01*
X130920118Y-92384354D01*
X130919483Y-93112452D01*
X130405200Y-93112452D01*
X130405200Y-92789908D01*
X130591021Y-91855723D01*
X131097588Y-91097590D01*
X131855723Y-90591021D01*
X132789907Y-90405200D01*
X157850322Y-90405200D01*
X157624618Y-90630511D01*
G36*
X165594800Y-114923331D02*
X165423107Y-114751339D01*
X165217681Y-114666039D01*
X165270391Y-114613420D01*
X165373080Y-114366117D01*
X165373314Y-114098341D01*
X165271056Y-113850859D01*
X165081875Y-113661348D01*
X164876449Y-113576048D01*
X164929160Y-113523429D01*
X165031849Y-113276126D01*
X165032083Y-113008350D01*
X164929825Y-112760868D01*
X164740644Y-112571357D01*
X164535218Y-112486057D01*
X164587928Y-112433439D01*
X164690617Y-112186136D01*
X164690851Y-111918360D01*
X164588593Y-111670878D01*
X164399412Y-111481367D01*
X164193986Y-111396067D01*
X164246696Y-111343448D01*
X164349385Y-111096145D01*
X164349619Y-110828369D01*
X164247361Y-110580887D01*
X164058180Y-110391376D01*
X163810877Y-110288687D01*
X163543101Y-110288453D01*
X163523633Y-110296497D01*
X163491405Y-110218499D01*
X163302224Y-110028988D01*
X163054921Y-109926299D01*
X162787145Y-109926065D01*
X162539663Y-110028323D01*
X162505019Y-110062907D01*
X161806717Y-109469466D01*
X161830261Y-109445922D01*
X161919200Y-109231204D01*
X161919200Y-109203550D01*
X161915650Y-109200000D01*
X161919200Y-109196450D01*
X161919200Y-109168796D01*
X161849282Y-109000000D01*
X161919200Y-108831204D01*
X161919200Y-108803550D01*
X161915650Y-108800000D01*
X161919200Y-108796450D01*
X161919200Y-108768796D01*
X161849282Y-108600000D01*
X161919200Y-108431204D01*
X161919200Y-108403550D01*
X161915650Y-108400000D01*
X161919200Y-108396450D01*
X161919200Y-108368796D01*
X161849282Y-108200000D01*
X161919200Y-108031204D01*
X161919200Y-108003550D01*
X161915650Y-108000000D01*
X161919200Y-107996450D01*
X161919200Y-107968796D01*
X161849282Y-107800000D01*
X161919200Y-107631204D01*
X161919200Y-107603550D01*
X161915650Y-107600000D01*
X161919200Y-107596450D01*
X161919200Y-107568796D01*
X161849282Y-107400000D01*
X161919200Y-107231204D01*
X161919200Y-107203550D01*
X161915650Y-107200000D01*
X161919200Y-107196450D01*
X161919200Y-107168796D01*
X161849282Y-107000000D01*
X161919200Y-106831204D01*
X161919200Y-106803550D01*
X161915650Y-106800000D01*
X161919200Y-106796450D01*
X161919200Y-106768796D01*
X161830261Y-106554078D01*
X161806934Y-106530751D01*
X162504906Y-105937591D01*
X162538668Y-105971412D01*
X162785971Y-106074101D01*
X163053747Y-106074335D01*
X163301229Y-105972077D01*
X163490740Y-105782896D01*
X163523478Y-105704053D01*
X163541927Y-105711714D01*
X163809703Y-105711948D01*
X164057185Y-105609690D01*
X164246696Y-105420509D01*
X164349385Y-105173206D01*
X164349619Y-104905430D01*
X164247361Y-104657948D01*
X164193766Y-104604260D01*
X164398417Y-104519699D01*
X164587928Y-104330518D01*
X164690617Y-104083215D01*
X164690851Y-103815439D01*
X164588593Y-103567957D01*
X164534998Y-103514269D01*
X164739649Y-103429708D01*
X164929160Y-103240527D01*
X165031849Y-102993224D01*
X165032083Y-102725448D01*
X164929825Y-102477966D01*
X164876230Y-102424278D01*
X165080880Y-102339718D01*
X165270391Y-102150537D01*
X165373080Y-101903234D01*
X165373314Y-101635458D01*
X165271056Y-101387976D01*
X165217461Y-101334288D01*
X165422112Y-101249727D01*
X165594800Y-101077340D01*
X165594800Y-114923331D01*
X165594800Y-114923331D01*
G37*
X165594800Y-114923331D02*
X165423107Y-114751339D01*
X165217681Y-114666039D01*
X165270391Y-114613420D01*
X165373080Y-114366117D01*
X165373314Y-114098341D01*
X165271056Y-113850859D01*
X165081875Y-113661348D01*
X164876449Y-113576048D01*
X164929160Y-113523429D01*
X165031849Y-113276126D01*
X165032083Y-113008350D01*
X164929825Y-112760868D01*
X164740644Y-112571357D01*
X164535218Y-112486057D01*
X164587928Y-112433439D01*
X164690617Y-112186136D01*
X164690851Y-111918360D01*
X164588593Y-111670878D01*
X164399412Y-111481367D01*
X164193986Y-111396067D01*
X164246696Y-111343448D01*
X164349385Y-111096145D01*
X164349619Y-110828369D01*
X164247361Y-110580887D01*
X164058180Y-110391376D01*
X163810877Y-110288687D01*
X163543101Y-110288453D01*
X163523633Y-110296497D01*
X163491405Y-110218499D01*
X163302224Y-110028988D01*
X163054921Y-109926299D01*
X162787145Y-109926065D01*
X162539663Y-110028323D01*
X162505019Y-110062907D01*
X161806717Y-109469466D01*
X161830261Y-109445922D01*
X161919200Y-109231204D01*
X161919200Y-109203550D01*
X161915650Y-109200000D01*
X161919200Y-109196450D01*
X161919200Y-109168796D01*
X161849282Y-109000000D01*
X161919200Y-108831204D01*
X161919200Y-108803550D01*
X161915650Y-108800000D01*
X161919200Y-108796450D01*
X161919200Y-108768796D01*
X161849282Y-108600000D01*
X161919200Y-108431204D01*
X161919200Y-108403550D01*
X161915650Y-108400000D01*
X161919200Y-108396450D01*
X161919200Y-108368796D01*
X161849282Y-108200000D01*
X161919200Y-108031204D01*
X161919200Y-108003550D01*
X161915650Y-108000000D01*
X161919200Y-107996450D01*
X161919200Y-107968796D01*
X161849282Y-107800000D01*
X161919200Y-107631204D01*
X161919200Y-107603550D01*
X161915650Y-107600000D01*
X161919200Y-107596450D01*
X161919200Y-107568796D01*
X161849282Y-107400000D01*
X161919200Y-107231204D01*
X161919200Y-107203550D01*
X161915650Y-107200000D01*
X161919200Y-107196450D01*
X161919200Y-107168796D01*
X161849282Y-107000000D01*
X161919200Y-106831204D01*
X161919200Y-106803550D01*
X161915650Y-106800000D01*
X161919200Y-106796450D01*
X161919200Y-106768796D01*
X161830261Y-106554078D01*
X161806934Y-106530751D01*
X162504906Y-105937591D01*
X162538668Y-105971412D01*
X162785971Y-106074101D01*
X163053747Y-106074335D01*
X163301229Y-105972077D01*
X163490740Y-105782896D01*
X163523478Y-105704053D01*
X163541927Y-105711714D01*
X163809703Y-105711948D01*
X164057185Y-105609690D01*
X164246696Y-105420509D01*
X164349385Y-105173206D01*
X164349619Y-104905430D01*
X164247361Y-104657948D01*
X164193766Y-104604260D01*
X164398417Y-104519699D01*
X164587928Y-104330518D01*
X164690617Y-104083215D01*
X164690851Y-103815439D01*
X164588593Y-103567957D01*
X164534998Y-103514269D01*
X164739649Y-103429708D01*
X164929160Y-103240527D01*
X165031849Y-102993224D01*
X165032083Y-102725448D01*
X164929825Y-102477966D01*
X164876230Y-102424278D01*
X165080880Y-102339718D01*
X165270391Y-102150537D01*
X165373080Y-101903234D01*
X165373314Y-101635458D01*
X165271056Y-101387976D01*
X165217461Y-101334288D01*
X165422112Y-101249727D01*
X165594800Y-101077340D01*
X165594800Y-114923331D01*
G36*
X161170000Y-109115000D02*
X160840000Y-109115000D01*
X160840000Y-106885000D01*
X161170000Y-106885000D01*
X161170000Y-109115000D01*
X161170000Y-109115000D01*
G37*
X161170000Y-109115000D02*
X160840000Y-109115000D01*
X160840000Y-106885000D01*
X161170000Y-106885000D01*
X161170000Y-109115000D01*
G36*
X164144277Y-90591021D02*
X164902410Y-91097588D01*
X165408979Y-91855723D01*
X165594800Y-92789907D01*
X165594800Y-100280466D01*
X165423107Y-100108474D01*
X165299613Y-100057195D01*
X165299822Y-99817864D01*
X165197564Y-99570382D01*
X165008383Y-99380871D01*
X164761080Y-99278182D01*
X164493304Y-99277948D01*
X164245822Y-99380206D01*
X164170161Y-99455736D01*
X164125216Y-99493931D01*
X164122696Y-99476786D01*
X164212861Y-99386778D01*
X164315550Y-99139475D01*
X164315784Y-98871699D01*
X164213526Y-98624217D01*
X164024345Y-98434706D01*
X163777042Y-98332017D01*
X163509266Y-98331783D01*
X163357108Y-98394654D01*
X163520294Y-98231752D01*
X163622983Y-97984449D01*
X163623217Y-97716673D01*
X163520959Y-97469191D01*
X163331778Y-97279680D01*
X163217190Y-97232099D01*
X163137368Y-97112638D01*
X163005523Y-97024541D01*
X162850000Y-96993606D01*
X162694477Y-97024541D01*
X162562632Y-97112638D01*
X161986479Y-97688791D01*
X161425292Y-97688791D01*
X161663680Y-97450403D01*
X161682979Y-97421520D01*
X161751777Y-97318558D01*
X161782712Y-97163035D01*
X161782712Y-94472515D01*
X162079193Y-94768996D01*
X161929706Y-94918222D01*
X161827017Y-95165525D01*
X161826783Y-95433301D01*
X161929041Y-95680783D01*
X162118222Y-95870294D01*
X162365525Y-95972983D01*
X162633301Y-95973217D01*
X162880783Y-95870959D01*
X163070294Y-95681778D01*
X163172983Y-95434475D01*
X163173217Y-95166699D01*
X163070959Y-94919217D01*
X162906400Y-94754371D01*
X162906400Y-94615067D01*
X162899404Y-94579895D01*
X163612452Y-94580517D01*
X164285371Y-94302473D01*
X164800664Y-93788079D01*
X165079882Y-93115646D01*
X165080517Y-92387548D01*
X164802473Y-91714629D01*
X164288079Y-91199336D01*
X163615646Y-90920118D01*
X162887548Y-90919483D01*
X162214629Y-91197527D01*
X161699336Y-91711921D01*
X161420118Y-92384354D01*
X161419616Y-92959947D01*
X160732401Y-92272732D01*
X160676798Y-92235579D01*
X160600556Y-92184635D01*
X160445033Y-92153700D01*
X159239900Y-92153700D01*
X159178426Y-92165928D01*
X159475382Y-91869489D01*
X159642010Y-91468205D01*
X159642389Y-91033701D01*
X159476462Y-90632127D01*
X159249931Y-90405200D01*
X163210092Y-90405200D01*
X164144277Y-90591021D01*
X164144277Y-90591021D01*
G37*
X164144277Y-90591021D02*
X164902410Y-91097588D01*
X165408979Y-91855723D01*
X165594800Y-92789907D01*
X165594800Y-100280466D01*
X165423107Y-100108474D01*
X165299613Y-100057195D01*
X165299822Y-99817864D01*
X165197564Y-99570382D01*
X165008383Y-99380871D01*
X164761080Y-99278182D01*
X164493304Y-99277948D01*
X164245822Y-99380206D01*
X164170161Y-99455736D01*
X164125216Y-99493931D01*
X164122696Y-99476786D01*
X164212861Y-99386778D01*
X164315550Y-99139475D01*
X164315784Y-98871699D01*
X164213526Y-98624217D01*
X164024345Y-98434706D01*
X163777042Y-98332017D01*
X163509266Y-98331783D01*
X163357108Y-98394654D01*
X163520294Y-98231752D01*
X163622983Y-97984449D01*
X163623217Y-97716673D01*
X163520959Y-97469191D01*
X163331778Y-97279680D01*
X163217190Y-97232099D01*
X163137368Y-97112638D01*
X163005523Y-97024541D01*
X162850000Y-96993606D01*
X162694477Y-97024541D01*
X162562632Y-97112638D01*
X161986479Y-97688791D01*
X161425292Y-97688791D01*
X161663680Y-97450403D01*
X161682979Y-97421520D01*
X161751777Y-97318558D01*
X161782712Y-97163035D01*
X161782712Y-94472515D01*
X162079193Y-94768996D01*
X161929706Y-94918222D01*
X161827017Y-95165525D01*
X161826783Y-95433301D01*
X161929041Y-95680783D01*
X162118222Y-95870294D01*
X162365525Y-95972983D01*
X162633301Y-95973217D01*
X162880783Y-95870959D01*
X163070294Y-95681778D01*
X163172983Y-95434475D01*
X163173217Y-95166699D01*
X163070959Y-94919217D01*
X162906400Y-94754371D01*
X162906400Y-94615067D01*
X162899404Y-94579895D01*
X163612452Y-94580517D01*
X164285371Y-94302473D01*
X164800664Y-93788079D01*
X165079882Y-93115646D01*
X165080517Y-92387548D01*
X164802473Y-91714629D01*
X164288079Y-91199336D01*
X163615646Y-90920118D01*
X162887548Y-90919483D01*
X162214629Y-91197527D01*
X161699336Y-91711921D01*
X161420118Y-92384354D01*
X161419616Y-92959947D01*
X160732401Y-92272732D01*
X160676798Y-92235579D01*
X160600556Y-92184635D01*
X160445033Y-92153700D01*
X159239900Y-92153700D01*
X159178426Y-92165928D01*
X159475382Y-91869489D01*
X159642010Y-91468205D01*
X159642389Y-91033701D01*
X159476462Y-90632127D01*
X159249931Y-90405200D01*
X163210092Y-90405200D01*
X164144277Y-90591021D01*
G36*
X159940032Y-95137368D02*
X160071877Y-95225465D01*
X160227400Y-95256400D01*
X160577486Y-95256400D01*
X160665101Y-95344015D01*
X160665101Y-96335548D01*
X160437562Y-96241066D01*
X160169786Y-96240832D01*
X159922304Y-96343090D01*
X159732793Y-96532271D01*
X159665803Y-96693600D01*
X159157584Y-96693600D01*
X159245261Y-96605922D01*
X159334200Y-96391204D01*
X159334200Y-96223850D01*
X159188150Y-96077800D01*
X158327800Y-96077800D01*
X158327800Y-96097800D01*
X157972200Y-96097800D01*
X157972200Y-96077800D01*
X157952200Y-96077800D01*
X157952200Y-95722200D01*
X157972200Y-95722200D01*
X157972200Y-95702200D01*
X158327800Y-95702200D01*
X158327800Y-95722200D01*
X159188150Y-95722200D01*
X159334200Y-95576150D01*
X159334200Y-95408796D01*
X159245261Y-95194078D01*
X159147884Y-95096700D01*
X159203705Y-95096700D01*
X159418423Y-95007761D01*
X159582761Y-94843422D01*
X159601308Y-94798644D01*
X159940032Y-95137368D01*
X159940032Y-95137368D01*
G37*
X159940032Y-95137368D02*
X160071877Y-95225465D01*
X160227400Y-95256400D01*
X160577486Y-95256400D01*
X160665101Y-95344015D01*
X160665101Y-96335548D01*
X160437562Y-96241066D01*
X160169786Y-96240832D01*
X159922304Y-96343090D01*
X159732793Y-96532271D01*
X159665803Y-96693600D01*
X159157584Y-96693600D01*
X159245261Y-96605922D01*
X159334200Y-96391204D01*
X159334200Y-96223850D01*
X159188150Y-96077800D01*
X158327800Y-96077800D01*
X158327800Y-96097800D01*
X157972200Y-96097800D01*
X157972200Y-96077800D01*
X157952200Y-96077800D01*
X157952200Y-95722200D01*
X157972200Y-95722200D01*
X157972200Y-95702200D01*
X158327800Y-95702200D01*
X158327800Y-95722200D01*
X159188150Y-95722200D01*
X159334200Y-95576150D01*
X159334200Y-95408796D01*
X159245261Y-95194078D01*
X159147884Y-95096700D01*
X159203705Y-95096700D01*
X159418423Y-95007761D01*
X159582761Y-94843422D01*
X159601308Y-94798644D01*
X159940032Y-95137368D01*
G36*
X158910300Y-94437500D02*
X158890300Y-94437500D01*
X158890300Y-94512500D01*
X158534700Y-94512500D01*
X158534700Y-94437500D01*
X158514700Y-94437500D01*
X158514700Y-94349169D01*
X158910300Y-94349169D01*
X158910300Y-94437500D01*
X158910300Y-94437500D01*
G37*
X158910300Y-94437500D02*
X158890300Y-94437500D01*
X158890300Y-94512500D01*
X158534700Y-94512500D01*
X158534700Y-94437500D01*
X158514700Y-94437500D01*
X158514700Y-94349169D01*
X158910300Y-94349169D01*
X158910300Y-94437500D01*
M02*
